<?xml version="1.0" encoding="UTF-8" standalone="no"?>
<!-- Created with Inkscape (http://www.inkscape.org/) -->

<svg
   width="38.05061mm"
   height="45.610283mm"
   viewBox="0 0 38.05061 45.610283"
   version="1.1"
   id="svg1"
   xmlns:inkscape="http://www.inkscape.org/namespaces/inkscape"
   xmlns:sodipodi="http://sodipodi.sourceforge.net/DTD/sodipodi-0.dtd"
   xmlns="http://www.w3.org/2000/svg"
   xmlns:svg="http://www.w3.org/2000/svg">
  <sodipodi:namedview
     id="namedview1"
     pagecolor="#ffffff"
     bordercolor="#000000"
     borderopacity="0.25"
     inkscape:showpageshadow="2"
     inkscape:pageopacity="0.0"
     inkscape:pagecheckerboard="0"
     inkscape:deskcolor="#d1d1d1"
     inkscape:document-units="mm" />
  <defs
     id="defs1">
    <clipPath
       clipPathUnits="userSpaceOnUse"
       id="clipPath640">
      <path
         d="M 0,950 H 666 V 0 H 0 Z"
         transform="translate(-383.66933,-457.38631)"
         id="path640" />
    </clipPath>
    <clipPath
       clipPathUnits="userSpaceOnUse"
       id="clipPath642">
      <path
         d="M 0,950 H 666 V 0 H 0 Z"
         transform="translate(-358.58738,-427.95261)"
         id="path642" />
    </clipPath>
    <clipPath
       clipPathUnits="userSpaceOnUse"
       id="clipPath644">
      <path
         d="M 0,950 H 666 V 0 H 0 Z"
         transform="translate(-356.50523,-427.85081)"
         id="path644" />
    </clipPath>
    <clipPath
       clipPathUnits="userSpaceOnUse"
       id="clipPath646">
      <path
         d="M 0,950 H 666 V 0 H 0 Z"
         transform="translate(-367.99868,-418.00841)"
         id="path646" />
    </clipPath>
    <clipPath
       clipPathUnits="userSpaceOnUse"
       id="clipPath648">
      <path
         d="M 0,950 H 666 V 0 H 0 Z"
         transform="translate(-365.97601,-417.90661)"
         id="path648" />
    </clipPath>
    <clipPath
       clipPathUnits="userSpaceOnUse"
       id="clipPath650">
      <path
         d="M 0,950 H 666 V 0 H 0 Z"
         transform="translate(-356.50523,-412.54521)"
         id="path650" />
    </clipPath>
    <clipPath
       clipPathUnits="userSpaceOnUse"
       id="clipPath652">
      <path
         d="M 0,950 H 666 V 0 H 0 Z"
         transform="translate(-354.61111,-411.75061)"
         id="path652" />
    </clipPath>
    <clipPath
       clipPathUnits="userSpaceOnUse"
       id="clipPath654">
      <path
         d="M 0,950 H 666 V 0 H 0 Z"
         transform="translate(-366.92303,-443.86671)"
         id="path654" />
    </clipPath>
    <clipPath
       clipPathUnits="userSpaceOnUse"
       id="clipPath656">
      <path
         d="M 0,950 H 666 V 0 H 0 Z"
         transform="translate(-365.02891,-444.66131)"
         id="path656" />
    </clipPath>
    <clipPath
       clipPathUnits="userSpaceOnUse"
       id="clipPath658">
      <path
         d="M 0,950 H 666 V 0 H 0 Z"
         transform="translate(-350.82278,-385.23271)"
         id="path658" />
    </clipPath>
    <clipPath
       clipPathUnits="userSpaceOnUse"
       id="clipPath660">
      <path
         d="M 0,950 H 666 V 0 H 0 Z"
         transform="translate(-319.77331,-386.75521)"
         id="path660" />
    </clipPath>
    <clipPath
       clipPathUnits="userSpaceOnUse"
       id="clipPath662">
      <path
         d="M 0,950 H 666 V 0 H 0 Z"
         transform="translate(-309.01058,-433.05971)"
         id="path662" />
    </clipPath>
    <clipPath
       clipPathUnits="userSpaceOnUse"
       id="clipPath664">
      <path
         d="M 0,950 H 666 V 0 H 0 Z"
         transform="translate(-303.67313,-418.00841)"
         id="path664" />
    </clipPath>
    <clipPath
       clipPathUnits="userSpaceOnUse"
       id="clipPath666">
      <path
         d="M 0,950 H 666 V 0 H 0 Z"
         transform="translate(-305.69588,-417.90661)"
         id="path666" />
    </clipPath>
    <clipPath
       clipPathUnits="userSpaceOnUse"
       id="clipPath668">
      <path
         d="M 0,950 H 666 V 0 H 0 Z"
         transform="translate(-315.16658,-412.54521)"
         id="path668" />
    </clipPath>
    <clipPath
       clipPathUnits="userSpaceOnUse"
       id="clipPath670">
      <path
         d="M 0,950 H 666 V 0 H 0 Z"
         transform="translate(-317.06071,-411.75061)"
         id="path670" />
    </clipPath>
    <clipPath
       clipPathUnits="userSpaceOnUse"
       id="clipPath672">
      <path
         d="M 0,950 H 666 V 0 H 0 Z"
         transform="translate(-320.84903,-385.23271)"
         id="path672" />
    </clipPath>
    <clipPath
       clipPathUnits="userSpaceOnUse"
       id="clipPath674">
      <path
         d="M 0,950 H 666 V 0 H 0 Z"
         transform="translate(-336.48188,-432.16381)"
         id="path674" />
    </clipPath>
    <clipPath
       clipPathUnits="userSpaceOnUse"
       id="clipPath676">
      <path
         d="M 0,950 H 666 V 0 H 0 Z"
         transform="translate(-336.40688,-442.58151)"
         id="path676" />
    </clipPath>
    <clipPath
       clipPathUnits="userSpaceOnUse"
       id="clipPath678">
      <path
         d="M 0,950 H 666 V 0 H 0 Z"
         transform="translate(-358.05451,-435.05571)"
         id="path678" />
    </clipPath>
    <clipPath
       clipPathUnits="userSpaceOnUse"
       id="clipPath680">
      <path
         d="M 0,950 H 666 V 0 H 0 Z"
         transform="translate(-325.38061,-444.05281)"
         id="path680" />
    </clipPath>
    <clipPath
       clipPathUnits="userSpaceOnUse"
       id="clipPath682">
      <path
         d="M 0,950 H 666 V 0 H 0 Z"
         transform="translate(-350.65163,-444.99991)"
         id="path682" />
    </clipPath>
    <clipPath
       clipPathUnits="userSpaceOnUse"
       id="clipPath684">
      <path
         d="M 0,950 H 666 V 0 H 0 Z"
         transform="translate(-314.48941,-418.48201)"
         id="path684" />
    </clipPath>
    <clipPath
       clipPathUnits="userSpaceOnUse"
       id="clipPath686">
      <path
         d="M 0,950 H 666 V 0 H 0 Z"
         transform="translate(-320.17178,-428.42621)"
         id="path686" />
    </clipPath>
    <clipPath
       clipPathUnits="userSpaceOnUse"
       id="clipPath688">
      <path
         d="M 0,950 H 666 V 0 H 0 Z"
         transform="translate(-356.03168,-452.71141)"
         id="path688" />
    </clipPath>
    <clipPath
       clipPathUnits="userSpaceOnUse"
       id="clipPath690">
      <path
         d="M 0,950 H 666 V 0 H 0 Z"
         transform="translate(-336.34703,-437.84621)"
         id="path690" />
    </clipPath>
    <clipPath
       clipPathUnits="userSpaceOnUse"
       id="clipPath692">
      <path
         d="M 0,950 H 666 V 0 H 0 Z"
         transform="translate(-336.34703,-425.06081)"
         id="path692" />
    </clipPath>
    <clipPath
       clipPathUnits="userSpaceOnUse"
       id="clipPath694">
      <path
         d="M 0,950 H 666 V 0 H 0 Z"
         transform="translate(-314.35441,-447.97601)"
         id="path694" />
    </clipPath>
    <clipPath
       clipPathUnits="userSpaceOnUse"
       id="clipPath696">
      <path
         d="M 0,950 H 666 V 0 H 0 Z"
         transform="translate(-331.87523,-432.34941)"
         id="path696" />
    </clipPath>
    <clipPath
       clipPathUnits="userSpaceOnUse"
       id="clipPath698">
      <path
         d="M 0,950 H 666 V 0 H 0 Z"
         transform="translate(-336.48188,-463.94131)"
         id="path698" />
    </clipPath>
    <clipPath
       clipPathUnits="userSpaceOnUse"
       id="clipPath700">
      <path
         d="M 0,950 H 666 V 0 H 0 Z"
         transform="translate(-334.24913,-385.23271)"
         id="path700" />
    </clipPath>
    <clipPath
       clipPathUnits="userSpaceOnUse"
       id="clipPath702">
      <path
         d="M 0,950 H 666 V 0 H 0 Z"
         transform="translate(-334.24913,-463.83941)"
         id="path702" />
    </clipPath>
    <clipPath
       clipPathUnits="userSpaceOnUse"
       id="clipPath704">
      <path
         d="M 0,950 H 666 V 0 H 0 Z"
         transform="translate(-345.60713,-454.85881)"
         id="path704" />
    </clipPath>
    <clipPath
       clipPathUnits="userSpaceOnUse"
       id="clipPath706">
      <path
         d="M 0,950 H 666 V 0 H 0 Z"
         transform="translate(-345.60713,-454.85881)"
         id="path706" />
    </clipPath>
    <clipPath
       clipPathUnits="userSpaceOnUse"
       id="clipPath708">
      <path
         d="M 0,950 H 666 V 0 H 0 Z"
         transform="translate(-345.31711,-450.95801)"
         id="path708" />
    </clipPath>
  </defs>
  <g
     inkscape:label="Capa 1"
     inkscape:groupmode="layer"
     id="layer1"
     transform="translate(-80.168751,-117.73958)">
    <path
       id="path639"
       d="M 0,0 C 0,3.489 -2.227,6.58 -5.539,7.675 L -48.54,21.935 -91.535,7.675 c -3.317,-1.101 -5.544,-4.186 -5.544,-7.68 V -36.34 c 0,-32.565 37.537,-53.852 48.674,-59.423 C -37.349,-91.309 0,-73.397 0,-36.34 Z m 5.393,0 v -36.34 c 0,-40.434 -38.68,-59.154 -50.535,-63.927 l -3.506,-1.408 -3.37,1.683 c -11.839,5.917 -50.449,27.981 -50.449,63.647 v 36.334 c 0,5.82 3.71,10.965 9.238,12.799 L -48.54,27.614 -3.845,12.798 C 1.683,10.97 5.393,5.83 5.393,0.005 Z"
       style="fill:#022533;fill-opacity:1;fill-rule:nonzero;stroke:none"
       transform="matrix(0.35277776,0,0,-0.35277776,116.31683,127.48119)"
       clip-path="url(#clipPath640)" />
    <path
       id="path641"
       d="m 0,0 h -11.898 l -5.209,-4.735 v -6.7 -26.448 h 6.515 l 3.903,-3.314"
       style="fill:none;stroke:#022533;stroke-width:2.5;stroke-linecap:round;stroke-linejoin:round;stroke-miterlimit:10;stroke-dasharray:none;stroke-opacity:1"
       transform="matrix(0.35277776,0,0,-0.35277776,107.46848,137.86474)"
       clip-path="url(#clipPath642)" />
    <path
       id="path643"
       d="m 0,0 c 0,-1.233 1,-2.233 2.233,-2.233 1.233,0 2.232,1 2.232,2.233 0,1.233 -0.999,2.233 -2.232,2.233 C 1,2.233 0,1.233 0,0"
       style="fill:#ffffff;fill-opacity:1;fill-rule:nonzero;stroke:#022533;stroke-width:2.5;stroke-linecap:round;stroke-linejoin:round;stroke-miterlimit:10;stroke-dasharray:none;stroke-opacity:1"
       transform="matrix(0.35277776,0,0,-0.35277776,106.73394,137.90065)"
       clip-path="url(#clipPath644)" />
    <path
       id="path645"
       d="M 0,0 H -26.518"
       style="fill:none;stroke:#022533;stroke-width:2.5;stroke-linecap:round;stroke-linejoin:round;stroke-miterlimit:10;stroke-dasharray:none;stroke-opacity:1"
       transform="matrix(0.35277776,0,0,-0.35277776,110.78858,141.37283)"
       clip-path="url(#clipPath646)" />
    <path
       id="path647"
       d="m 0,0 c 0,-1.233 1,-2.233 2.233,-2.233 1.233,0 2.232,1 2.232,2.233 0,1.233 -0.999,2.233 -2.232,2.233 C 1,2.233 0,1.233 0,0"
       style="fill:#ffffff;fill-opacity:1;fill-rule:nonzero;stroke:#022533;stroke-width:2.5;stroke-linecap:round;stroke-linejoin:round;stroke-miterlimit:10;stroke-dasharray:none;stroke-opacity:1"
       transform="matrix(0.35277776,0,0,-0.35277776,110.07502,141.40875)"
       clip-path="url(#clipPath648)" />
    <path
       id="path649"
       d="M 0,0 -5.2,5.463"
       style="fill:none;stroke:#022533;stroke-width:2.5;stroke-linecap:round;stroke-linejoin:round;stroke-miterlimit:10;stroke-dasharray:none;stroke-opacity:1"
       transform="matrix(0.35277776,0,0,-0.35277776,106.73394,143.30013)"
       clip-path="url(#clipPath650)" />
    <path
       id="path651"
       d="m 0,0 c 0,-1.233 1,-2.233 2.233,-2.233 1.233,0 2.232,1 2.232,2.233 0,1.233 -0.999,2.233 -2.232,2.233 C 1,2.233 0,1.233 0,0"
       style="fill:#ffffff;fill-opacity:1;fill-rule:nonzero;stroke:#022533;stroke-width:2.5;stroke-linecap:round;stroke-linejoin:round;stroke-miterlimit:10;stroke-dasharray:none;stroke-opacity:1"
       transform="matrix(0.35277776,0,0,-0.35277776,106.06574,143.58045)"
       clip-path="url(#clipPath652)" />
    <path
       id="path653"
       d="M 0,0 -5.2,-5.463"
       style="fill:none;stroke:#cd3c47;stroke-width:2.5;stroke-linecap:round;stroke-linejoin:round;stroke-miterlimit:10;stroke-dasharray:none;stroke-opacity:1"
       transform="matrix(0.35277776,0,0,-0.35277776,110.40911,132.2506)"
       clip-path="url(#clipPath654)" />
    <path
       id="path655"
       d="m 0,0 c 0,1.233 1,2.233 2.233,2.233 1.233,0 2.232,-1 2.232,-2.233 0,-1.233 -0.999,-2.233 -2.232,-2.233 C 1,-2.233 0,-1.233 0,0"
       style="fill:#ffffff;fill-opacity:1;fill-rule:nonzero;stroke:#cd3c47;stroke-width:2.5;stroke-linecap:round;stroke-linejoin:round;stroke-miterlimit:10;stroke-dasharray:none;stroke-opacity:1"
       transform="matrix(0.35277776,0,0,-0.35277776,109.74091,131.97028)"
       clip-path="url(#clipPath656)" />
    <path
       id="path657"
       d="m 0,0 c 0,-1.233 1,-2.233 2.233,-2.233 1.233,0 2.232,1 2.232,2.233 0,1.233 -0.999,2.233 -2.232,2.233 C 1,2.233 0,1.233 0,0"
       style="fill:#ffffff;fill-opacity:1;fill-rule:nonzero;stroke:#022533;stroke-width:2.5;stroke-linecap:round;stroke-linejoin:round;stroke-miterlimit:10;stroke-dasharray:none;stroke-opacity:1"
       transform="matrix(0.35277776,0,0,-0.35277776,104.7293,152.93537)"
       clip-path="url(#clipPath658)" />
    <path
       id="path659"
       d="m 0,0 3.904,3.315 h 6.514 v 26.447 6.7 L 5.209,41.197 H -6.689 l -5.965,4.295"
       style="fill:none;stroke:#cd3c47;stroke-width:2.5;stroke-linecap:round;stroke-linejoin:round;stroke-miterlimit:10;stroke-dasharray:none;stroke-opacity:1"
       transform="matrix(0.35277776,0,0,-0.35277776,93.775736,152.39827)"
       clip-path="url(#clipPath660)" />
    <path
       id="path661"
       d="m 0,0 c 0,-1.233 -1,-2.233 -2.233,-2.233 -1.233,0 -2.232,1 -2.232,2.233 0,1.233 0.999,2.233 2.232,2.233 C -1,2.233 0,1.233 0,0"
       style="fill:#ffffff;fill-opacity:1;fill-rule:nonzero;stroke:#cd3c47;stroke-width:2.5;stroke-linecap:round;stroke-linejoin:round;stroke-miterlimit:10;stroke-dasharray:none;stroke-opacity:1"
       transform="matrix(0.35277776,0,0,-0.35277776,89.978886,136.06307)"
       clip-path="url(#clipPath662)" />
    <path
       id="path663"
       d="M 0,0 H 26.518"
       style="fill:none;stroke:#cd3c47;stroke-width:2.5;stroke-linecap:round;stroke-linejoin:round;stroke-miterlimit:10;stroke-dasharray:none;stroke-opacity:1"
       transform="matrix(0.35277776,0,0,-0.35277776,88.095952,141.37283)"
       clip-path="url(#clipPath664)" />
    <path
       id="path665"
       d="m 0,0 c 0,-1.233 -1,-2.233 -2.233,-2.233 -1.233,0 -2.232,1 -2.232,2.233 0,1.233 0.999,2.233 2.232,2.233 C -1,2.233 0,1.233 0,0"
       style="fill:#ffffff;fill-opacity:1;fill-rule:nonzero;stroke:#cd3c47;stroke-width:2.5;stroke-linecap:round;stroke-linejoin:round;stroke-miterlimit:10;stroke-dasharray:none;stroke-opacity:1"
       transform="matrix(0.35277776,0,0,-0.35277776,88.809534,141.40875)"
       clip-path="url(#clipPath666)" />
    <path
       id="path667"
       d="M 0,0 5.2,5.463"
       style="fill:none;stroke:#cd3c47;stroke-width:2.5;stroke-linecap:round;stroke-linejoin:round;stroke-miterlimit:10;stroke-dasharray:none;stroke-opacity:1"
       transform="matrix(0.35277776,0,0,-0.35277776,92.150586,143.30013)"
       clip-path="url(#clipPath668)" />
    <path
       id="path669"
       d="m 0,0 c 0,-1.233 -1,-2.233 -2.233,-2.233 -1.233,0 -2.232,1 -2.232,2.233 0,1.233 0.999,2.233 2.232,2.233 C -1,2.233 0,1.233 0,0"
       style="fill:#ffffff;fill-opacity:1;fill-rule:nonzero;stroke:#cd3c47;stroke-width:2.5;stroke-linecap:round;stroke-linejoin:round;stroke-miterlimit:10;stroke-dasharray:none;stroke-opacity:1"
       transform="matrix(0.35277776,0,0,-0.35277776,92.818791,143.58045)"
       clip-path="url(#clipPath670)" />
    <path
       id="path671"
       d="m 0,0 c 0,-1.233 -1,-2.233 -2.233,-2.233 -1.233,0 -2.232,1 -2.232,2.233 0,1.233 0.999,2.233 2.232,2.233 C -1,2.233 0,1.233 0,0"
       style="fill:#ffffff;fill-opacity:1;fill-rule:nonzero;stroke:#cd3c47;stroke-width:2.5;stroke-linecap:round;stroke-linejoin:round;stroke-miterlimit:10;stroke-dasharray:none;stroke-opacity:1"
       transform="matrix(0.35277776,0,0,-0.35277776,94.155228,152.93537)"
       clip-path="url(#clipPath672)" />
    <path
       id="path673"
       d="m 0,0 5.946,6.207 h 30.78"
       style="fill:none;stroke:#cd3c47;stroke-width:2.5;stroke-linecap:round;stroke-linejoin:round;stroke-miterlimit:10;stroke-dasharray:none;stroke-opacity:1"
       transform="matrix(0.35277776,0,0,-0.35277776,99.67015,136.37913)"
       clip-path="url(#clipPath674)" />
    <path
       id="path675"
       d="m 0,0 5.946,6.207 h 10.493 l 3.659,2.649"
       style="fill:none;stroke:#cd3c47;stroke-width:2.5;stroke-linecap:round;stroke-linejoin:round;stroke-miterlimit:10;stroke-dasharray:none;stroke-opacity:1"
       transform="matrix(0.35277776,0,0,-0.35277776,99.643692,132.70399)"
       clip-path="url(#clipPath676)" />
    <path
       id="path677"
       d="M 0,0 -3.435,3.335"
       style="fill:none;stroke:#cd3c47;stroke-width:2.5;stroke-linecap:round;stroke-linejoin:round;stroke-miterlimit:10;stroke-dasharray:none;stroke-opacity:1"
       transform="matrix(0.35277776,0,0,-0.35277776,107.28049,135.35893)"
       clip-path="url(#clipPath678)" />
    <path
       id="path679"
       d="M 0,0 -3.435,3.335"
       style="fill:none;stroke:#cd3c47;stroke-width:2.5;stroke-linecap:round;stroke-linejoin:round;stroke-miterlimit:10;stroke-dasharray:none;stroke-opacity:1"
       transform="matrix(0.35277776,0,0,-0.35277776,95.753867,132.18495)"
       clip-path="url(#clipPath680)" />
    <path
       id="path681"
       d="M 0,0 -3.435,3.335"
       style="fill:none;stroke:#cd3c47;stroke-width:2.5;stroke-linecap:round;stroke-linejoin:round;stroke-miterlimit:10;stroke-dasharray:none;stroke-opacity:1"
       transform="matrix(0.35277776,0,0,-0.35277776,104.66892,131.85083)"
       clip-path="url(#clipPath682)" />
    <path
       id="path683"
       d="M 0,0 -3.435,3.335"
       style="fill:none;stroke:#cd3c47;stroke-width:2.5;stroke-linecap:round;stroke-linejoin:round;stroke-miterlimit:10;stroke-dasharray:none;stroke-opacity:1"
       transform="matrix(0.35277776,0,0,-0.35277776,91.911694,141.20576)"
       clip-path="url(#clipPath684)" />
    <path
       id="path685"
       d="M 0,0 -3.435,3.335"
       style="fill:none;stroke:#cd3c47;stroke-width:2.5;stroke-linecap:round;stroke-linejoin:round;stroke-miterlimit:10;stroke-dasharray:none;stroke-opacity:1"
       transform="matrix(0.35277776,0,0,-0.35277776,93.91631,137.69767)"
       clip-path="url(#clipPath686)" />
    <path
       id="path687"
       d="m 0,0 c 0,1.233 1,2.233 2.233,2.233 1.233,0 2.232,-1 2.232,-2.233 0,-1.233 -0.999,-2.233 -2.232,-2.233 C 1,-2.233 0,-1.233 0,0"
       style="fill:#ffffff;fill-opacity:1;fill-rule:nonzero;stroke:#cd3c47;stroke-width:2.5;stroke-linecap:round;stroke-linejoin:round;stroke-miterlimit:10;stroke-dasharray:none;stroke-opacity:1"
       transform="matrix(0.35277776,0,0,-0.35277776,106.56689,129.13039)"
       clip-path="url(#clipPath688)" />
    <path
       id="path689"
       d="m 0,0 -5.946,6.207 h -13.808 l -3.659,2.649"
       style="fill:none;stroke:#cd3c47;stroke-width:2.5;stroke-linecap:round;stroke-linejoin:round;stroke-miterlimit:10;stroke-dasharray:none;stroke-opacity:1"
       transform="matrix(0.35277776,0,0,-0.35277776,99.622578,134.3745)"
       clip-path="url(#clipPath690)" />
    <path
       id="path691"
       d="M 0,0 -5.946,6.207"
       style="fill:none;stroke:#cd3c47;stroke-width:2.5;stroke-linecap:round;stroke-linejoin:round;stroke-miterlimit:10;stroke-dasharray:none;stroke-opacity:1"
       transform="matrix(0.35277776,0,0,-0.35277776,99.622578,138.8849)"
       clip-path="url(#clipPath692)" />
    <path
       id="path693"
       d="m 0,0 c 0,1.233 -1,2.233 -2.233,2.233 -1.233,0 -2.232,-1 -2.232,-2.233 0,-1.233 0.999,-2.233 2.232,-2.233 C -1,-2.233 0,-1.233 0,0"
       style="fill:#ffffff;fill-opacity:1;fill-rule:nonzero;stroke:#cd3c47;stroke-width:2.5;stroke-linecap:round;stroke-linejoin:round;stroke-miterlimit:10;stroke-dasharray:none;stroke-opacity:1"
       transform="matrix(0.35277776,0,0,-0.35277776,91.864069,130.80093)"
       clip-path="url(#clipPath694)" />
    <path
       id="path695"
       d="m 0,0 c 0,1.233 -1,2.233 -2.233,2.233 -1.233,0 -2.232,-1 -2.232,-2.233 0,-1.233 0.999,-2.233 2.232,-2.233 C -1,-2.233 0,-1.233 0,0"
       style="fill:#ffffff;fill-opacity:1;fill-rule:nonzero;stroke:#cd3c47;stroke-width:2.5;stroke-linecap:round;stroke-linejoin:round;stroke-miterlimit:10;stroke-dasharray:none;stroke-opacity:1"
       transform="matrix(0.35277776,0,0,-0.35277776,98.045027,136.31365)"
       clip-path="url(#clipPath696)" />
    <path
       id="path697"
       d="M 0,0 V -79.08"
       style="fill:none;stroke:#022533;stroke-width:2.5;stroke-linecap:round;stroke-linejoin:round;stroke-miterlimit:10;stroke-dasharray:none;stroke-opacity:1"
       transform="matrix(0.35277776,0,0,-0.35277776,99.67015,125.16873)"
       clip-path="url(#clipPath698)" />
    <path
       id="path699"
       d="m 0,0 c 0,-1.233 1,-2.233 2.233,-2.233 1.233,0 2.232,1 2.232,2.233 0,1.233 -0.999,2.233 -2.232,2.233 C 1,2.233 0,1.233 0,0"
       style="fill:#ffffff;fill-opacity:1;fill-rule:nonzero;stroke:#022533;stroke-width:2.5;stroke-linecap:round;stroke-linejoin:round;stroke-miterlimit:10;stroke-dasharray:none;stroke-opacity:1"
       transform="matrix(0.35277776,0,0,-0.35277776,98.882486,152.93537)"
       clip-path="url(#clipPath700)" />
    <path
       id="path701"
       d="m 0,0 c 0,-1.233 1,-2.233 2.233,-2.233 1.233,0 2.232,1 2.232,2.233 0,1.233 -0.999,2.233 -2.232,2.233 C 1,2.233 0,1.233 0,0"
       style="fill:#ffffff;fill-opacity:1;fill-rule:nonzero;stroke:#022533;stroke-width:2.5;stroke-linecap:round;stroke-linejoin:round;stroke-miterlimit:10;stroke-dasharray:none;stroke-opacity:1"
       transform="matrix(0.35277776,0,0,-0.35277776,98.882486,125.20468)"
       clip-path="url(#clipPath702)" />
    <path
       id="path703"
       d="M 0,0 V 0.138 C 0,0.213 -0.008,0.286 -0.022,0.356 H 2.396 C 2.382,0.286 2.374,0.213 2.374,0.138 V 0 Z M 4.049,1.22 H 3.996 V 2.2 c 0,0.651 -0.327,1.224 -0.823,1.57 L 4.001,4.113 C 3.625,4.113 3.267,4.036 2.939,3.902 2.681,4.032 2.393,4.113 2.083,4.113 H 0.291 c -0.31,0 -0.598,-0.081 -0.856,-0.211 -0.328,0.134 -0.686,0.211 -1.062,0.211 L -0.798,3.77 C -1.295,3.424 -1.622,2.851 -1.622,2.2 V 1.22 h -0.053 c -0.742,0 -1.344,-0.602 -1.344,-1.344 v -2.962 h 0.205 c 0.496,0 0.955,0.139 1.359,0.364 0.295,-0.657 0.952,-1.116 1.718,-1.116 h 1.848 c 0.767,0 1.423,0.459 1.718,1.116 0.404,-0.225 0.863,-0.364 1.359,-0.364 h 0.205 v 2.962 c 0,0.742 -0.602,1.344 -1.344,1.344"
       style="fill:#022533;fill-opacity:1;fill-rule:nonzero;stroke:none"
       transform="matrix(0.35277776,0,0,-0.35277776,102.88934,128.37283)"
       clip-path="url(#clipPath704)" />
    <path
       id="path705"
       d="M 0,0 V 0.138 C 0,0.213 -0.008,0.286 -0.022,0.356 H 2.396 C 2.382,0.286 2.374,0.213 2.374,0.138 V 0 Z M 4.049,1.22 H 3.996 V 2.2 c 0,0.651 -0.327,1.224 -0.823,1.57 L 4.001,4.113 C 3.625,4.113 3.267,4.036 2.939,3.902 2.681,4.032 2.393,4.113 2.083,4.113 H 0.291 c -0.31,0 -0.598,-0.081 -0.856,-0.211 -0.328,0.134 -0.686,0.211 -1.062,0.211 L -0.798,3.77 C -1.295,3.424 -1.622,2.851 -1.622,2.2 V 1.22 h -0.053 c -0.742,0 -1.344,-0.602 -1.344,-1.344 v -2.962 h 0.205 c 0.496,0 0.955,0.139 1.359,0.364 0.295,-0.657 0.952,-1.116 1.718,-1.116 h 1.848 c 0.767,0 1.423,0.459 1.718,1.116 0.404,-0.225 0.863,-0.364 1.359,-0.364 h 0.205 v 2.962 c 0,0.742 -0.602,1.344 -1.344,1.344 z"
       style="fill:none;stroke:#022533;stroke-width:0.448;stroke-linecap:round;stroke-linejoin:round;stroke-miterlimit:10;stroke-dasharray:none;stroke-opacity:1"
       transform="matrix(0.35277776,0,0,-0.35277776,102.88934,128.37283)"
       clip-path="url(#clipPath706)" />
    <path
       id="path707"
       d="m 0,0 v -1.038 c 0,-0.286 0.119,-0.563 0.339,-0.787 l 1.11,-1.133 1.147,1.127 c 0.232,0.228 0.358,0.513 0.358,0.806 V 0 Z"
       style="fill:#022533;fill-opacity:1;fill-rule:nonzero;stroke:#022533;stroke-width:0.448;stroke-linecap:round;stroke-linejoin:round;stroke-miterlimit:10;stroke-dasharray:none;stroke-opacity:1"
       transform="matrix(0.35277776,0,0,-0.35277776,102.78702,129.74895)"
       clip-path="url(#clipPath708)" />
  </g>
</svg>
