<?xml version="1.0" encoding="UTF-8" standalone="no"?>
<!-- Created with Inkscape (http://www.inkscape.org/) -->

<svg
   width="107.06099mm"
   height="19.112806mm"
   viewBox="0 0 107.06099 19.112806"
   version="1.1"
   id="svg1"
   xmlns:inkscape="http://www.inkscape.org/namespaces/inkscape"
   xmlns:sodipodi="http://sodipodi.sourceforge.net/DTD/sodipodi-0.dtd"
   xmlns="http://www.w3.org/2000/svg"
   xmlns:svg="http://www.w3.org/2000/svg">
  <sodipodi:namedview
     id="namedview1"
     pagecolor="#ffffff"
     bordercolor="#000000"
     borderopacity="0.25"
     inkscape:showpageshadow="2"
     inkscape:pageopacity="0.0"
     inkscape:pagecheckerboard="0"
     inkscape:deskcolor="#d1d1d1"
     inkscape:document-units="mm" />
  <defs
     id="defs1">
    <clipPath
       clipPathUnits="userSpaceOnUse"
       id="clipPath847">
      <path
         d="M 0,950 H 666 V 0 H 0 Z"
         transform="translate(-194.78723,-549.54721)"
         id="path847" />
    </clipPath>
    <clipPath
       clipPathUnits="userSpaceOnUse"
       id="clipPath849">
      <path
         d="M 0,950 H 666 V 0 H 0 Z"
         transform="translate(-226.11661,-549.54721)"
         id="path849" />
    </clipPath>
    <clipPath
       clipPathUnits="userSpaceOnUse"
       id="clipPath851">
      <path
         d="M 0,950 H 666 V 0 H 0 Z"
         transform="translate(-253.45013,-556.19731)"
         id="path851" />
    </clipPath>
    <clipPath
       clipPathUnits="userSpaceOnUse"
       id="clipPath853">
      <path
         d="M 0,950 H 666 V 0 H 0 Z"
         transform="translate(-285.25013,-549.54721)"
         id="path853" />
    </clipPath>
    <clipPath
       clipPathUnits="userSpaceOnUse"
       id="clipPath855">
      <path
         d="M 0,950 H 666 V 0 H 0 Z"
         transform="translate(-307.52843,-549.66582)"
         id="path855" />
    </clipPath>
    <clipPath
       clipPathUnits="userSpaceOnUse"
       id="clipPath857">
      <path
         d="M 0,950 H 666 V 0 H 0 Z"
         transform="translate(-329.92328,-549.54721)"
         id="path857" />
    </clipPath>
    <clipPath
       clipPathUnits="userSpaceOnUse"
       id="clipPath859">
      <path
         d="M 0,950 H 666 V 0 H 0 Z"
         transform="translate(-385.94258,-549.54721)"
         id="path859" />
    </clipPath>
    <clipPath
       clipPathUnits="userSpaceOnUse"
       id="clipPath861">
      <path
         d="M 0,950 H 666 V 0 H 0 Z"
         transform="translate(-407.75034,-549.66582)"
         id="path861" />
    </clipPath>
    <clipPath
       clipPathUnits="userSpaceOnUse"
       id="clipPath863">
      <path
         d="M 0,950 H 666 V 0 H 0 Z"
         transform="translate(-465.29679,-549.54721)"
         id="path863" />
    </clipPath>
    <clipPath
       clipPathUnits="userSpaceOnUse"
       id="clipPath865">
      <path
         d="M 0,950 H 666 V 0 H 0 Z"
         transform="translate(-368.93033,-556.70241)"
         id="path865" />
    </clipPath>
  </defs>
  <g
     inkscape:label="Capa 1"
     inkscape:groupmode="layer"
     id="layer1"
     transform="translate(48.154177,-121.70832)">
    <path
       id="path846"
       d="m 0,0 c -3.41,0 -6.34,0.613 -8.789,1.841 -2.448,1.226 -4.33,2.978 -5.642,5.255 -1.314,2.275 -1.97,4.977 -1.97,8.104 0,3.008 0.638,5.631 1.91,7.868 1.274,2.235 3.028,4.008 5.262,5.313 2.233,1.307 4.761,1.96 7.582,1.96 2.155,0 4.065,-0.347 5.732,-1.039 1.665,-0.693 3.105,-1.683 4.32,-2.969 1.215,-1.286 2.136,-2.85 2.763,-4.69 0.626,-1.841 0.94,-3.89 0.94,-6.146 0,-0.752 -0.234,-1.317 -0.705,-1.692 -0.471,-0.377 -1.156,-0.564 -2.058,-0.564 H -9.052 v 4.631 H 5.701 l -0.94,-0.831 c 0,1.623 -0.235,2.978 -0.705,4.067 -0.471,1.088 -1.147,1.919 -2.029,2.494 -0.882,0.573 -1.969,0.861 -3.261,0.861 -1.451,0 -2.685,-0.337 -3.705,-1.009 -1.019,-0.674 -1.803,-1.654 -2.35,-2.94 -0.549,-1.286 -0.823,-2.82 -0.823,-4.601 v -0.475 c 0,-3.009 0.685,-5.226 2.057,-6.65 1.371,-1.425 3.449,-2.138 6.231,-2.138 0.94,0 2.008,0.119 3.203,0.357 C 4.574,7.244 5.721,7.62 6.818,8.134 7.758,8.57 8.562,8.708 9.229,8.55 9.894,8.391 10.434,8.065 10.845,7.571 11.256,7.075 11.481,6.492 11.521,5.819 11.559,5.145 11.412,4.483 11.079,3.83 10.747,3.177 10.189,2.632 9.405,2.197 8.033,1.405 6.504,0.841 4.819,0.505 3.134,0.169 1.527,0 0,0"
       style="fill:#ffffff;fill-opacity:1;fill-rule:nonzero;stroke:none"
       transform="matrix(0.35277776,0,0,-0.35277776,-42.368269,135.99237)"
       clip-path="url(#clipPath847)" />
    <path
       id="path848"
       d="m 0,0 c -3.135,0 -5.859,0.613 -8.171,1.841 -2.312,1.226 -4.104,2.988 -5.378,5.284 -1.273,2.295 -1.911,5.007 -1.911,8.135 0,2.335 0.354,4.432 1.059,6.293 0.706,1.861 1.735,3.444 3.086,4.75 1.352,1.307 2.988,2.306 4.908,2.999 1.919,0.692 4.056,1.039 6.407,1.039 1.214,0 2.518,-0.148 3.91,-0.445 C 5.3,29.599 6.662,29.113 7.994,28.441 8.738,28.005 9.258,27.471 9.552,26.838 9.847,26.204 9.954,25.541 9.876,24.849 9.796,24.156 9.552,23.542 9.141,23.008 8.729,22.474 8.209,22.117 7.583,21.94 6.956,21.761 6.251,21.87 5.467,22.266 c -0.745,0.395 -1.519,0.702 -2.322,0.92 -0.804,0.217 -1.558,0.327 -2.263,0.327 -1.175,0 -2.214,-0.189 -3.116,-0.565 -0.901,-0.376 -1.656,-0.91 -2.263,-1.602 -0.607,-0.693 -1.078,-1.554 -1.411,-2.583 -0.332,-1.03 -0.499,-2.197 -0.499,-3.503 0,-2.613 0.637,-4.682 1.91,-6.205 1.274,-1.525 3.066,-2.286 5.379,-2.286 0.705,0 1.449,0.098 2.234,0.297 C 3.899,7.263 4.683,7.58 5.467,8.016 6.251,8.411 6.946,8.51 7.554,8.313 8.161,8.114 8.671,7.748 9.082,7.214 9.494,6.68 9.718,6.066 9.758,5.373 9.796,4.681 9.67,4.017 9.376,3.385 9.082,2.751 8.562,2.256 7.818,1.9 6.525,1.188 5.202,0.692 3.85,0.416 2.499,0.139 1.214,0 0,0"
       style="fill:#ffffff;fill-opacity:1;fill-rule:nonzero;stroke:none"
       transform="matrix(0.35277776,0,0,-0.35277776,-31.315962,135.99237)"
       clip-path="url(#clipPath849)" />
    <path
       id="path850"
       d="m 0,0 c 1.294,0 2.41,0.306 3.35,0.921 0.942,0.613 1.685,1.552 2.234,2.82 0.549,1.266 0.823,2.869 0.823,4.809 0,2.889 -0.587,5.017 -1.763,6.383 C 3.468,16.298 1.92,16.981 0,16.981 c -1.254,0 -2.361,-0.296 -3.321,-0.89 -0.96,-0.594 -1.705,-1.525 -2.234,-2.791 -0.529,-1.267 -0.793,-2.85 -0.793,-4.75 0,-2.929 0.588,-5.086 1.763,-6.472 C -3.409,0.692 -1.881,0 0,0 m 0,-6.65 c -3.096,0 -5.78,0.613 -8.053,1.841 -2.273,1.226 -4.046,2.978 -5.32,5.254 -1.273,2.276 -1.911,4.978 -1.911,8.105 0,2.335 0.354,4.433 1.06,6.294 0.705,1.86 1.734,3.453 3.085,4.779 1.352,1.326 2.978,2.336 4.879,3.028 1.901,0.693 3.988,1.04 6.26,1.04 3.096,0 5.79,-0.615 8.083,-1.841 2.293,-1.227 4.074,-2.979 5.348,-5.255 1.274,-2.276 1.911,-4.957 1.911,-8.045 0,-2.336 -0.362,-4.453 -1.087,-6.353 C 13.53,0.297 12.501,-1.306 11.168,-2.612 9.836,-3.918 8.229,-4.919 6.349,-5.611 4.468,-6.303 2.352,-6.65 0,-6.65"
       style="fill:#ffffff;fill-opacity:1;fill-rule:nonzero;stroke:none"
       transform="matrix(0.35277776,0,0,-0.35277776,-21.673302,133.64636)"
       clip-path="url(#clipPath851)" />
    <path
       id="path852"
       d="m 0,0 c -1.685,0 -3.448,0.148 -5.29,0.445 -1.843,0.297 -3.489,0.822 -4.938,1.574 -0.822,0.395 -1.402,0.9 -1.734,1.514 -0.333,0.613 -0.48,1.247 -0.441,1.9 0.039,0.653 0.244,1.226 0.617,1.722 0.372,0.495 0.862,0.831 1.47,1.009 0.607,0.178 1.283,0.109 2.027,-0.207 1.607,-0.674 3.087,-1.149 4.439,-1.426 1.352,-0.277 2.654,-0.415 3.908,-0.415 1.647,0 2.861,0.276 3.645,0.831 0.783,0.554 1.176,1.266 1.176,2.138 0,0.751 -0.256,1.315 -0.764,1.692 -0.51,0.375 -1.255,0.662 -2.234,0.861 l -6.231,1.128 c -2.39,0.475 -4.242,1.385 -5.555,2.731 -1.314,1.346 -1.969,3.088 -1.969,5.225 0,2.019 0.548,3.741 1.646,5.166 1.096,1.425 2.615,2.523 4.555,3.295 1.941,0.772 4.144,1.158 6.613,1.158 1.765,0 3.381,-0.158 4.85,-0.475 1.47,-0.317 2.91,-0.851 4.32,-1.603 0.706,-0.318 1.205,-0.772 1.5,-1.366 0.293,-0.594 0.382,-1.207 0.264,-1.841 -0.117,-0.633 -0.362,-1.197 -0.735,-1.692 -0.372,-0.495 -0.863,-0.831 -1.469,-1.009 -0.608,-0.178 -1.323,-0.089 -2.146,0.267 -1.254,0.514 -2.41,0.9 -3.468,1.158 -1.058,0.257 -2.038,0.386 -2.94,0.386 -1.801,0 -3.106,-0.278 -3.908,-0.831 -0.803,-0.555 -1.205,-1.267 -1.205,-2.138 0,-0.673 0.234,-1.237 0.705,-1.692 0.471,-0.456 1.176,-0.763 2.116,-0.92 l 6.231,-1.069 c 2.507,-0.475 4.428,-1.356 5.761,-2.642 1.332,-1.287 1.999,-3.019 1.999,-5.196 0,-3.087 -1.167,-5.473 -3.497,-7.154 C 6.986,0.841 3.879,0 0,0"
       style="fill:#ffffff;fill-opacity:1;fill-rule:nonzero;stroke:none"
       transform="matrix(0.35277776,0,0,-0.35277776,-10.454969,135.99237)"
       clip-path="url(#clipPath853)" />
    <path
       id="path854"
       d="m 0,0 c -1.372,0 -2.45,0.426 -3.234,1.277 -0.783,0.851 -1.174,2.048 -1.174,3.592 v 20.366 c 0,1.583 0.391,2.78 1.174,3.592 0.784,0.811 1.862,1.217 3.234,1.217 1.449,0 2.557,-0.406 3.321,-1.217 0.764,-0.812 1.147,-2.009 1.147,-3.592 V 4.869 C 4.468,3.325 4.094,2.128 3.35,1.277 2.605,0.426 1.489,0 0,0"
       style="fill:#ffffff;fill-opacity:1;fill-rule:nonzero;stroke:none"
       transform="matrix(0.35277776,0,0,-0.35277776,-2.5956797,135.95053)"
       clip-path="url(#clipPath855)" />
    <path
       id="path856"
       d="m 0,0 c -1.685,0 -3.448,0.148 -5.29,0.445 -1.843,0.297 -3.489,0.822 -4.938,1.574 -0.822,0.395 -1.402,0.9 -1.734,1.514 -0.333,0.613 -0.48,1.247 -0.441,1.9 0.039,0.653 0.244,1.226 0.617,1.722 0.372,0.495 0.862,0.831 1.47,1.009 0.607,0.178 1.284,0.109 2.027,-0.207 1.607,-0.674 3.087,-1.149 4.439,-1.426 1.352,-0.277 2.654,-0.415 3.908,-0.415 1.647,0 2.861,0.276 3.645,0.831 0.783,0.554 1.176,1.266 1.176,2.138 0,0.751 -0.256,1.315 -0.764,1.692 -0.51,0.375 -1.255,0.662 -2.234,0.861 l -6.231,1.128 c -2.39,0.475 -4.242,1.385 -5.555,2.731 -1.314,1.346 -1.969,3.088 -1.969,5.225 0,2.019 0.548,3.741 1.646,5.166 1.096,1.425 2.615,2.523 4.555,3.295 1.941,0.772 4.144,1.158 6.613,1.158 1.765,0 3.381,-0.158 4.85,-0.475 1.47,-0.317 2.91,-0.851 4.32,-1.603 0.706,-0.318 1.205,-0.772 1.5,-1.366 0.293,-0.594 0.382,-1.207 0.264,-1.841 -0.117,-0.633 -0.362,-1.197 -0.735,-1.692 -0.372,-0.495 -0.863,-0.831 -1.469,-1.009 -0.608,-0.178 -1.323,-0.089 -2.146,0.267 -1.254,0.514 -2.41,0.9 -3.468,1.158 -1.058,0.257 -2.038,0.386 -2.94,0.386 -1.801,0 -3.106,-0.278 -3.908,-0.831 -0.803,-0.555 -1.205,-1.267 -1.205,-2.138 0,-0.673 0.234,-1.237 0.705,-1.692 0.471,-0.456 1.176,-0.763 2.116,-0.92 l 6.231,-1.069 c 2.507,-0.475 4.428,-1.356 5.761,-2.642 1.332,-1.287 1.999,-3.019 1.999,-5.196 0,-3.087 -1.167,-5.473 -3.497,-7.154 C 6.986,0.841 3.879,0 0,0"
       style="fill:#ffffff;fill-opacity:1;fill-rule:nonzero;stroke:none"
       transform="matrix(0.35277776,0,0,-0.35277776,5.3047256,135.99237)"
       clip-path="url(#clipPath857)" />
    <path
       id="path858"
       d="m 0,0 c -3.41,0 -6.34,0.613 -8.789,1.841 -2.448,1.226 -4.33,2.978 -5.642,5.255 -1.314,2.275 -1.97,4.977 -1.97,8.104 0,3.008 0.638,5.631 1.91,7.868 1.274,2.235 3.028,4.008 5.262,5.313 2.233,1.307 4.761,1.96 7.582,1.96 2.155,0 4.065,-0.347 5.732,-1.039 1.665,-0.693 3.105,-1.683 4.32,-2.969 1.215,-1.286 2.136,-2.85 2.763,-4.69 0.626,-1.841 0.94,-3.89 0.94,-6.146 0,-0.752 -0.234,-1.317 -0.705,-1.692 -0.471,-0.377 -1.156,-0.564 -2.058,-0.564 H -9.052 v 4.631 H 5.701 l -0.94,-0.831 c 0,1.623 -0.235,2.978 -0.705,4.067 -0.471,1.088 -1.147,1.919 -2.029,2.494 -0.882,0.573 -1.969,0.861 -3.261,0.861 -1.451,0 -2.685,-0.337 -3.705,-1.009 -1.019,-0.674 -1.803,-1.654 -2.35,-2.94 -0.549,-1.286 -0.823,-2.82 -0.823,-4.601 v -0.475 c 0,-3.009 0.685,-5.226 2.057,-6.65 1.371,-1.425 3.449,-2.138 6.231,-2.138 0.94,0 2.008,0.119 3.203,0.357 C 4.574,7.244 5.721,7.62 6.818,8.134 7.758,8.57 8.562,8.708 9.229,8.55 9.894,8.391 10.434,8.065 10.845,7.571 11.256,7.075 11.481,6.492 11.521,5.819 11.559,5.145 11.412,4.483 11.079,3.83 10.747,3.177 10.189,2.632 9.405,2.197 8.033,1.405 6.504,0.841 4.819,0.505 3.134,0.169 1.527,0 0,0"
       style="fill:#ffffff;fill-opacity:1;fill-rule:nonzero;stroke:none"
       transform="matrix(0.35277776,0,0,-0.35277776,25.06709,135.99237)"
       clip-path="url(#clipPath859)" />
    <path
       id="path860"
       d="M 0,0 C -1.372,0 -2.45,0.386 -3.234,1.158 -4.018,1.93 -4.41,3.048 -4.41,4.513 v 21.078 c 0,1.464 0.382,2.583 1.147,3.355 0.764,0.772 1.851,1.158 3.263,1.158 1.371,0 2.429,-0.386 3.174,-1.158 C 3.918,28.174 4.29,27.055 4.29,25.591 V 21.85 l -0.647,2.257 c 0.784,1.86 1.999,3.344 3.645,4.453 1.646,1.107 3.586,1.662 5.82,1.662 2.234,0 4.094,-0.534 5.584,-1.603 1.489,-1.069 2.547,-2.692 3.174,-4.868 h -0.823 c 0.861,1.978 2.194,3.552 3.997,4.72 1.803,1.167 3.841,1.751 6.113,1.751 2.194,0 4.017,-0.436 5.468,-1.306 1.449,-0.871 2.526,-2.227 3.232,-4.067 0.705,-1.841 1.058,-4.147 1.058,-6.917 V 4.513 C 40.911,3.048 40.529,1.93 39.765,1.158 39.002,0.386 37.893,0 36.444,0 35.072,0 33.994,0.386 33.211,1.158 32.427,1.93 32.036,3.048 32.036,4.513 v 13.122 c 0,1.978 -0.294,3.414 -0.883,4.305 -0.587,0.89 -1.645,1.335 -3.174,1.335 -1.645,0 -2.939,-0.594 -3.879,-1.781 -0.94,-1.187 -1.411,-2.87 -1.411,-5.046 V 4.513 C 22.689,3.048 22.307,1.93 21.542,1.158 20.779,0.386 19.692,0 18.281,0 16.869,0 15.773,0.386 14.989,1.158 14.204,1.93 13.813,3.048 13.813,4.513 v 13.122 c 0,1.978 -0.314,3.414 -0.941,4.305 -0.627,0.89 -1.645,1.335 -3.056,1.335 -1.685,0 -2.998,-0.594 -3.939,-1.781 -0.94,-1.187 -1.41,-2.87 -1.41,-5.046 V 4.513 C 4.467,1.504 2.978,0 0,0"
       style="fill:#ffffff;fill-opacity:1;fill-rule:nonzero;stroke:none"
       transform="matrix(0.35277776,0,0,-0.35277776,32.760379,135.95053)"
       clip-path="url(#clipPath861)" />
    <path
       id="path862"
       d="m 0,0 c -2.195,0 -4.115,0.406 -5.76,1.217 -1.647,0.811 -2.94,1.92 -3.88,3.325 -0.941,1.405 -1.412,3.018 -1.412,4.839 0,2.138 0.549,3.82 1.647,5.047 1.096,1.227 2.87,2.118 5.319,2.672 2.449,0.554 5.711,0.832 9.788,0.832 H 8.818 V 13.3 H 5.76 c -2.037,0 -3.655,-0.109 -4.849,-0.327 -1.196,-0.217 -2.067,-0.593 -2.616,-1.127 -0.549,-0.535 -0.823,-1.238 -0.823,-2.108 0,-1.069 0.383,-1.96 1.147,-2.672 0.763,-0.713 1.852,-1.069 3.262,-1.069 1.136,0 2.155,0.257 3.056,0.772 0.902,0.514 1.607,1.227 2.116,2.138 0.509,0.91 0.765,1.998 0.765,3.265 v 6.769 c 0,1.741 -0.392,2.978 -1.176,3.711 -0.785,0.732 -2.136,1.099 -4.055,1.099 -1.02,0 -2.147,-0.12 -3.381,-0.357 C -2.028,23.157 -3.39,22.72 -4.879,22.088 -5.78,21.731 -6.555,21.652 -7.2,21.85 c -0.647,0.198 -1.147,0.584 -1.5,1.158 -0.352,0.574 -0.529,1.217 -0.529,1.93 0,0.712 0.196,1.385 0.588,2.018 0.391,0.633 1.058,1.108 1.999,1.425 1.802,0.713 3.516,1.218 5.143,1.515 1.626,0.297 3.106,0.445 4.438,0.445 3.018,0 5.515,-0.445 7.495,-1.336 1.978,-0.891 3.448,-2.266 4.408,-4.127 0.96,-1.861 1.44,-4.215 1.44,-7.065 V 4.632 C 16.282,3.167 15.92,2.048 15.195,1.277 14.47,0.505 13.461,0.119 12.168,0.119 10.836,0.119 9.807,0.505 9.082,1.277 8.356,2.048 7.994,3.167 7.994,4.632 V 6.828 L 8.405,6.413 C 8.171,5.106 7.671,3.979 6.907,3.028 6.142,2.078 5.182,1.336 4.026,0.801 2.87,0.267 1.529,0 0,0"
       style="fill:#ffffff;fill-opacity:1;fill-rule:nonzero;stroke:none"
       transform="matrix(0.35277776,0,0,-0.35277776,53.061488,135.99237)"
       clip-path="url(#clipPath863)" />
    <path
       id="path864"
       d="m 0,0 c -0.373,0.375 -0.834,0.544 -1.381,0.504 -0.353,0 -0.795,-0.059 -1.324,-0.178 -0.529,-0.119 -1.087,-0.178 -1.674,-0.178 -1.686,0 -2.901,0.405 -3.645,1.218 -0.745,0.81 -1.117,2.048 -1.117,3.71 v 10.866 h 5.467 c 1.136,0 1.998,0.287 2.587,0.861 0.587,0.573 0.882,1.395 0.882,2.464 0,1.069 -0.295,1.88 -0.882,2.435 -0.589,0.553 -1.451,0.831 -2.587,0.831 h -5.467 v 6.647 c 0,2.295 -1.86,4.155 -4.155,4.155 h -0.567 c -2.294,0 -4.154,-1.86 -4.154,-4.155 v -6.647 h -2.586 c -1.059,0 -1.891,-0.278 -2.499,-0.831 -0.607,-0.555 -0.91,-1.366 -0.91,-2.435 0,-1.069 0.303,-1.891 0.91,-2.464 0.608,-0.574 1.44,-0.861 2.499,-0.861 h 2.586 V 4.72 c 0,-2.652 0.431,-4.849 1.294,-6.591 0.861,-1.742 2.203,-3.058 4.026,-3.948 1.822,-0.891 4.085,-1.336 6.789,-1.336 0.588,0 1.331,0.069 2.234,0.208 0.901,0.139 1.606,0.288 2.116,0.445 0.824,0.277 1.382,0.772 1.676,1.485 0.293,0.712 0.44,1.563 0.44,2.552 C 0.558,-1.198 0.371,-0.377 0,0"
       style="fill:#ffffff;fill-opacity:1;fill-rule:nonzero;stroke:none"
       transform="matrix(0.35277776,0,0,-0.35277776,19.065546,133.46817)"
       clip-path="url(#clipPath865)" />
    <g
       id="g865"
       aria-label="UNIDAD NACIONAL DE PROTECCIÓN"
       transform="matrix(0.35277776,0,0,0.35277776,-47.928329,140.78824)">
      <path
         id="path866"
         d="m 3.364225,0.08150625 c -0.4306641,0 -0.8085938,-0.05566406 -1.1367188,-0.1640625 C 1.8993812,-0.19974375 1.6239906,-0.36673594 1.4071937,-0.5864625 1.1874672,-0.81204844 1.020475,-1.0903688 0.9032875,-1.4184938 0.79195937,-1.7524781 0.739225,-2.1450563 0.739225,-2.5903688 v -3.515625 c 0,-0.140625 0.0351563,-0.2460937 0.10546875,-0.3164062 C 0.91500625,-6.492712 1.020475,-6.5278688 1.1611,-6.5278688 c 0.140625,0 0.2460937,0.035156 0.3164062,0.1054688 0.070312,0.070312 0.1054688,0.1757812 0.1054688,0.3164062 v 3.4921875 c 0,0.65625 0.1464844,1.1455079 0.4453125,1.4648438 0.3046875,0.32226562 0.75,0.48046875 1.3359375,0.48046875 0.5771484,0 1.0136719,-0.15820313 1.3125,-0.48046875 0.3046875,-0.3193359 0.4570312,-0.8085938 0.4570312,-1.4648438 v -3.4921875 c 0,-0.140625 0.035156,-0.2460937 0.1054688,-0.3164062 0.070312,-0.070312 0.1757812,-0.1054688 0.3164062,-0.1054688 0.131836,0 0.234375,0.035156 0.3046875,0.1054688 0.076172,0.070312 0.1171875,0.1757812 0.1171875,0.3164062 v 3.515625 c 0,0.5859375 -0.102539,1.078125 -0.3046875,1.4765625 -0.196289,0.39257817 -0.4892578,0.68847661 -0.8789062,0.89062505 -0.3925781,0.20507812 -0.8671875,0.3046875 -1.4296875,0.3046875 z m 9.556641,-0.0234375 c -0.117188,0 -0.210938,-0.03515625 -0.28125,-0.10546875 -0.07031,-0.0703125 -0.105469,-0.16992188 -0.105469,-0.3046875 v -5.7539063 c 0,-0.140625 0.0293,-0.2460937 0.09375,-0.3164062 0.07031,-0.070312 0.158203,-0.1054688 0.269531,-0.1054688 0.09961,0 0.178711,0.020508 0.234375,0.058594 0.05273,0.032227 0.117188,0.09375 0.1875,0.1875 l 3.890625,5.15625 h -0.234375 v -4.9921875 c 0,-0.1318359 0.03516,-0.234375 0.105469,-0.3046875 0.07031,-0.070312 0.169922,-0.1054688 0.304687,-0.1054688 0.123047,0 0.216797,0.035156 0.28125,0.1054688 0.07031,0.070312 0.105469,0.1728516 0.105469,0.3046875 v 5.765625 c 0,0.13476562 -0.03223,0.234375 -0.09375,0.3046875 -0.06445,0.0703125 -0.146484,0.10546875 -0.246094,0.10546875 -0.102539,0 -0.18457,-0.02050781 -0.246093,-0.05859375 -0.06445,-0.03808594 -0.128907,-0.09960938 -0.199219,-0.1875 l -3.878906,-5.15625 h 0.210937 v 4.9921875 c 0,0.13476562 -0.03516,0.234375 -0.105469,0.3046875 -0.06445,0.0703125 -0.161132,0.10546875 -0.292968,0.10546855 z m 11.874023,0 c -0.140625,0 -0.246094,-0.03515625 -0.316406,-0.10546875 -0.07031,-0.07617188 -0.105469,-0.1875 -0.105469,-0.328125 v -5.71875 c 0,-0.1464844 0.03516,-0.2578125 0.105469,-0.328125 0.07031,-0.070312 0.175781,-0.1054688 0.316406,-0.1054688 0.140625,0 0.246094,0.035156 0.316406,0.1054688 0.07031,0.070312 0.105469,0.1816406 0.105469,0.328125 v 5.71875 c 0,0.140625 -0.03516,0.25195312 -0.105469,0.328125 -0.07031,0.0703125 -0.175781,0.10546875 -0.316406,0.10546875 z M 32.277311,-5.25e-4 c -0.149414,0 -0.263672,-0.03808594 -0.339844,-0.1171875 -0.0791,-0.0761719 -0.117187,-0.19042969 -0.117187,-0.33984375 V -6.0122438 c 0,-0.1464843 0.03809,-0.2607421 0.117187,-0.3398437 0.07617,-0.076172 0.19043,-0.1171875 0.339844,-0.1171875 h 1.769531 c 1.054688,0 1.866211,0.2783203 2.4375,0.8320312 0.577149,0.5566407 0.867188,1.3564454 0.867188,2.4023438 0,0.515625 -0.07617,0.9785156 -0.222657,1.3828125 -0.149414,0.4072266 -0.363281,0.7470703 -0.644531,1.01953125 -0.28125,0.26660156 -0.626953,0.47460937 -1.03125,0.62109375 -0.407226,0.140625 -0.875976,0.2109375 -1.40625,0.2109375 z m 0.386719,-0.7265625 h 1.324218 c 0.413086,0 0.773438,-0.0498047 1.078125,-0.15234375 0.310547,-0.0996094 0.56836,-0.25781255 0.773438,-0.46875005 0.202148,-0.2109375 0.354492,-0.4716796 0.457031,-0.7851562 0.108399,-0.3105469 0.164063,-0.6796875 0.164063,-1.1015625 0,-0.84375 -0.208008,-1.4707031 -0.621094,-1.8867188 -0.416016,-0.4130859 -1.03125,-0.6210937 -1.851563,-0.6210937 H 32.66403 Z m 10.836914,0.78515625 c -0.111328,0 -0.199219,-0.0234375 -0.269532,-0.0703125 -0.06445,-0.046875 -0.102539,-0.11132813 -0.117187,-0.19921875 -0.0088,-0.0849609 0.01172,-0.17871094 0.05859,-0.28125 l 2.507812,-5.671875 c 0.05273,-0.1318359 0.123047,-0.2255859 0.210938,-0.28125 0.08496,-0.052734 0.178711,-0.082031 0.28125,-0.082031 0.108398,0 0.202148,0.029297 0.28125,0.082031 0.08496,0.055664 0.158203,0.1494141 0.222656,0.28125 l 2.496094,5.671875 c 0.05273,0.10253906 0.07324,0.19921875 0.05859,0.29296875 -0.0088,0.0878906 -0.04395,0.15234375 -0.105468,0.19921875 -0.05566,0.03808594 -0.137696,0.05859375 -0.246094,0.05859375 -0.125977,0 -0.228516,-0.03222656 -0.304688,-0.09375 -0.07031,-0.06152344 -0.134765,-0.15527344 -0.1875,-0.28125 l -0.65625,-1.52343755 0.398438,0.2226563 h -3.925781 l 0.398437,-0.2226563 -0.65625,1.52343755 c -0.05566,0.140625 -0.117187,0.24023437 -0.1875,0.29296875 -0.06445,0.05273437 -0.149414,0.08203125 -0.257812,0.08203125 z m 2.660156,-5.56640625 -1.429688,3.3867187 -0.222656,-0.1875 h 3.316406 l -0.210937,0.1875 -1.441406,-3.3867187 z m 9.65625,5.5078125 c -0.149414,0 -0.263672,-0.03808594 -0.339844,-0.1171875 -0.0791,-0.0761719 -0.117187,-0.19042969 -0.117187,-0.33984375 V -6.0122438 c 0,-0.1464843 0.03809,-0.2607421 0.117187,-0.3398437 0.07617,-0.076172 0.19043,-0.1171875 0.339844,-0.1171875 h 1.769531 c 1.054688,0 1.866211,0.2783203 2.4375,0.8320312 0.577149,0.5566407 0.867188,1.3564454 0.867188,2.4023438 0,0.515625 -0.07617,0.9785156 -0.222657,1.3828125 -0.149414,0.4072266 -0.363281,0.7470703 -0.644531,1.01953125 -0.28125,0.26660156 -0.626953,0.47460937 -1.03125,0.62109375 -0.407226,0.140625 -0.875976,0.2109375 -1.40625,0.2109375 z m 0.386719,-0.7265625 h 1.324218 c 0.413086,0 0.773438,-0.0498047 1.078125,-0.15234375 0.310547,-0.0996094 0.56836,-0.25781255 0.773438,-0.46875005 0.202148,-0.2109375 0.354492,-0.4716796 0.457031,-0.7851562 0.108399,-0.3105469 0.164063,-0.6796875 0.164063,-1.1015625 0,-0.84375 -0.208008,-1.4707031 -0.621094,-1.8867188 -0.416016,-0.4130859 -1.03125,-0.6210937 -1.851563,-0.6210937 h -1.324218 z m 18.875976,0.78515625 c -0.117187,0 -0.210937,-0.03515625 -0.28125,-0.10546875 -0.07031,-0.0703125 -0.105468,-0.16992188 -0.105468,-0.3046875 v -5.7539063 c 0,-0.140625 0.0293,-0.2460937 0.09375,-0.3164062 0.07031,-0.070312 0.158203,-0.1054688 0.269531,-0.1054688 0.09961,0 0.178711,0.020508 0.234375,0.058594 0.05273,0.032227 0.117187,0.09375 0.1875,0.1875 l 3.890625,5.15625 h -0.234375 v -4.9921875 c 0,-0.1318359 0.03516,-0.234375 0.105469,-0.3046875 0.07031,-0.070312 0.169921,-0.1054688 0.304687,-0.1054688 0.123047,0 0.216797,0.035156 0.28125,0.1054688 0.07031,0.070312 0.105469,0.1728516 0.105469,0.3046875 v 5.765625 c 0,0.13476562 -0.03223,0.234375 -0.09375,0.3046875 -0.06445,0.0703125 -0.146485,0.10546875 -0.246094,0.10546875 -0.102539,0 -0.18457,-0.02050781 -0.246094,-0.05859375 -0.06445,-0.03808594 -0.128906,-0.09960938 -0.199218,-0.1875 l -3.878907,-5.15625 h 0.210938 v 4.9921875 c 0,0.13476562 -0.03516,0.234375 -0.105469,0.3046875 -0.06445,0.0703125 -0.161133,0.10546875 -0.292969,0.10546855 z m 11.358399,0 c -0.111328,0 -0.199219,-0.0234375 -0.269532,-0.0703125 -0.06445,-0.046875 -0.102539,-0.11132813 -0.117187,-0.19921875 -0.0088,-0.0849609 0.01172,-0.17871094 0.05859,-0.28125 l 2.507812,-5.671875 c 0.05273,-0.1318359 0.123047,-0.2255859 0.210938,-0.28125 0.08496,-0.052734 0.178711,-0.082031 0.28125,-0.082031 0.108398,0 0.202148,0.029297 0.28125,0.082031 0.08496,0.055664 0.158203,0.1494141 0.222656,0.28125 l 2.496094,5.671875 c 0.05273,0.10253906 0.07324,0.19921875 0.05859,0.29296875 -0.0088,0.0878906 -0.04395,0.15234375 -0.105468,0.19921875 -0.05566,0.03808594 -0.137696,0.05859375 -0.246094,0.05859375 -0.125977,0 -0.228516,-0.03222656 -0.304688,-0.09375 -0.07031,-0.06152344 -0.134765,-0.15527344 -0.1875,-0.28125 l -0.65625,-1.52343755 0.398438,0.2226563 h -3.925781 l 0.398437,-0.2226563 -0.65625,1.52343755 c -0.05566,0.140625 -0.117187,0.24023437 -0.1875,0.29296875 -0.06445,0.05273437 -0.149414,0.08203125 -0.257812,0.08203125 z m 2.660156,-5.56640625 -1.429688,3.3867187 -0.222656,-0.1875 h 3.316406 l -0.210937,0.1875 -1.441406,-3.3867187 z m 11.91797,5.58984375 c -0.6416,0 -1.192384,-0.13183594 -1.652345,-0.3984375 -0.454102,-0.27246094 -0.805664,-0.65625 -1.054688,-1.14843755 -0.251953,-0.4980468 -0.375,-1.0898437 -0.375,-1.7695312 0,-0.5068359 0.07031,-0.9638672 0.210938,-1.3710938 0.140625,-0.4130859 0.342773,-0.7646484 0.609375,-1.0546875 0.263672,-0.2871093 0.585937,-0.5068359 0.960937,-0.65625 0.380863,-0.1552734 0.814453,-0.234375 1.300783,-0.234375 0.36621,0 0.71777,0.055664 1.05469,0.1640625 0.34277,0.1025391 0.63867,0.2460938 0.89062,0.4335938 0.0937,0.064453 0.15527,0.1376953 0.1875,0.2226562 0.0293,0.087891 0.0352,0.1699219 0.0117,0.2460938 -0.0234,0.079102 -0.0645,0.1464844 -0.11719,0.1992187 -0.0557,0.046875 -0.12597,0.076172 -0.21094,0.082031 -0.0879,0 -0.18164,-0.035156 -0.28125,-0.1054688 -0.21093,-0.1640625 -0.44531,-0.28125 -0.70312,-0.3515625 -0.25195,-0.076172 -0.52148,-0.1171875 -0.80859,-0.1171875 -0.46875,0 -0.86719,0.1025391 -1.195316,0.3046875 -0.328125,0.1962891 -0.580078,0.4804688 -0.75,0.8554688 -0.164063,0.375 -0.246094,0.8378906 -0.246094,1.3828125 0,0.5390625 0.08203,1.0019531 0.246094,1.3828125 0.169922,0.375 0.421875,0.6650391 0.75,0.8671875 0.328126,0.19628906 0.726566,0.29296875 1.195316,0.29296875 0.28711,0 0.5625,-0.0380859 0.82031,-0.1171875 0.25781,-0.0761719 0.49512,-0.19921875 0.71484,-0.36328125 0.0996,-0.070312 0.19043,-0.099609 0.26953,-0.09375 0.085,0.00879 0.15528,0.035156 0.21094,0.082031 0.0527,0.041016 0.0937,0.099609 0.11719,0.1757813 0.0234,0.0791016 0.0176,0.15820312 -0.0117,0.234375 -0.0234,0.0791016 -0.0791,0.14941406 -0.16406,0.2109375 -0.25196,0.21972656 -0.54785,0.38378906 -0.89063,0.4921875 -0.3457,0.09960937 -0.70898,0.15234375 -1.08984,0.15234425 z m 8.81836,-0.0234375 c -0.14063,0 -0.2461,-0.03515625 -0.31641,-0.10546875 -0.0703,-0.07617188 -0.10547,-0.1875 -0.10547,-0.328125 v -5.71875 c 0,-0.1464844 0.0352,-0.2578125 0.10547,-0.328125 0.0703,-0.070312 0.17578,-0.1054688 0.31641,-0.1054688 0.14062,0 0.24609,0.035156 0.3164,0.1054688 0.0703,0.070312 0.10547,0.1816406 0.10547,0.328125 v 5.71875 c 0,0.140625 -0.0352,0.25195312 -0.10547,0.328125 -0.0703,0.0703125 -0.17578,0.10546875 -0.3164,0.10546875 z m 9.77929,0.0234375 c -0.60937,0 -1.13671,-0.13476563 -1.58203,-0.41015625 -0.44531,-0.27246094 -0.79394,-0.65625 -1.04297,-1.1484375 -0.25195,-0.4980469 -0.375,-1.0839844 -0.375,-1.7578125 0,-0.5068359 0.0703,-0.9638672 0.21094,-1.3710938 0.14063,-0.4130859 0.33985,-0.7646484 0.59766,-1.0546875 0.26367,-0.2871093 0.58008,-0.5068359 0.94922,-0.65625 0.375,-0.1552734 0.78808,-0.234375 1.24218,-0.234375 0.61524,0 1.14844,0.1376954 1.59375,0.4101563 0.44532,0.2666016 0.78809,0.6503906 1.03125,1.1484375 0.24024,0.4921875 0.36329,1.0751953 0.36329,1.7460937 0,0.5097657 -0.0703,0.9697266 -0.21094,1.3828125 -0.14063,0.4072266 -0.33985,0.7587891 -0.59766,1.05468755 -0.25781,0.29003906 -0.57129,0.51269531 -0.9375,0.66796875 -0.36914,0.14648437 -0.78222,0.22265625 -1.24219,0.22265625 z m 0,-0.75 c 0.44532,0 0.82032,-0.0996094 1.125,-0.3046875 0.31055,-0.20214845 0.55372,-0.49511715 0.72657,-0.87890625 0.16992,-0.3808594 0.25781,-0.84375 0.25781,-1.3828125 0,-0.8203125 -0.18457,-1.453125 -0.55078,-1.8984375 -0.36914,-0.4453125 -0.8877,-0.6679688 -1.5586,-0.6679688 -0.43945,0 -0.81738,0.1025391 -1.13671,0.3046875 -0.31348,0.1962891 -0.55079,0.4863282 -0.71485,0.8671875 -0.16406,0.3837891 -0.24609,0.8496094 -0.24609,1.3945313 0,0.8056641 0.18164,1.4355469 0.55078,1.8867187 0.36621,0.45410161 0.88184,0.67968755 1.54687,0.67968755 z m 9.74708,0.7265625 c -0.11719,0 -0.21094,-0.03515625 -0.28125,-0.10546875 -0.0703,-0.0703125 -0.10547,-0.16992188 -0.10547,-0.3046875 v -5.7539063 c 0,-0.140625 0.0293,-0.2460937 0.0937,-0.3164062 0.0703,-0.070312 0.1582,-0.1054688 0.26953,-0.1054688 0.0996,0 0.17871,0.020508 0.23437,0.058594 0.0527,0.032227 0.11719,0.09375 0.1875,0.1875 l 3.89063,5.15625 h -0.23438 v -4.9921875 c 0,-0.1318359 0.0352,-0.234375 0.10547,-0.3046875 0.0703,-0.070312 0.16992,-0.1054688 0.30469,-0.1054688 0.12305,0 0.2168,0.035156 0.28125,0.1054688 0.0703,0.070312 0.10547,0.1728516 0.10547,0.3046875 v 5.765625 c 0,0.13476562 -0.0322,0.234375 -0.0937,0.3046875 -0.0645,0.0703125 -0.14649,0.10546875 -0.2461,0.10546875 -0.10254,0 -0.18457,-0.02050781 -0.24609,-0.05859375 -0.0645,-0.03808594 -0.12891,-0.09960938 -0.19922,-0.1875 l -3.8789,-5.15625 h 0.21093 v 4.9921875 c 0,0.13476562 -0.0351,0.234375 -0.10547,0.3046875 -0.0644,0.0703125 -0.16113,0.10546875 -0.29296,0.10546855 z m 11.36132,0 c -0.11132,0 -0.19922,-0.0234375 -0.26953,-0.0703125 -0.0644,-0.046875 -0.10254,-0.11132813 -0.11719,-0.19921875 -0.009,-0.0849609 0.0117,-0.17871094 0.0586,-0.28125 l 2.50781,-5.671875 c 0.0527,-0.1318359 0.12305,-0.2255859 0.21094,-0.28125 0.085,-0.052734 0.17871,-0.082031 0.28125,-0.082031 0.1084,0 0.20215,0.029297 0.28125,0.082031 0.085,0.055664 0.1582,0.1494141 0.22265,0.28125 l 2.4961,5.671875 c 0.0527,0.10253906 0.0732,0.19921875 0.0586,0.29296875 -0.009,0.0878906 -0.0439,0.15234375 -0.10547,0.19921875 -0.0557,0.03808594 -0.13769,0.05859375 -0.24609,0.05859375 -0.12598,0 -0.22852,-0.03222656 -0.30469,-0.09375 -0.0703,-0.06152344 -0.13476,-0.15527344 -0.1875,-0.28125 l -0.65625,-1.52343755 0.39844,0.2226563 h -3.92578 l 0.39844,-0.2226563 -0.65625,1.52343755 c -0.0557,0.140625 -0.11719,0.24023437 -0.1875,0.29296875 -0.0645,0.05273437 -0.14942,0.08203125 -0.25782,0.08203125 z m 2.66016,-5.56640625 -1.42969,3.3867187 -0.22265,-0.1875 h 3.3164 l -0.21094,0.1875 -1.4414,-3.3867187 z m 9.62109,5.5078125 c -0.13476,0 -0.24023,-0.03808594 -0.3164,-0.1171875 -0.0703,-0.0761719 -0.10547,-0.1875 -0.10547,-0.328125 v -5.625 c 0,-0.140625 0.0352,-0.2460938 0.10547,-0.3164063 0.0703,-0.076172 0.17578,-0.1171875 0.3164,-0.1171875 0.14063,0 0.2461,0.041016 0.31641,0.1171875 0.0703,0.070312 0.10547,0.1757813 0.10547,0.3164063 v 5.33203125 h 2.91797 c 0.13183,0 0.22851,0.0322266 0.29297,0.09375 0.0615,0.0644531 0.0937,0.15234375 0.0937,0.26953125 0,0.12597656 -0.0322,0.21972656 -0.0937,0.28125 -0.0645,0.06445312 -0.16114,0.09375 -0.29297,0.09375 z m 17.54297,0 c -0.14941,0 -0.26367,-0.03808594 -0.33984,-0.1171875 -0.0791,-0.0761719 -0.11719,-0.19042969 -0.11719,-0.33984375 V -6.0122438 c 0,-0.1464843 0.0381,-0.2607421 0.11719,-0.3398437 0.0762,-0.076172 0.19043,-0.1171875 0.33984,-0.1171875 h 1.76953 c 1.05469,0 1.86621,0.2783203 2.4375,0.8320312 0.57715,0.5566407 0.86719,1.3564454 0.86719,2.4023438 0,0.515625 -0.0762,0.9785156 -0.22266,1.3828125 -0.14941,0.4072266 -0.36328,0.7470703 -0.64453,1.01953125 -0.28125,0.26660156 -0.62695,0.47460937 -1.03125,0.62109375 -0.40722,0.140625 -0.87597,0.2109375 -1.40625,0.2109375 z m 0.38672,-0.7265625 h 1.32422 c 0.41309,0 0.77344,-0.0498047 1.07812,-0.15234375 0.31055,-0.0996094 0.56836,-0.25781255 0.77344,-0.46875005 0.20215,-0.2109375 0.35449,-0.4716796 0.45703,-0.7851562 0.1084,-0.3105469 0.16407,-0.6796875 0.16407,-1.1015625 0,-0.84375 -0.20801,-1.4707031 -0.6211,-1.8867188 -0.41601,-0.4130859 -1.03125,-0.6210937 -1.85156,-0.6210937 h -1.32422 z m 11.50781,0.7265625 c -0.14941,0 -0.26367,-0.03808594 -0.33984,-0.1171875 -0.0791,-0.0761719 -0.11719,-0.19042969 -0.11719,-0.33984375 V -6.0122438 c 0,-0.1464843 0.0381,-0.2607421 0.11719,-0.3398437 0.0762,-0.076172 0.19043,-0.1171875 0.33984,-0.1171875 h 3.375 c 0.11719,0 0.20508,0.032227 0.26953,0.09375 0.0615,0.055664 0.0937,0.1376953 0.0937,0.2460937 0,0.1171875 -0.0322,0.2080079 -0.0937,0.2695313 -0.0645,0.055664 -0.15234,0.082031 -0.26953,0.082031 h -3.01172 v 2.1445313 h 2.8125 c 0.11719,0 0.20508,0.032227 0.26954,0.09375 0.0615,0.064453 0.0937,0.1494141 0.0937,0.2578125 0,0.1171875 -0.0322,0.2050781 -0.0937,0.2578125 -0.0645,0.055664 -0.15235,0.082031 -0.26954,0.082031 h -2.8125 V -0.70365 h 3.01172 c 0.11719,0 0.20508,0.0322266 0.26953,0.09375 0.0615,0.0556641 0.0937,0.140625 0.0937,0.2578125 0,0.1171875 -0.0322,0.20800781 -0.0937,0.26953125 -0.0645,0.05566406 -0.15234,0.08203125 -0.26953,0.08203125 z m 0,0"
         style="fill:#ffffff;fill-opacity:1;fill-rule:nonzero;stroke:none" />
      <path
         id="path867"
         d="m 200.34469,0.0697875 c -0.1875,0 -0.33398,-0.05273438 -0.43359,-0.15234375 -0.10254,-0.10839844 -0.15234,-0.2578125 -0.15234,-0.4453125 V -5.8716188 c 0,-0.1933593 0.0498,-0.3427734 0.15234,-0.4453125 0.1084,-0.099609 0.25781,-0.1523437 0.44531,-0.1523437 h 2.21485 c 0.70898,0 1.25683,0.1816406 1.64062,0.5390625 0.38086,0.3515625 0.57422,0.84375 0.57422,1.4765625 0,0.6416016 -0.19336,1.1425781 -0.57422,1.5 -0.38379,0.3515625 -0.93164,0.5273437 -1.64062,0.5273437 h -1.62891 v 1.89843755 c 0,0.1875 -0.0527,0.33691406 -0.15234,0.4453125 -0.10254,0.09960937 -0.25196,0.15234375 -0.44532,0.15234375 z m 0.59766,-3.421875 h 1.44141 c 0.41308,0 0.72656,-0.09375 0.9375,-0.28125 0.21679,-0.1875 0.32812,-0.4599609 0.32812,-0.8203125 0,-0.3574219 -0.11133,-0.6269531 -0.32812,-0.8085938 -0.21094,-0.1875 -0.52442,-0.28125 -0.9375,-0.28125 h -1.44141 z m 10.42383,3.421875 c -0.1875,0 -0.33399,-0.05273438 -0.4336,-0.15234375 -0.10253,-0.10839844 -0.15234,-0.2578125 -0.15234,-0.4453125 V -5.8716188 c 0,-0.1933593 0.0498,-0.3427734 0.15234,-0.4453125 0.1084,-0.099609 0.25782,-0.1523437 0.44532,-0.1523437 h 2.21484 c 0.70898,0 1.25684,0.1728516 1.64063,0.515625 0.38085,0.3369141 0.57421,0.8085937 0.57421,1.4179687 0,0.3984375 -0.0879,0.7441407 -0.25781,1.03125 -0.17285,0.2900391 -0.42773,0.5126954 -0.76172,0.6679688 -0.32812,0.1494141 -0.72656,0.2226562 -1.19531,0.2226562 l 0.082,-0.140625 h 0.30469 c 0.24902,0 0.46875,0.064453 0.65625,0.1875 0.1875,0.1171875 0.35156,0.3105469 0.49219,0.5742188 l 0.67968,1.27734375 c 0.0762,0.12597656 0.11133,0.25195312 0.10547,0.375 -0.009,0.12597656 -0.0557,0.22851562 -0.14062,0.3046875 -0.0879,0.0703125 -0.21094,0.10546875 -0.375,0.10546875 -0.16406,0 -0.30176,-0.03515625 -0.41016,-0.10546875 -0.10254,-0.0703125 -0.19336,-0.17871094 -0.26953,-0.328125 L 213.79196,-2.063025 c -0.11133,-0.2109375 -0.24024,-0.3515625 -0.38672,-0.421875 -0.14941,-0.070312 -0.33984,-0.1054688 -0.57422,-0.1054688 h -0.86719 v 2.06250005 c 0,0.1875 -0.0527,0.33691406 -0.15234,0.4453125 -0.10254,0.09960937 -0.25195,0.15234375 -0.44531,0.15234375 z m 0.59765,-3.5273438 h 1.42969 c 0.42188,0 0.73828,-0.084961 0.94922,-0.2578125 0.2168,-0.1787109 0.32813,-0.4394531 0.32813,-0.7851562 0,-0.3427734 -0.11133,-0.6005859 -0.32813,-0.7734375 -0.21094,-0.1787109 -0.52734,-0.2695313 -0.94922,-0.2695313 h -1.42969 z m 13.01368,3.5507813 c -0.62696,0 -1.17188,-0.13476563 -1.64063,-0.41015625 -0.46875,-0.28125 -0.83203,-0.66796875 -1.08984,-1.16015625 -0.25782,-0.4980469 -0.38672,-1.0839844 -0.38672,-1.7578125 0,-0.5068359 0.0732,-0.9638672 0.22265,-1.3710938 0.14649,-0.4130859 0.35743,-0.7646484 0.63282,-1.0546875 0.27246,-0.2871093 0.59765,-0.5097656 0.97265,-0.6679687 0.38086,-0.1552734 0.81153,-0.234375 1.28907,-0.234375 0.62402,0 1.16601,0.1376953 1.6289,0.4101562 0.46875,0.2753907 0.83203,0.6621094 1.08985,1.1601563 0.25781,0.4921875 0.38671,1.0751953 0.38671,1.7460937 0,0.5097657 -0.0762,0.9697266 -0.22265,1.3828125 -0.14063,0.4072266 -0.34863,0.7587891 -0.6211,1.05468755 -0.27539,0.29003906 -0.60351,0.51269531 -0.98437,0.66796875 -0.38379,0.15527344 -0.80859,0.234375 -1.27734,0.234375 z m 0,-1.0078125 c 0.39843,0 0.73242,-0.0878906 1.00781,-0.2695313 0.28125,-0.1875 0.49512,-0.4570312 0.64453,-0.8085937 0.14648,-0.3515625 0.22266,-0.7646484 0.22266,-1.2421875 0,-0.7324219 -0.16407,-1.3037109 -0.49219,-1.7109375 -0.32813,-0.4042969 -0.79102,-0.609375 -1.38281,-0.609375 -0.39258,0 -0.72657,0.09082 -1.00782,0.2695312 -0.28125,0.1816407 -0.50097,0.4453125 -0.65625,0.796875 -0.14941,0.3457032 -0.22265,0.7617188 -0.22265,1.2539063 0,0.7265625 0.16406,1.2978516 0.49218,1.7109375 0.33399,0.4072266 0.79981,0.609375 1.39454,0.609375 z m 11.09765,0.984375 c -0.19629,0 -0.3457,-0.05273438 -0.44531,-0.15234375 -0.10254,-0.10839844 -0.15234,-0.2578125 -0.15234,-0.4453125 V -5.4849 h -1.78125 c -0.16407,0 -0.29004,-0.041016 -0.375,-0.1289063 -0.0879,-0.09375 -0.12891,-0.2167968 -0.12891,-0.375 0,-0.1552734 0.041,-0.2724609 0.12891,-0.3515625 0.085,-0.084961 0.21093,-0.1289062 0.375,-0.1289062 h 4.74609 c 0.16406,0 0.28711,0.043945 0.375,0.1289062 0.085,0.079102 0.12891,0.1962891 0.12891,0.3515625 0,0.1582032 -0.0439,0.28125 -0.12891,0.375 -0.0879,0.087891 -0.21094,0.1289063 -0.375,0.1289063 h -1.78125 v 4.95703125 c 0,0.1875 -0.0527,0.33691406 -0.15234,0.4453125 -0.0937,0.09960937 -0.24024,0.15234375 -0.4336,0.15234375 z m 9.2168,-0.0703125 c -0.20508,0 -0.36035,-0.04980469 -0.46875,-0.15234375 -0.11133,-0.10839844 -0.16406,-0.26367188 -0.16406,-0.46875 V -5.8481813 c 0,-0.2021484 0.0527,-0.3544921 0.16406,-0.4570312 0.1084,-0.1083984 0.26367,-0.1640625 0.46875,-0.1640625 h 3.26953 c 0.15527,0 0.27246,0.041016 0.35156,0.1171875 0.085,0.079102 0.12891,0.1933594 0.12891,0.3398437 0,0.1582032 -0.0439,0.2783204 -0.12891,0.3632813 -0.0791,0.079102 -0.19629,0.1171875 -0.35156,0.1171875 h -2.76562 v 1.78125 h 2.5664 c 0.15528,0 0.27246,0.041016 0.35156,0.1171875 0.085,0.079102 0.12891,0.1962891 0.12891,0.3515625 0,0.1494141 -0.0439,0.2666016 -0.12891,0.3515625 -0.0791,0.079102 -0.19628,0.1171875 -0.35156,0.1171875 h -2.5664 v 1.875 h 2.76562 c 0.15527,0 0.27246,0.0410156 0.35156,0.1171875 0.085,0.0791016 0.12891,0.19628906 0.12891,0.3515625 0,0.15820312 -0.0439,0.27539062 -0.12891,0.3515625 -0.0791,0.07910156 -0.19629,0.1171875 -0.35156,0.1171875 z m 12.88769,0.09375 c -0.67382,0 -1.25097,-0.13476563 -1.73437,-0.41015625 -0.47754,-0.27246094 -0.84375,-0.65625 -1.10156,-1.14843755 C 255.0859,-1.9634156 254.957,-2.5552125 254.957,-3.2349 c 0,-0.5068359 0.0732,-0.9638672 0.22265,-1.3710938 0.14649,-0.4130859 0.35743,-0.7646484 0.63282,-1.0546875 0.27246,-0.2871093 0.60937,-0.5097656 1.00781,-0.6679687 0.4043,-0.1552734 0.8584,-0.234375 1.35937,-0.234375 0.33399,0 0.66211,0.043945 0.98438,0.1289062 0.32812,0.087891 0.61523,0.2080079 0.86719,0.3632813 0.12304,0.087891 0.20508,0.1875 0.24609,0.3046875 0.0469,0.1113281 0.0586,0.2197266 0.0352,0.328125 -0.0234,0.1025391 -0.0762,0.1933594 -0.15235,0.2695312 -0.0791,0.070312 -0.17578,0.1113282 -0.29297,0.1171875 -0.11132,0.00879 -0.23144,-0.029297 -0.36328,-0.1171875 -0.1875,-0.1171875 -0.3955,-0.2021484 -0.62109,-0.2578125 -0.21973,-0.061523 -0.44238,-0.09375 -0.66797,-0.09375 -0.43066,0 -0.79687,0.09082 -1.10156,0.2695313 -0.29883,0.1816406 -0.52442,0.4394531 -0.67969,0.7734375 -0.14941,0.3369141 -0.22266,0.75 -0.22266,1.2421875 0,0.4775391 0.0733,0.8876953 0.22266,1.2304687 0.15527,0.3457032 0.38086,0.6064454 0.67969,0.7851563 0.30469,0.1816406 0.6709,0.26953125 1.10156,0.26953125 0.23438,0 0.46289,-0.0263672 0.69141,-0.0820313 0.22558,-0.061523 0.43945,-0.1552734 0.64453,-0.28125 0.13183,-0.076172 0.24902,-0.1113281 0.35156,-0.1054688 0.1084,0.00879 0.19922,0.046875 0.26953,0.1171875 0.0762,0.064453 0.12891,0.1464844 0.15235,0.2460938 0.0234,0.10253846 0.0146,0.20800721 -0.0234,0.31640565 -0.0322,0.11132812 -0.10254,0.20507812 -0.21094,0.28125 -0.24316,0.18164062 -0.53613,0.31640625 -0.87891,0.41015625 -0.33691,0.09375 -0.67968,0.140625 -1.03125,0.140625 z m 11.06836,0 c -0.67382,0 -1.25097,-0.13476563 -1.73437,-0.41015625 -0.47754,-0.27246094 -0.84375,-0.65625 -1.10156,-1.14843755 -0.25782,-0.4980468 -0.38672,-1.0898437 -0.38672,-1.7695312 0,-0.5068359 0.0732,-0.9638672 0.22265,-1.3710938 0.14649,-0.4130859 0.35743,-0.7646484 0.63282,-1.0546875 0.27246,-0.2871093 0.60937,-0.5097656 1.00781,-0.6679687 0.4043,-0.1552734 0.8584,-0.234375 1.35937,-0.234375 0.33399,0 0.66211,0.043945 0.98438,0.1289062 0.32812,0.087891 0.61523,0.2080079 0.86719,0.3632813 0.12304,0.087891 0.20507,0.1875 0.24609,0.3046875 0.0469,0.1113281 0.0586,0.2197266 0.0352,0.328125 -0.0234,0.1025391 -0.0762,0.1933594 -0.15235,0.2695312 -0.0791,0.070312 -0.17578,0.1113282 -0.29297,0.1171875 -0.11132,0.00879 -0.23144,-0.029297 -0.36328,-0.1171875 -0.1875,-0.1171875 -0.39551,-0.2021484 -0.62109,-0.2578125 -0.21973,-0.061523 -0.44238,-0.09375 -0.66797,-0.09375 -0.43066,0 -0.79687,0.09082 -1.10156,0.2695313 -0.29883,0.1816406 -0.52442,0.4394531 -0.67969,0.7734375 -0.14941,0.3369141 -0.22266,0.75 -0.22266,1.2421875 0,0.4775391 0.0732,0.8876953 0.22266,1.2304687 0.15527,0.3457032 0.38086,0.6064454 0.67969,0.7851563 0.30469,0.1816406 0.6709,0.26953125 1.10156,0.26953125 0.23438,0 0.46289,-0.0263672 0.69141,-0.0820313 0.22558,-0.061523 0.43945,-0.1552734 0.64453,-0.28125 0.13183,-0.076172 0.24902,-0.1113281 0.35156,-0.1054688 0.1084,0.00879 0.19922,0.046875 0.26953,0.1171875 0.0762,0.064453 0.12891,0.1464844 0.15235,0.2460938 0.0234,0.10253846 0.0146,0.20800721 -0.0234,0.31640565 -0.0322,0.11132812 -0.10254,0.20507812 -0.21094,0.28125 -0.24316,0.18164062 -0.53613,0.31640625 -0.87891,0.41015625 -0.33691,0.09375 -0.67968,0.140625 -1.03125,0.140625 z m 8.85645,-0.0234375 c -0.1875,0 -0.33399,-0.05273438 -0.43359,-0.15234375 -0.10254,-0.10839844 -0.15235,-0.2578125 -0.15235,-0.4453125 V -5.9419313 c 0,-0.1933593 0.0498,-0.3427734 0.15235,-0.4453125 0.0996,-0.099609 0.24609,-0.1523437 0.43359,-0.1523437 0.19336,0 0.34277,0.052734 0.44531,0.1523437 0.0996,0.1025391 0.15235,0.2519532 0.15235,0.4453125 v 5.41406255 c 0,0.1875 -0.0527,0.33691406 -0.15235,0.4453125 -0.10254,0.09960937 -0.25195,0.15234375 -0.44531,0.15234375 z m 9.94922,0.0234375 c -0.62696,0 -1.17188,-0.13476563 -1.64063,-0.41015625 -0.46875,-0.28125 -0.83203,-0.66796875 -1.08984,-1.16015625 -0.25781,-0.4980469 -0.38672,-1.0839844 -0.38672,-1.7578125 0,-0.5068359 0.0732,-0.9638672 0.22266,-1.3710938 0.14648,-0.4130859 0.35742,-0.7646484 0.63281,-1.0546875 0.27246,-0.2871093 0.59766,-0.5097656 0.97266,-0.6679687 0.38085,-0.1552734 0.81152,-0.234375 1.28906,-0.234375 0.62402,0 1.16601,0.1376953 1.6289,0.4101562 0.46875,0.2753907 0.83204,0.6621094 1.08985,1.1601563 0.25781,0.4921875 0.38672,1.0751953 0.38672,1.7460937 0,0.5097657 -0.0762,0.9697266 -0.22266,1.3828125 -0.14062,0.4072266 -0.34863,0.7587891 -0.62109,1.05468755 -0.27539,0.29003906 -0.60352,0.51269531 -0.98438,0.66796875 -0.38379,0.15527344 -0.80859,0.234375 -1.27734,0.234375 z m 0,-1.0078125 c 0.39844,0 0.73242,-0.0878906 1.00781,-0.2695313 0.28125,-0.1875 0.49512,-0.4570312 0.64453,-0.8085937 0.14649,-0.3515625 0.22266,-0.7646484 0.22266,-1.2421875 0,-0.7324219 -0.16406,-1.3037109 -0.49219,-1.7109375 -0.32812,-0.4042969 -0.79102,-0.609375 -1.38281,-0.609375 -0.39258,0 -0.72656,0.09082 -1.00781,0.2695312 -0.28125,0.1816407 -0.50098,0.4453125 -0.65625,0.796875 -0.14942,0.3457032 -0.22266,0.7617188 -0.22266,1.2539063 0,0.7265625 0.16406,1.2978516 0.49219,1.7109375 0.33398,0.4072266 0.7998,0.609375 1.39453,0.609375 z m 0.45703,-6.1640625 c -0.0703,0.079102 -0.15234,0.1230469 -0.24609,0.1289062 -0.0879,0 -0.16407,-0.023437 -0.23438,-0.070312 -0.0703,-0.052734 -0.11719,-0.1201171 -0.14062,-0.1992187 -0.0234,-0.076172 -0.009,-0.1582031 0.0469,-0.2460938 l 0.71484,-1.0546875 c 0.0703,-0.1083984 0.15235,-0.1699218 0.2461,-0.1875 0.0937,-0.023437 0.1875,-0.017578 0.28125,0.011719 0.0937,0.032227 0.16699,0.082031 0.22265,0.1523437 0.0615,0.070312 0.0937,0.1523438 0.0937,0.2460938 0.006,0.087891 -0.0293,0.1728516 -0.10546,0.2578125 z m 9.43066,7.1484375 c -0.17285,0 -0.31054,-0.046875 -0.41015,-0.140625 -0.0937,-0.09960938 -0.14063,-0.24023438 -0.14063,-0.421875 V -5.95365 c 0,-0.1875 0.0469,-0.3310547 0.14063,-0.4335938 0.0996,-0.099609 0.22558,-0.1523437 0.375,-0.1523437 0.14062,0 0.24609,0.029297 0.3164,0.082031 0.0703,0.046875 0.15528,0.1347657 0.25782,0.2578125 l 3.51562,4.5585938 h -0.24609 v -4.3476563 c 0,-0.1699218 0.0469,-0.3046875 0.14062,-0.3984375 0.0937,-0.099609 0.22852,-0.1523437 0.41016,-0.1523437 0.17871,0 0.31055,0.052734 0.39844,0.1523437 0.0937,0.09375 0.14062,0.2285157 0.14062,0.3984375 v 5.50781255 c 0,0.17285156 -0.0439,0.31054687 -0.12891,0.41015625 -0.0879,0.09375 -0.19921,0.140625 -0.33984,0.140625 -0.14062,0 -0.25488,-0.02929688 -0.33984,-0.08203125 -0.0791,-0.05273438 -0.16992,-0.140625 -0.26953,-0.2578125 L 298.25778,-4.840369 h 0.22266 v 4.3476563 c 0,0.18164062 -0.0469,0.32226562 -0.14063,0.421875 -0.0879,0.09375 -0.21973,0.140625 -0.39844,0.1406252 z m 0,0"
         style="fill:#ffffff;fill-opacity:1;fill-rule:nonzero;stroke:none" />
    </g>
  </g>
</svg>
