<?xml version="1.0" encoding="UTF-8" standalone="no"?>
<!-- Created with Inkscape (http://www.inkscape.org/) -->

<svg
   width="37.804722mm"
   height="45.31501mm"
   viewBox="0 0 37.804722 45.31501"
   version="1.1"
   id="svg1"
   xmlns:inkscape="http://www.inkscape.org/namespaces/inkscape"
   xmlns:sodipodi="http://sodipodi.sourceforge.net/DTD/sodipodi-0.dtd"
   xmlns="http://www.w3.org/2000/svg"
   xmlns:svg="http://www.w3.org/2000/svg">
  <sodipodi:namedview
     id="namedview1"
     pagecolor="#ffffff"
     bordercolor="#000000"
     borderopacity="0.25"
     inkscape:showpageshadow="2"
     inkscape:pageopacity="0.0"
     inkscape:pagecheckerboard="0"
     inkscape:deskcolor="#d1d1d1"
     inkscape:document-units="mm" />
  <defs
     id="defs1">
    <clipPath
       clipPathUnits="userSpaceOnUse"
       id="clipPath520">
      <path
         d="M 0,950 H 666 V 0 H 0 Z"
         transform="translate(-388.20053,-723.01662)"
         id="path520" />
    </clipPath>
    <clipPath
       clipPathUnits="userSpaceOnUse"
       id="clipPath522">
      <path
         d="M 0,950 H 666 V 0 H 0 Z"
         transform="translate(-351.11521,-649.77312)"
         id="path522" />
    </clipPath>
    <clipPath
       clipPathUnits="userSpaceOnUse"
       id="clipPath524">
      <path
         d="M 0,950 H 666 V 0 H 0 Z"
         transform="translate(-355.87718,-693.11302)"
         id="path524" />
    </clipPath>
    <clipPath
       clipPathUnits="userSpaceOnUse"
       id="clipPath526">
      <path
         d="M 0,950 H 666 V 0 H 0 Z"
         transform="translate(-358.18523,-694.56451)"
         id="path526" />
    </clipPath>
    <clipPath
       clipPathUnits="userSpaceOnUse"
       id="clipPath528">
      <path
         d="M 0,950 H 666 V 0 H 0 Z"
         transform="translate(-367.75883,-682.08151)"
         id="path528" />
    </clipPath>
    <clipPath
       clipPathUnits="userSpaceOnUse"
       id="clipPath530">
      <path
         d="M 0,950 H 666 V 0 H 0 Z"
         transform="translate(-365.66761,-682.83312)"
         id="path530" />
    </clipPath>
    <clipPath
       clipPathUnits="userSpaceOnUse"
       id="clipPath532">
      <path
         d="M 0,950 H 666 V 0 H 0 Z"
         transform="translate(-367.97528,-684.28482)"
         id="path532" />
    </clipPath>
    <clipPath
       clipPathUnits="userSpaceOnUse"
       id="clipPath534">
      <path
         d="M 0,950 H 666 V 0 H 0 Z"
         transform="translate(-355.87688,-676.43401)"
         id="path534" />
    </clipPath>
    <clipPath
       clipPathUnits="userSpaceOnUse"
       id="clipPath536">
      <path
         d="M 0,950 H 666 V 0 H 0 Z"
         transform="translate(-353.91908,-676.46932)"
         id="path536" />
    </clipPath>
    <clipPath
       clipPathUnits="userSpaceOnUse"
       id="clipPath538">
      <path
         d="M 0,950 H 666 V 0 H 0 Z"
         transform="translate(-356.22683,-677.92092)"
         id="path538" />
    </clipPath>
    <clipPath
       clipPathUnits="userSpaceOnUse"
       id="clipPath540">
      <path
         d="M 0,950 H 666 V 0 H 0 Z"
         transform="translate(-361.27118,-703.16522)"
         id="path540" />
    </clipPath>
    <clipPath
       clipPathUnits="userSpaceOnUse"
       id="clipPath542">
      <path
         d="M 0,950 H 666 V 0 H 0 Z"
         transform="translate(-364.68863,-710.49112)"
         id="path542" />
    </clipPath>
    <clipPath
       clipPathUnits="userSpaceOnUse"
       id="clipPath544">
      <path
         d="M 0,950 H 666 V 0 H 0 Z"
         transform="translate(-366.99721,-711.94252)"
         id="path544" />
    </clipPath>
    <clipPath
       clipPathUnits="userSpaceOnUse"
       id="clipPath546">
      <path
         d="M 0,950 H 666 V 0 H 0 Z"
         transform="translate(-350.00288,-649.05601)"
         id="path546" />
    </clipPath>
    <clipPath
       clipPathUnits="userSpaceOnUse"
       id="clipPath548">
      <path
         d="M 0,950 H 666 V 0 H 0 Z"
         transform="translate(-352.31101,-650.50812)"
         id="path548" />
    </clipPath>
    <clipPath
       clipPathUnits="userSpaceOnUse"
       id="clipPath550">
      <path
         d="M 0,950 H 666 V 0 H 0 Z"
         transform="translate(-317.90491,-649.77312)"
         id="path550" />
    </clipPath>
    <clipPath
       clipPathUnits="userSpaceOnUse"
       id="clipPath552">
      <path
         d="M 0,950 H 666 V 0 H 0 Z"
         transform="translate(-306.77903,-698.49781)"
         id="path552" />
    </clipPath>
    <clipPath
       clipPathUnits="userSpaceOnUse"
       id="clipPath554">
      <path
         d="M 0,950 H 666 V 0 H 0 Z"
         transform="translate(-304.47098,-699.94921)"
         id="path554" />
    </clipPath>
    <clipPath
       clipPathUnits="userSpaceOnUse"
       id="clipPath556">
      <path
         d="M 0,950 H 666 V 0 H 0 Z"
         transform="translate(-328.67423,-682.08151)"
         id="path556" />
    </clipPath>
    <clipPath
       clipPathUnits="userSpaceOnUse"
       id="clipPath558">
      <path
         d="M 0,950 H 666 V 0 H 0 Z"
         transform="translate(-303.35228,-682.83312)"
         id="path558" />
    </clipPath>
    <clipPath
       clipPathUnits="userSpaceOnUse"
       id="clipPath560">
      <path
         d="M 0,950 H 666 V 0 H 0 Z"
         transform="translate(-301.04371,-684.28482)"
         id="path560" />
    </clipPath>
    <clipPath
       clipPathUnits="userSpaceOnUse"
       id="clipPath562">
      <path
         d="M 0,950 H 666 V 0 H 0 Z"
         transform="translate(-313.14323,-676.43401)"
         id="path562" />
    </clipPath>
    <clipPath
       clipPathUnits="userSpaceOnUse"
       id="clipPath564">
      <path
         d="M 0,950 H 666 V 0 H 0 Z"
         transform="translate(-315.10088,-676.46932)"
         id="path564" />
    </clipPath>
    <clipPath
       clipPathUnits="userSpaceOnUse"
       id="clipPath566">
      <path
         d="M 0,950 H 666 V 0 H 0 Z"
         transform="translate(-312.79223,-677.92092)"
         id="path566" />
    </clipPath>
    <clipPath
       clipPathUnits="userSpaceOnUse"
       id="clipPath568">
      <path
         d="M 0,950 H 666 V 0 H 0 Z"
         transform="translate(-319.01701,-649.05601)"
         id="path568" />
    </clipPath>
    <clipPath
       clipPathUnits="userSpaceOnUse"
       id="clipPath570">
      <path
         d="M 0,950 H 666 V 0 H 0 Z"
         transform="translate(-316.70911,-650.50812)"
         id="path570" />
    </clipPath>
    <clipPath
       clipPathUnits="userSpaceOnUse"
       id="clipPath572">
      <path
         d="M 0,950 H 666 V 0 H 0 Z"
         transform="translate(-335.17778,-696.71502)"
         id="path572" />
    </clipPath>
    <clipPath
       clipPathUnits="userSpaceOnUse"
       id="clipPath574">
      <path
         d="M 0,950 H 666 V 0 H 0 Z"
         transform="translate(-335.09993,-707.48482)"
         id="path574" />
    </clipPath>
    <clipPath
       clipPathUnits="userSpaceOnUse"
       id="clipPath576">
      <path
         d="M 0,950 H 666 V 0 H 0 Z"
         transform="translate(-357.47911,-699.70432)"
         id="path576" />
    </clipPath>
    <clipPath
       clipPathUnits="userSpaceOnUse"
       id="clipPath578">
      <path
         d="M 0,950 H 666 V 0 H 0 Z"
         transform="translate(-323.70128,-709.00542)"
         id="path578" />
    </clipPath>
    <clipPath
       clipPathUnits="userSpaceOnUse"
       id="clipPath580">
      <path
         d="M 0,950 H 666 V 0 H 0 Z"
         transform="translate(-349.82558,-709.98462)"
         id="path580" />
    </clipPath>
    <clipPath
       clipPathUnits="userSpaceOnUse"
       id="clipPath582">
      <path
         d="M 0,950 H 666 V 0 H 0 Z"
         transform="translate(-312.44243,-682.57122)"
         id="path582" />
    </clipPath>
    <clipPath
       clipPathUnits="userSpaceOnUse"
       id="clipPath584">
      <path
         d="M 0,950 H 666 V 0 H 0 Z"
         transform="translate(-318.31658,-692.85142)"
         id="path584" />
    </clipPath>
    <clipPath
       clipPathUnits="userSpaceOnUse"
       id="clipPath586">
      <path
         d="M 0,950 H 666 V 0 H 0 Z"
         transform="translate(-355.38773,-718.81292)"
         id="path586" />
    </clipPath>
    <clipPath
       clipPathUnits="userSpaceOnUse"
       id="clipPath588">
      <path
         d="M 0,950 H 666 V 0 H 0 Z"
         transform="translate(-357.69563,-720.26432)"
         id="path588" />
    </clipPath>
    <clipPath
       clipPathUnits="userSpaceOnUse"
       id="clipPath590">
      <path
         d="M 0,950 H 666 V 0 H 0 Z"
         transform="translate(-335.03813,-702.58922)"
         id="path590" />
    </clipPath>
    <clipPath
       clipPathUnits="userSpaceOnUse"
       id="clipPath592">
      <path
         d="M 0,950 H 666 V 0 H 0 Z"
         transform="translate(-335.03813,-689.37241)"
         id="path592" />
    </clipPath>
    <clipPath
       clipPathUnits="userSpaceOnUse"
       id="clipPath594">
      <path
         d="M 0,950 H 666 V 0 H 0 Z"
         transform="translate(-312.30323,-713.91772)"
         id="path594" />
    </clipPath>
    <clipPath
       clipPathUnits="userSpaceOnUse"
       id="clipPath596">
      <path
         d="M 0,950 H 666 V 0 H 0 Z"
         transform="translate(-309.99541,-715.36932)"
         id="path596" />
    </clipPath>
    <clipPath
       clipPathUnits="userSpaceOnUse"
       id="clipPath598">
      <path
         d="M 0,950 H 666 V 0 H 0 Z"
         transform="translate(-330.41551,-697.76352)"
         id="path598" />
    </clipPath>
    <clipPath
       clipPathUnits="userSpaceOnUse"
       id="clipPath600">
      <path
         d="M 0,950 H 666 V 0 H 0 Z"
         transform="translate(-328.10783,-699.21532)"
         id="path600" />
    </clipPath>
    <clipPath
       clipPathUnits="userSpaceOnUse"
       id="clipPath602">
      <path
         d="M 0,950 H 666 V 0 H 0 Z"
         transform="translate(-335.17778,-647.81572)"
         id="path602" />
    </clipPath>
    <clipPath
       clipPathUnits="userSpaceOnUse"
       id="clipPath604">
      <path
         d="M 0,950 H 666 V 0 H 0 Z"
         transform="translate(-332.86958,-649.05601)"
         id="path604" />
    </clipPath>
    <clipPath
       clipPathUnits="userSpaceOnUse"
       id="clipPath606">
      <path
         d="M 0,950 H 666 V 0 H 0 Z"
         transform="translate(-335.17778,-650.50812)"
         id="path606" />
    </clipPath>
    <clipPath
       clipPathUnits="userSpaceOnUse"
       id="clipPath608">
      <path
         d="M 0,950 H 666 V 0 H 0 Z"
         transform="translate(-332.86958,-730.31672)"
         id="path608" />
    </clipPath>
    <clipPath
       clipPathUnits="userSpaceOnUse"
       id="clipPath610">
      <path
         d="M 0,950 H 666 V 0 H 0 Z"
         transform="translate(-335.17778,-731.76862)"
         id="path610" />
    </clipPath>
    <clipPath
       clipPathUnits="userSpaceOnUse"
       id="clipPath612">
      <path
         d="M 0,950 H 666 V 0 H 0 Z"
         transform="translate(-345.60713,-719.85882)"
         id="path612" />
    </clipPath>
    <clipPath
       clipPathUnits="userSpaceOnUse"
       id="clipPath614">
      <path
         d="M 0,950 H 666 V 0 H 0 Z"
         transform="translate(-345.60713,-719.85882)"
         id="path614" />
    </clipPath>
    <clipPath
       clipPathUnits="userSpaceOnUse"
       id="clipPath616">
      <path
         d="M 0,950 H 666 V 0 H 0 Z"
         transform="translate(-345.31711,-715.95792)"
         id="path616" />
    </clipPath>
  </defs>
  <g
     inkscape:label="Capa 1"
     inkscape:groupmode="layer"
     id="layer1"
     transform="translate(-81.491667,-102.12916)">
    <path
       id="path519"
       d="m 0,0 v -36.105 c 0,-40.172 -38.43,-58.771 -50.208,-63.513 l -3.483,-1.399 -3.349,1.672 c -11.762,5.878 -50.123,27.8 -50.123,63.235 v 36.099 c 0,5.782 3.687,10.894 9.179,12.716 l 44.4,14.73 44.405,-14.72 C -3.687,10.899 0,5.792 0,0.005 Z"
       style="fill:#022533;fill-opacity:1;fill-rule:nonzero;stroke:none"
       transform="matrix(0.35277776,0,0,-0.35277776,119.29639,111.80762)"
       clip-path="url(#clipPath520)" />
    <path
       id="path521"
       d="M 0,0 C -0.196,0 -0.394,0.067 -0.555,0.204 L -4.35,3.427 h -6.419 c -0.474,0 -0.857,0.383 -0.857,0.857 V 38.55 c 0,0.242 0.101,0.472 0.281,0.634 l 5.384,4.895 c 0.158,0.143 0.363,0.223 0.576,0.223 H 6.914 c 0.474,0 0.857,-0.384 0.857,-0.857 0,-0.473 -0.383,-0.856 -0.857,-0.856 H -5.054 L -9.913,38.171 V 5.14 h 5.878 c 0.202,0 0.4,-0.072 0.554,-0.203 L 0.555,1.509 C 0.915,1.203 0.959,0.662 0.653,0.302 0.483,0.102 0.242,0 0,0"
       style="fill:#ffffff;fill-opacity:1;fill-rule:nonzero;stroke:none"
       transform="matrix(0.35277776,0,0,-0.35277776,106.21351,137.6463)"
       clip-path="url(#clipPath522)" />
    <path
       id="path523"
       d="m 0,0 c 0,-1.275 1.033,-2.308 2.308,-2.308 1.275,0 2.308,1.033 2.308,2.308 0,1.275 -1.033,2.308 -2.308,2.308 C 1.033,2.308 0,1.275 0,0"
       style="fill:#cd3c47;fill-opacity:1;fill-rule:nonzero;stroke:none"
       transform="matrix(0.35277776,0,0,-0.35277776,107.89343,122.35695)"
       clip-path="url(#clipPath524)" />
    <path
       id="path525"
       d="m 0,0 c -0.8,0 -1.452,-0.651 -1.452,-1.451 0,-0.801 0.652,-1.452 1.452,-1.452 0.8,0 1.452,0.651 1.452,1.452 C 1.452,-0.651 0.8,0 0,0 m 0,-4.616 c -1.745,0 -3.165,1.42 -3.165,3.165 0,1.745 1.42,3.164 3.165,3.164 1.745,0 3.165,-1.419 3.165,-3.164 0,-1.745 -1.42,-3.165 -3.165,-3.165"
       style="fill:#ffffff;fill-opacity:1;fill-rule:nonzero;stroke:none"
       transform="matrix(0.35277776,0,0,-0.35277776,108.70766,121.84489)"
       clip-path="url(#clipPath526)" />
    <path
       id="path527"
       d="m 0,0 h -27.413 c -0.474,0 -0.856,0.383 -0.856,0.857 0,0.473 0.382,0.856 0.856,0.856 H 0 C 0.474,1.713 0.857,1.33 0.857,0.857 0.857,0.383 0.474,0 0,0"
       style="fill:#ffffff;fill-opacity:1;fill-rule:nonzero;stroke:none"
       transform="matrix(0.35277776,0,0,-0.35277776,112.08501,126.24862)"
       clip-path="url(#clipPath528)" />
    <path
       id="path529"
       d="m 0,0 c 0,-1.275 1.033,-2.308 2.308,-2.308 1.275,0 2.308,1.033 2.308,2.308 0,1.275 -1.033,2.308 -2.308,2.308 C 1.033,2.308 0,1.275 0,0"
       style="fill:#cd3c47;fill-opacity:1;fill-rule:nonzero;stroke:none"
       transform="matrix(0.35277776,0,0,-0.35277776,111.34728,125.98347)"
       clip-path="url(#clipPath530)" />
    <path
       id="path531"
       d="m 0,0 c -0.8,0 -1.451,-0.651 -1.451,-1.452 0,-0.8 0.651,-1.452 1.451,-1.452 0.8,0 1.452,0.652 1.452,1.452 C 1.452,-0.651 0.8,0 0,0 m 0,-4.617 c -1.745,0 -3.164,1.42 -3.164,3.165 0,1.745 1.419,3.165 3.164,3.165 1.745,0 3.165,-1.42 3.165,-3.165 0,-1.745 -1.42,-3.165 -3.165,-3.165"
       style="fill:#ffffff;fill-opacity:1;fill-rule:nonzero;stroke:none"
       transform="matrix(0.35277776,0,0,-0.35277776,112.16137,125.47134)"
       clip-path="url(#clipPath532)" />
    <path
       id="path533"
       d="m 0,0 c -0.226,0 -0.452,0.089 -0.621,0.266 l -5.375,5.648 c -0.326,0.342 -0.312,0.885 0.03,1.21 0.343,0.326 0.885,0.314 1.212,-0.029 L 0.621,1.447 C 0.947,1.105 0.933,0.562 0.591,0.236 0.425,0.078 0.212,0 0,0"
       style="fill:#ffffff;fill-opacity:1;fill-rule:nonzero;stroke:none"
       transform="matrix(0.35277776,0,0,-0.35277776,107.89333,128.24093)"
       clip-path="url(#clipPath534)" />
    <path
       id="path535"
       d="m 0,0 c 0,-1.275 1.033,-2.308 2.308,-2.308 1.275,0 2.308,1.033 2.308,2.308 0,1.275 -1.033,2.308 -2.308,2.308 C 1.033,2.308 0,1.275 0,0"
       style="fill:#cd3c47;fill-opacity:1;fill-rule:nonzero;stroke:none"
       transform="matrix(0.35277776,0,0,-0.35277776,107.20266,128.22848)"
       clip-path="url(#clipPath536)" />
    <path
       id="path537"
       d="m 0,0 c -0.8,0 -1.451,-0.651 -1.451,-1.452 0,-0.8 0.651,-1.451 1.451,-1.451 0.8,0 1.452,0.651 1.452,1.451 C 1.452,-0.651 0.8,0 0,0 m 0,-4.616 c -1.745,0 -3.164,1.419 -3.164,3.164 0,1.745 1.419,3.165 3.164,3.165 1.745,0 3.165,-1.42 3.165,-3.165 0,-1.745 -1.42,-3.164 -3.165,-3.164"
       style="fill:#ffffff;fill-opacity:1;fill-rule:nonzero;stroke:none"
       transform="matrix(0.35277776,0,0,-0.35277776,108.01678,127.71639)"
       clip-path="url(#clipPath538)" />
    <path
       id="path539"
       d="m 0,0 c -0.212,0 -0.425,0.078 -0.591,0.236 -0.342,0.326 -0.356,0.869 -0.03,1.211 L 4.754,7.095 C 5.082,7.438 5.621,7.45 5.966,7.125 6.308,6.799 6.322,6.257 5.996,5.914 L 0.621,0.266 C 0.452,0.089 0.226,0 0,0"
       style="fill:#cd3c47;fill-opacity:1;fill-rule:nonzero;stroke:none"
       transform="matrix(0.35277776,0,0,-0.35277776,109.79631,118.81076)"
       clip-path="url(#clipPath540)" />
    <path
       id="path541"
       d="M 0,0 C 0,1.275 1.033,2.308 2.308,2.308 3.583,2.308 4.616,1.275 4.616,0 4.616,-1.275 3.583,-2.308 2.308,-2.308 1.033,-2.308 0,-1.275 0,0"
       style="fill:#ffffff;fill-opacity:1;fill-rule:nonzero;stroke:none"
       transform="matrix(0.35277776,0,0,-0.35277776,111.00191,116.22634)"
       clip-path="url(#clipPath542)" />
    <path
       id="path543"
       d="m 0,0 c -0.8,0 -1.452,-0.651 -1.452,-1.451 0,-0.801 0.652,-1.452 1.452,-1.452 0.8,0 1.451,0.651 1.451,1.452 C 1.451,-0.651 0.8,0 0,0 m 0,-4.616 c -1.745,0 -3.165,1.42 -3.165,3.165 0,1.745 1.42,3.164 3.165,3.164 1.745,0 3.164,-1.419 3.164,-3.164 0,-1.745 -1.419,-3.165 -3.164,-3.165"
       style="fill:#cd3c47;fill-opacity:1;fill-rule:nonzero;stroke:none"
       transform="matrix(0.35277776,0,0,-0.35277776,111.81633,115.71432)"
       clip-path="url(#clipPath544)" />
    <path
       id="path545"
       d="m 0,0 c 0,-1.275 1.033,-2.308 2.308,-2.308 1.275,0 2.308,1.033 2.308,2.308 0,1.275 -1.033,2.308 -2.308,2.308 C 1.033,2.308 0,1.275 0,0"
       style="fill:#cd3c47;fill-opacity:1;fill-rule:nonzero;stroke:none"
       transform="matrix(0.35277776,0,0,-0.35277776,105.82111,137.89928)"
       clip-path="url(#clipPath546)" />
    <path
       id="path547"
       d="m 0,0 c -0.8,0 -1.452,-0.652 -1.452,-1.452 0,-0.8 0.652,-1.452 1.452,-1.452 0.8,0 1.452,0.652 1.452,1.452 C 1.452,-0.652 0.8,0 0,0 m 0,-4.617 c -1.745,0 -3.165,1.42 -3.165,3.165 0,1.745 1.42,3.165 3.165,3.165 1.745,0 3.165,-1.42 3.165,-3.165 0,-1.745 -1.42,-3.165 -3.165,-3.165"
       style="fill:#ffffff;fill-opacity:1;fill-rule:nonzero;stroke:none"
       transform="matrix(0.35277776,0,0,-0.35277776,106.63536,137.38701)"
       clip-path="url(#clipPath548)" />
    <path
       id="path549"
       d="m 0,0 c -0.242,0 -0.483,0.102 -0.653,0.302 -0.306,0.36 -0.262,0.901 0.098,1.207 L 3.481,4.937 C 3.635,5.068 3.833,5.14 4.035,5.14 H 9.913 V 38.171 L 5.054,42.589 H -6.914 c -0.18,0 -0.356,0.056 -0.501,0.161 l -6.166,4.44 c -0.384,0.277 -0.472,0.812 -0.195,1.196 0.276,0.382 0.811,0.472 1.195,0.194 l 5.943,-4.278 H 5.385 c 0.213,0 0.418,-0.08 0.576,-0.223 l 5.384,-4.895 c 0.18,-0.162 0.281,-0.392 0.281,-0.634 V 4.284 c 0,-0.474 -0.383,-0.857 -0.857,-0.857 L 4.35,3.427 0.555,0.204 C 0.394,0.067 0.196,0 0,0"
       style="fill:#cd3c47;fill-opacity:1;fill-rule:nonzero;stroke:none"
       transform="matrix(0.35277776,0,0,-0.35277776,94.497656,137.6463)"
       clip-path="url(#clipPath550)" />
    <path
       id="path551"
       d="m 0,0 c 0,-1.275 -1.033,-2.308 -2.308,-2.308 -1.275,0 -2.308,1.033 -2.308,2.308 0,1.275 1.033,2.308 2.308,2.308 C -1.033,2.308 0,1.275 0,0"
       style="fill:#ffffff;fill-opacity:1;fill-rule:nonzero;stroke:none"
       transform="matrix(0.35277776,0,0,-0.35277776,90.572695,120.45731)"
       clip-path="url(#clipPath552)" />
    <path
       id="path553"
       d="m 0,0 c -0.8,0 -1.452,-0.651 -1.452,-1.451 0,-0.801 0.652,-1.452 1.452,-1.452 0.8,0 1.452,0.651 1.452,1.452 C 1.452,-0.651 0.8,0 0,0 m 0,-4.616 c -1.745,0 -3.165,1.42 -3.165,3.165 0,1.745 1.42,3.164 3.165,3.164 1.745,0 3.165,-1.419 3.165,-3.164 0,-1.745 -1.42,-3.165 -3.165,-3.165"
       style="fill:#cd3c47;fill-opacity:1;fill-rule:nonzero;stroke:none"
       transform="matrix(0.35277776,0,0,-0.35277776,89.758466,119.94529)"
       clip-path="url(#clipPath554)" />
    <path
       id="path555"
       d="m 0,0 h -27.413 c -0.473,0 -0.856,0.383 -0.856,0.857 0,0.473 0.383,0.856 0.856,0.856 H 0 C 0.474,1.713 0.857,1.33 0.857,0.857 0.857,0.383 0.474,0 0,0"
       style="fill:#cd3c47;fill-opacity:1;fill-rule:nonzero;stroke:none"
       transform="matrix(0.35277776,0,0,-0.35277776,98.296835,126.24862)"
       clip-path="url(#clipPath556)" />
    <path
       id="path557"
       d="m 0,0 c 0,-1.275 -1.033,-2.308 -2.308,-2.308 -1.275,0 -2.308,1.033 -2.308,2.308 0,1.275 1.033,2.308 2.308,2.308 C -1.033,2.308 0,1.275 0,0"
       style="fill:#ffffff;fill-opacity:1;fill-rule:nonzero;stroke:none"
       transform="matrix(0.35277776,0,0,-0.35277776,89.363814,125.98347)"
       clip-path="url(#clipPath558)" />
    <path
       id="path559"
       d="m 0,0 c -0.8,0 -1.451,-0.651 -1.451,-1.452 0,-0.8 0.651,-1.452 1.451,-1.452 0.8,0 1.452,0.652 1.452,1.452 C 1.452,-0.651 0.8,0 0,0 m 0,-4.617 c -1.745,0 -3.164,1.42 -3.164,3.165 0,1.745 1.419,3.165 3.164,3.165 1.745,0 3.165,-1.42 3.165,-3.165 0,-1.745 -1.42,-3.165 -3.165,-3.165"
       style="fill:#cd3c47;fill-opacity:1;fill-rule:nonzero;stroke:none"
       transform="matrix(0.35277776,0,0,-0.35277776,88.5494,125.47134)"
       clip-path="url(#clipPath560)" />
    <path
       id="path561"
       d="m 0,0 c -0.212,0 -0.425,0.078 -0.591,0.236 -0.342,0.326 -0.356,0.869 -0.03,1.211 L 4.754,7.095 C 5.082,7.438 5.623,7.45 5.966,7.124 6.308,6.799 6.322,6.256 5.996,5.914 L 0.621,0.266 C 0.452,0.089 0.226,0 0,0"
       style="fill:#cd3c47;fill-opacity:1;fill-rule:nonzero;stroke:none"
       transform="matrix(0.35277776,0,0,-0.35277776,92.817843,128.24093)"
       clip-path="url(#clipPath562)" />
    <path
       id="path563"
       d="m 0,0 c 0,-1.275 -1.033,-2.308 -2.308,-2.308 -1.275,0 -2.308,1.033 -2.308,2.308 0,1.275 1.033,2.308 2.308,2.308 C -1.033,2.308 0,1.275 0,0"
       style="fill:#ffffff;fill-opacity:1;fill-rule:nonzero;stroke:none"
       transform="matrix(0.35277776,0,0,-0.35277776,93.508459,128.22848)"
       clip-path="url(#clipPath564)" />
    <path
       id="path565"
       d="m 0,0 c -0.8,0 -1.451,-0.651 -1.451,-1.452 0,-0.8 0.651,-1.451 1.451,-1.451 0.8,0 1.452,0.651 1.452,1.451 C 1.452,-0.651 0.8,0 0,0 m 0,-4.616 c -1.745,0 -3.164,1.419 -3.164,3.164 0,1.745 1.419,3.165 3.164,3.165 1.745,0 3.165,-1.42 3.165,-3.165 0,-1.745 -1.42,-3.164 -3.165,-3.164"
       style="fill:#cd3c47;fill-opacity:1;fill-rule:nonzero;stroke:none"
       transform="matrix(0.35277776,0,0,-0.35277776,92.694018,127.71639)"
       clip-path="url(#clipPath566)" />
    <path
       id="path567"
       d="m 0,0 c 0,-1.275 -1.033,-2.308 -2.308,-2.308 -1.275,0 -2.308,1.033 -2.308,2.308 0,1.275 1.033,2.308 2.308,2.308 C -1.033,2.308 0,1.275 0,0"
       style="fill:#ffffff;fill-opacity:1;fill-rule:nonzero;stroke:none"
       transform="matrix(0.35277776,0,0,-0.35277776,94.889981,137.89928)"
       clip-path="url(#clipPath568)" />
    <path
       id="path569"
       d="m 0,0 c -0.8,0 -1.452,-0.652 -1.452,-1.452 0,-0.8 0.652,-1.452 1.452,-1.452 0.8,0 1.452,0.652 1.452,1.452 C 1.452,-0.652 0.8,0 0,0 m 0,-4.617 c -1.745,0 -3.165,1.42 -3.165,3.165 0,1.745 1.42,3.165 3.165,3.165 1.745,0 3.165,-1.42 3.165,-3.165 0,-1.745 -1.42,-3.165 -3.165,-3.165"
       style="fill:#cd3c47;fill-opacity:1;fill-rule:nonzero;stroke:none"
       transform="matrix(0.35277776,0,0,-0.35277776,94.075805,137.38701)"
       clip-path="url(#clipPath570)" />
    <path
       id="path571"
       d="m 0,0 c -0.213,0 -0.427,0.079 -0.593,0.238 -0.341,0.327 -0.353,0.87 -0.026,1.211 L 5.528,7.865 C 5.69,8.034 5.913,8.129 6.146,8.129 h 31.82 c 0.473,0 0.856,-0.383 0.856,-0.856 0,-0.473 -0.383,-0.857 -0.856,-0.857 L 6.512,6.416 0.619,0.264 C 0.45,0.089 0.225,0 0,0"
       style="fill:#cd3c47;fill-opacity:1;fill-rule:nonzero;stroke:none"
       transform="matrix(0.35277776,0,0,-0.35277776,100.59114,121.08624)"
       clip-path="url(#clipPath572)" />
    <path
       id="path573"
       d="m 0,0 c -0.213,0 -0.427,0.079 -0.593,0.238 -0.341,0.327 -0.353,0.87 -0.026,1.211 l 6.148,6.416 c 0.162,0.169 0.385,0.264 0.618,0.264 h 10.57 l 3.558,2.576 c 0.383,0.277 0.917,0.191 1.196,-0.192 0.278,-0.383 0.191,-0.919 -0.192,-1.196 L 17.497,6.579 C 17.351,6.473 17.175,6.416 16.995,6.416 H 6.513 L 0.619,0.264 C 0.45,0.089 0.225,0 0,0"
       style="fill:#cd3c47;fill-opacity:1;fill-rule:nonzero;stroke:none"
       transform="matrix(0.35277776,0,0,-0.35277776,100.56368,117.2869)"
       clip-path="url(#clipPath574)" />
    <path
       id="path575"
       d="M 0,0 C -0.215,0 -0.43,0.081 -0.596,0.242 L -4.147,3.69 c -0.341,0.329 -0.348,0.871 -0.018,1.211 0.328,0.339 0.871,0.347 1.21,0.018 L 0.596,1.471 C 0.937,1.141 0.944,0.599 0.614,0.26 0.447,0.087 0.223,0 0,0"
       style="fill:#cd3c47;fill-opacity:1;fill-rule:nonzero;stroke:none"
       transform="matrix(0.35277776,0,0,-0.35277776,108.45855,120.03169)"
       clip-path="url(#clipPath576)" />
    <path
       id="path577"
       d="m 0,0 c -0.215,0 -0.43,0.081 -0.597,0.242 l -3.55,3.448 c -0.34,0.329 -0.347,0.872 -0.017,1.211 0.329,0.339 0.871,0.347 1.211,0.018 L 0.597,1.471 C 0.937,1.141 0.944,0.599 0.614,0.26 0.447,0.087 0.223,0 0,0"
       style="fill:#cd3c47;fill-opacity:1;fill-rule:nonzero;stroke:none"
       transform="matrix(0.35277776,0,0,-0.35277776,96.542489,116.75046)"
       clip-path="url(#clipPath578)" />
    <path
       id="path579"
       d="m 0,0 c -0.215,0 -0.43,0.081 -0.597,0.242 l -3.55,3.448 c -0.34,0.329 -0.347,0.872 -0.017,1.211 0.329,0.34 0.871,0.346 1.211,0.018 L 0.597,1.471 C 0.937,1.141 0.944,0.599 0.614,0.26 0.447,0.087 0.223,0 0,0"
       style="fill:#cd3c47;fill-opacity:1;fill-rule:nonzero;stroke:none"
       transform="matrix(0.35277776,0,0,-0.35277776,105.75856,116.40502)"
       clip-path="url(#clipPath580)" />
    <path
       id="path581"
       d="m 0,0 c -0.215,0 -0.43,0.081 -0.597,0.242 l -3.55,3.448 c -0.34,0.329 -0.347,0.872 -0.017,1.211 0.329,0.34 0.87,0.346 1.211,0.018 L 0.597,1.471 C 0.937,1.141 0.944,0.599 0.614,0.26 0.447,0.087 0.223,0 0,0"
       style="fill:#cd3c47;fill-opacity:1;fill-rule:nonzero;stroke:none"
       transform="matrix(0.35277776,0,0,-0.35277776,92.570617,126.07586)"
       clip-path="url(#clipPath582)" />
    <path
       id="path583"
       d="m 0,0 c -0.215,0 -0.43,0.081 -0.596,0.242 l -3.55,3.447 c -0.341,0.33 -0.348,0.872 -0.018,1.211 0.329,0.34 0.872,0.347 1.21,0.018 L 0.596,1.471 C 0.937,1.141 0.944,0.599 0.614,0.26 0.447,0.087 0.223,0 0,0"
       style="fill:#cd3c47;fill-opacity:1;fill-rule:nonzero;stroke:none"
       transform="matrix(0.35277776,0,0,-0.35277776,94.642886,122.44924)"
       clip-path="url(#clipPath584)" />
    <path
       id="path585"
       d="M 0,0 C 0,1.275 1.033,2.308 2.308,2.308 3.583,2.308 4.616,1.275 4.616,0 4.616,-1.275 3.583,-2.308 2.308,-2.308 1.033,-2.308 0,-1.275 0,0"
       style="fill:#ffffff;fill-opacity:1;fill-rule:nonzero;stroke:none"
       transform="matrix(0.35277776,0,0,-0.35277776,107.72076,113.2906)"
       clip-path="url(#clipPath586)" />
    <path
       id="path587"
       d="m 0,0 c -0.8,0 -1.452,-0.651 -1.452,-1.451 0,-0.801 0.652,-1.452 1.452,-1.452 0.8,0 1.452,0.651 1.452,1.452 C 1.452,-0.651 0.8,0 0,0 m 0,-4.616 c -1.745,0 -3.165,1.42 -3.165,3.165 0,1.745 1.42,3.164 3.165,3.164 1.745,0 3.165,-1.419 3.165,-3.164 0,-1.745 -1.42,-3.165 -3.165,-3.165"
       style="fill:#cd3c47;fill-opacity:1;fill-rule:nonzero;stroke:none"
       transform="matrix(0.35277776,0,0,-0.35277776,108.53494,112.77858)"
       clip-path="url(#clipPath588)" />
    <path
       id="path589"
       d="m 0,0 c -0.225,0 -0.45,0.089 -0.619,0.264 l -5.893,6.152 h -13.909 c -0.18,0 -0.356,0.057 -0.502,0.163 l -3.783,2.739 c -0.383,0.277 -0.469,0.812 -0.191,1.196 0.278,0.383 0.813,0.469 1.196,0.191 l 3.558,-2.576 h 13.997 c 0.233,0 0.456,-0.095 0.618,-0.264 L 0.619,1.449 C 0.946,1.108 0.934,0.565 0.593,0.238 0.427,0.079 0.213,0 0,0"
       style="fill:#cd3c47;fill-opacity:1;fill-rule:nonzero;stroke:none"
       transform="matrix(0.35277776,0,0,-0.35277776,100.54188,119.01396)"
       clip-path="url(#clipPath590)" />
    <path
       id="path591"
       d="M 0,0 C -0.225,0 -0.45,0.089 -0.619,0.264 L -6.765,6.68 c -0.327,0.341 -0.316,0.884 0.026,1.211 0.341,0.328 0.883,0.317 1.211,-0.026 L 0.619,1.449 C 0.946,1.108 0.934,0.565 0.593,0.238 0.427,0.079 0.213,0 0,0"
       style="fill:#cd3c47;fill-opacity:1;fill-rule:nonzero;stroke:none"
       transform="matrix(0.35277776,0,0,-0.35277776,100.54188,123.67655)"
       clip-path="url(#clipPath592)" />
    <path
       id="path593"
       d="m 0,0 c 0,1.275 -1.033,2.308 -2.308,2.308 -1.275,0 -2.308,-1.033 -2.308,-2.308 0,-1.275 1.033,-2.308 2.308,-2.308 C -1.033,-2.308 0,-1.275 0,0"
       style="fill:#ffffff;fill-opacity:1;fill-rule:nonzero;stroke:none"
       transform="matrix(0.35277776,0,0,-0.35277776,92.52151,115.01752)"
       clip-path="url(#clipPath594)" />
    <path
       id="path595"
       d="m 0,0 c -0.8,0 -1.452,-0.651 -1.452,-1.452 0,-0.8 0.652,-1.451 1.452,-1.451 0.8,0 1.452,0.651 1.452,1.451 C 1.452,-0.651 0.8,0 0,0 m 0,-4.616 c -1.745,0 -3.165,1.419 -3.165,3.164 0,1.745 1.42,3.165 3.165,3.165 1.745,0 3.165,-1.42 3.165,-3.165 0,-1.745 -1.42,-3.164 -3.165,-3.164"
       style="fill:#cd3c47;fill-opacity:1;fill-rule:nonzero;stroke:none"
       transform="matrix(0.35277776,0,0,-0.35277776,91.707361,114.50542)"
       clip-path="url(#clipPath596)" />
    <path
       id="path597"
       d="m 0,0 c 0,1.275 -1.033,2.308 -2.308,2.308 -1.275,0 -2.308,-1.033 -2.308,-2.308 0,-1.275 1.033,-2.308 2.308,-2.308 C -1.033,-2.308 0,-1.275 0,0"
       style="fill:#ffffff;fill-opacity:1;fill-rule:nonzero;stroke:none"
       transform="matrix(0.35277776,0,0,-0.35277776,98.911118,120.71636)"
       clip-path="url(#clipPath598)" />
    <path
       id="path599"
       d="m 0,0 c -0.8,0 -1.452,-0.651 -1.452,-1.452 0,-0.8 0.652,-1.452 1.452,-1.452 0.8,0 1.451,0.652 1.451,1.452 C 1.451,-0.651 0.8,0 0,0 m 0,-4.617 c -1.745,0 -3.165,1.42 -3.165,3.165 0,1.745 1.42,3.165 3.165,3.165 1.745,0 3.164,-1.42 3.164,-3.165 0,-1.745 -1.419,-3.165 -3.164,-3.165"
       style="fill:#cd3c47;fill-opacity:1;fill-rule:nonzero;stroke:none"
       transform="matrix(0.35277776,0,0,-0.35277776,98.097022,120.2042)"
       clip-path="url(#clipPath600)" />
    <path
       id="path601"
       d="m 0,0 c -0.474,0 -0.857,0.383 -0.857,0.857 v 81.749 c 0,0.473 0.383,0.857 0.857,0.857 0.474,0 0.857,-0.384 0.857,-0.857 V 0.857 C 0.857,0.383 0.474,0 0,0"
       style="fill:#ffffff;fill-opacity:1;fill-rule:nonzero;stroke:none"
       transform="matrix(0.35277776,0,0,-0.35277776,100.59114,138.33683)"
       clip-path="url(#clipPath602)" />
    <path
       id="path603"
       d="m 0,0 c 0,-1.275 1.033,-2.308 2.308,-2.308 1.275,0 2.308,1.033 2.308,2.308 0,1.275 -1.033,2.308 -2.308,2.308 C 1.033,2.308 0,1.275 0,0"
       style="fill:#cd3c47;fill-opacity:1;fill-rule:nonzero;stroke:none"
       transform="matrix(0.35277776,0,0,-0.35277776,99.776861,137.89928)"
       clip-path="url(#clipPath604)" />
    <path
       id="path605"
       d="m 0,0 c -0.8,0 -1.452,-0.652 -1.452,-1.452 0,-0.8 0.652,-1.452 1.452,-1.452 0.8,0 1.452,0.652 1.452,1.452 C 1.452,-0.652 0.8,0 0,0 m 0,-4.617 c -1.745,0 -3.165,1.42 -3.165,3.165 0,1.745 1.42,3.165 3.165,3.165 1.745,0 3.165,-1.42 3.165,-3.165 0,-1.745 -1.42,-3.165 -3.165,-3.165"
       style="fill:#ffffff;fill-opacity:1;fill-rule:nonzero;stroke:none"
       transform="matrix(0.35277776,0,0,-0.35277776,100.59114,137.38701)"
       clip-path="url(#clipPath606)" />
    <path
       id="path607"
       d="m 0,0 c 0,-1.275 1.033,-2.308 2.308,-2.308 1.275,0 2.308,1.033 2.308,2.308 0,1.275 -1.033,2.308 -2.308,2.308 C 1.033,2.308 0,1.275 0,0"
       style="fill:#cd3c47;fill-opacity:1;fill-rule:nonzero;stroke:none"
       transform="matrix(0.35277776,0,0,-0.35277776,99.776861,109.23231)"
       clip-path="url(#clipPath608)" />
    <path
       id="path609"
       d="m 0,0 c -0.8,0 -1.452,-0.651 -1.452,-1.452 0,-0.8 0.652,-1.452 1.452,-1.452 0.8,0 1.452,0.652 1.452,1.452 C 1.452,-0.651 0.8,0 0,0 m 0,-4.617 c -1.745,0 -3.165,1.42 -3.165,3.165 0,1.745 1.42,3.165 3.165,3.165 1.745,0 3.165,-1.42 3.165,-3.165 0,-1.745 -1.42,-3.165 -3.165,-3.165"
       style="fill:#ffffff;fill-opacity:1;fill-rule:nonzero;stroke:none"
       transform="matrix(0.35277776,0,0,-0.35277776,100.59114,108.72011)"
       clip-path="url(#clipPath610)" />
    <path
       id="path611"
       d="M 0,0 V 0.138 C 0,0.213 -0.008,0.286 -0.022,0.357 H 2.396 C 2.382,0.286 2.374,0.213 2.374,0.138 V 0 Z M 4.049,1.22 H 3.996 V 2.2 c 0,0.651 -0.327,1.224 -0.823,1.57 L 4.001,4.113 C 3.625,4.113 3.267,4.036 2.939,3.902 2.681,4.032 2.393,4.113 2.083,4.113 H 0.291 c -0.31,0 -0.598,-0.081 -0.856,-0.211 -0.328,0.134 -0.686,0.211 -1.062,0.211 L -0.798,3.77 C -1.295,3.424 -1.622,2.851 -1.622,2.2 V 1.22 h -0.053 c -0.742,0 -1.344,-0.602 -1.344,-1.344 v -2.962 h 0.205 c 0.496,0 0.955,0.139 1.359,0.364 0.295,-0.657 0.952,-1.116 1.718,-1.116 h 1.848 c 0.767,0 1.423,0.459 1.718,1.116 0.404,-0.225 0.863,-0.364 1.359,-0.364 h 0.205 v 2.962 c 0,0.742 -0.602,1.344 -1.344,1.344"
       style="fill:#ffffff;fill-opacity:1;fill-rule:nonzero;stroke:none"
       transform="matrix(0.35277776,0,0,-0.35277776,104.27039,112.92163)"
       clip-path="url(#clipPath612)" />
    <path
       id="path613"
       d="M 0,0 V 0.138 C 0,0.213 -0.008,0.286 -0.022,0.357 H 2.396 C 2.382,0.286 2.374,0.213 2.374,0.138 V 0 Z M 4.049,1.22 H 3.996 V 2.2 c 0,0.651 -0.327,1.224 -0.823,1.57 L 4.001,4.113 C 3.625,4.113 3.267,4.036 2.939,3.902 2.681,4.032 2.393,4.113 2.083,4.113 H 0.291 c -0.31,0 -0.598,-0.081 -0.856,-0.211 -0.328,0.134 -0.686,0.211 -1.062,0.211 L -0.798,3.77 C -1.295,3.424 -1.622,2.851 -1.622,2.2 V 1.22 h -0.053 c -0.742,0 -1.344,-0.602 -1.344,-1.344 v -2.962 h 0.205 c 0.496,0 0.955,0.139 1.359,0.364 0.295,-0.657 0.952,-1.116 1.718,-1.116 h 1.848 c 0.767,0 1.423,0.459 1.718,1.116 0.404,-0.225 0.863,-0.364 1.359,-0.364 h 0.205 v 2.962 c 0,0.742 -0.602,1.344 -1.344,1.344 z"
       style="fill:none;stroke:#ffffff;stroke-width:0.448;stroke-linecap:round;stroke-linejoin:round;stroke-miterlimit:10;stroke-dasharray:none;stroke-opacity:1"
       transform="matrix(0.35277776,0,0,-0.35277776,104.27039,112.92163)"
       clip-path="url(#clipPath614)" />
    <path
       id="path615"
       d="m 0,0 v -1.038 c 0,-0.286 0.119,-0.563 0.339,-0.787 l 1.11,-1.133 1.147,1.127 c 0.232,0.228 0.358,0.513 0.358,0.807 V 0 Z"
       style="fill:#ffffff;fill-opacity:1;fill-rule:nonzero;stroke:#ffffff;stroke-width:0.448;stroke-linecap:round;stroke-linejoin:round;stroke-miterlimit:10;stroke-dasharray:none;stroke-opacity:1"
       transform="matrix(0.35277776,0,0,-0.35277776,104.16807,114.29778)"
       clip-path="url(#clipPath616)" />
  </g>
</svg>
