<?xml version="1.0" encoding="UTF-8" standalone="no"?>
<!-- Created with Inkscape (http://www.inkscape.org/) -->

<svg
   width="107.06087mm"
   height="19.112896mm"
   viewBox="0 0 107.06087 19.112896"
   version="1.1"
   id="svg1"
   xmlns:inkscape="http://www.inkscape.org/namespaces/inkscape"
   xmlns:sodipodi="http://sodipodi.sourceforge.net/DTD/sodipodi-0.dtd"
   xmlns="http://www.w3.org/2000/svg"
   xmlns:svg="http://www.w3.org/2000/svg">
  <sodipodi:namedview
     id="namedview1"
     pagecolor="#ffffff"
     bordercolor="#000000"
     borderopacity="0.25"
     inkscape:showpageshadow="2"
     inkscape:pageopacity="0.0"
     inkscape:pagecheckerboard="0"
     inkscape:deskcolor="#d1d1d1"
     inkscape:document-units="mm" />
  <defs
     id="defs1">
    <clipPath
       clipPathUnits="userSpaceOnUse"
       id="clipPath498">
      <path
         d="M 0,950 H 666 V 0 H 0 Z"
         transform="translate(-208.93208,-579.54721)"
         id="path498" />
    </clipPath>
    <clipPath
       clipPathUnits="userSpaceOnUse"
       id="clipPath500">
      <path
         d="M 0,950 H 666 V 0 H 0 Z"
         transform="translate(-240.26138,-579.54721)"
         id="path500" />
    </clipPath>
    <clipPath
       clipPathUnits="userSpaceOnUse"
       id="clipPath502">
      <path
         d="M 0,950 H 666 V 0 H 0 Z"
         transform="translate(-267.59491,-586.19731)"
         id="path502" />
    </clipPath>
    <clipPath
       clipPathUnits="userSpaceOnUse"
       id="clipPath504">
      <path
         d="M 0,950 H 666 V 0 H 0 Z"
         transform="translate(-299.39491,-579.54721)"
         id="path504" />
    </clipPath>
    <clipPath
       clipPathUnits="userSpaceOnUse"
       id="clipPath506">
      <path
         d="M 0,950 H 666 V 0 H 0 Z"
         transform="translate(-321.67321,-579.66582)"
         id="path506" />
    </clipPath>
    <clipPath
       clipPathUnits="userSpaceOnUse"
       id="clipPath508">
      <path
         d="M 0,950 H 666 V 0 H 0 Z"
         transform="translate(-344.06821,-579.54721)"
         id="path508" />
    </clipPath>
    <clipPath
       clipPathUnits="userSpaceOnUse"
       id="clipPath510">
      <path
         d="M 0,950 H 666 V 0 H 0 Z"
         transform="translate(-400.08751,-579.54721)"
         id="path510" />
    </clipPath>
    <clipPath
       clipPathUnits="userSpaceOnUse"
       id="clipPath512">
      <path
         d="M 0,950 H 666 V 0 H 0 Z"
         transform="translate(-421.89511,-579.66582)"
         id="path512" />
    </clipPath>
    <clipPath
       clipPathUnits="userSpaceOnUse"
       id="clipPath514">
      <path
         d="M 0,950 H 666 V 0 H 0 Z"
         transform="translate(-479.44171,-579.54721)"
         id="path514" />
    </clipPath>
    <clipPath
       clipPathUnits="userSpaceOnUse"
       id="clipPath516">
      <path
         d="M 0,950 H 666 V 0 H 0 Z"
         transform="translate(-383.07511,-586.70241)"
         id="path516" />
    </clipPath>
  </defs>
  <g
     inkscape:label="Capa 1"
     inkscape:groupmode="layer"
     id="layer1"
     transform="translate(12.170832,-95.779173)">
    <path
       id="path497"
       d="m 0,0 c -3.41,0 -6.34,0.613 -8.789,1.841 -2.448,1.226 -4.33,2.978 -5.642,5.255 -1.314,2.275 -1.97,4.977 -1.97,8.104 0,3.008 0.638,5.631 1.91,7.868 1.274,2.235 3.028,4.008 5.262,5.313 2.233,1.307 4.761,1.96 7.582,1.96 2.155,0 4.065,-0.347 5.732,-1.039 1.665,-0.693 3.105,-1.683 4.32,-2.969 1.215,-1.286 2.136,-2.85 2.763,-4.69 0.626,-1.841 0.94,-3.89 0.94,-6.146 0,-0.752 -0.234,-1.317 -0.705,-1.692 -0.471,-0.377 -1.156,-0.564 -2.058,-0.564 H -9.052 v 4.631 H 5.701 l -0.94,-0.831 c 0,1.623 -0.235,2.978 -0.705,4.067 -0.471,1.088 -1.147,1.919 -2.029,2.494 -0.882,0.573 -1.969,0.861 -3.261,0.861 -1.451,0 -2.685,-0.337 -3.705,-1.009 -1.019,-0.674 -1.803,-1.654 -2.35,-2.94 -0.549,-1.286 -0.823,-2.82 -0.823,-4.601 v -0.475 c 0,-3.009 0.685,-5.226 2.057,-6.65 1.371,-1.425 3.449,-2.138 6.231,-2.138 0.94,0 2.008,0.119 3.203,0.357 C 4.574,7.244 5.721,7.62 6.818,8.134 7.758,8.57 8.562,8.708 9.229,8.55 9.894,8.391 10.434,8.065 10.845,7.571 11.256,7.075 11.481,6.492 11.521,5.819 11.559,5.145 11.412,4.483 11.079,3.83 10.747,3.177 10.189,2.632 9.405,2.197 8.033,1.405 6.504,0.841 4.819,0.505 3.134,0.169 1.527,0 0,0"
       style="fill:#cd3c47;fill-opacity:1;fill-rule:nonzero;stroke:none"
       transform="matrix(0.35277776,0,0,-0.35277776,-6.3849242,110.06321)"
       clip-path="url(#clipPath498)" />
    <path
       id="path499"
       d="m 0,0 c -3.135,0 -5.859,0.613 -8.171,1.841 -2.312,1.226 -4.104,2.988 -5.378,5.284 -1.273,2.295 -1.911,5.007 -1.911,8.135 0,2.335 0.354,4.432 1.059,6.293 0.706,1.861 1.735,3.444 3.086,4.75 1.352,1.307 2.988,2.306 4.908,2.999 1.919,0.692 4.056,1.039 6.407,1.039 1.214,0 2.518,-0.148 3.91,-0.445 C 5.3,29.599 6.662,29.113 7.994,28.441 8.738,28.005 9.258,27.471 9.552,26.838 9.847,26.204 9.954,25.541 9.876,24.849 9.796,24.156 9.552,23.542 9.141,23.008 8.729,22.474 8.209,22.117 7.583,21.94 6.956,21.761 6.251,21.87 5.467,22.266 c -0.745,0.395 -1.519,0.702 -2.322,0.92 -0.804,0.217 -1.558,0.327 -2.263,0.327 -1.175,0 -2.214,-0.189 -3.116,-0.565 -0.901,-0.376 -1.656,-0.91 -2.263,-1.602 -0.607,-0.693 -1.078,-1.554 -1.411,-2.583 -0.332,-1.03 -0.499,-2.197 -0.499,-3.503 0,-2.613 0.637,-4.682 1.91,-6.205 1.274,-1.525 3.066,-2.286 5.379,-2.286 0.705,0 1.449,0.098 2.234,0.297 C 3.899,7.263 4.683,7.58 5.467,8.016 6.251,8.411 6.946,8.51 7.554,8.313 8.161,8.114 8.671,7.748 9.082,7.214 9.494,6.68 9.718,6.066 9.758,5.373 9.796,4.681 9.67,4.017 9.376,3.385 9.082,2.751 8.562,2.256 7.818,1.9 6.525,1.188 5.202,0.692 3.85,0.416 2.499,0.139 1.214,0 0,0"
       style="fill:#cd3c47;fill-opacity:1;fill-rule:nonzero;stroke:none"
       transform="matrix(0.35277776,0,0,-0.35277776,4.6673565,110.06321)"
       clip-path="url(#clipPath500)" />
    <path
       id="path501"
       d="m 0,0 c 1.294,0 2.41,0.306 3.35,0.921 0.942,0.613 1.685,1.552 2.234,2.82 0.549,1.266 0.823,2.869 0.823,4.809 0,2.889 -0.587,5.017 -1.763,6.383 C 3.468,16.298 1.92,16.981 0,16.981 c -1.254,0 -2.361,-0.296 -3.321,-0.89 -0.96,-0.594 -1.705,-1.525 -2.234,-2.791 -0.529,-1.267 -0.793,-2.85 -0.793,-4.75 0,-2.929 0.588,-5.086 1.763,-6.472 C -3.409,0.692 -1.881,0 0,0 m 0,-6.65 c -3.096,0 -5.78,0.613 -8.053,1.841 -2.273,1.226 -4.046,2.978 -5.32,5.254 -1.273,2.276 -1.911,4.978 -1.911,8.105 0,2.335 0.354,4.433 1.06,6.294 0.705,1.86 1.734,3.453 3.085,4.779 1.352,1.326 2.978,2.336 4.879,3.028 1.901,0.693 3.988,1.04 6.26,1.04 3.096,0 5.79,-0.615 8.083,-1.841 2.292,-1.227 4.074,-2.979 5.348,-5.255 1.274,-2.276 1.911,-4.957 1.911,-8.045 0,-2.336 -0.362,-4.453 -1.087,-6.353 C 13.53,0.297 12.501,-1.306 11.168,-2.612 9.836,-3.918 8.229,-4.919 6.349,-5.611 4.468,-6.303 2.352,-6.65 0,-6.65"
       style="fill:#cd3c47;fill-opacity:1;fill-rule:nonzero;stroke:none"
       transform="matrix(0.35277776,0,0,-0.35277776,14.310017,107.7172)"
       clip-path="url(#clipPath502)" />
    <path
       id="path503"
       d="m 0,0 c -1.685,0 -3.448,0.148 -5.29,0.445 -1.843,0.297 -3.489,0.822 -4.938,1.574 -0.822,0.395 -1.402,0.9 -1.734,1.514 -0.333,0.613 -0.48,1.247 -0.441,1.9 0.039,0.653 0.244,1.226 0.617,1.722 0.372,0.495 0.862,0.831 1.47,1.009 0.607,0.178 1.283,0.109 2.027,-0.207 1.607,-0.674 3.087,-1.149 4.439,-1.426 1.352,-0.277 2.654,-0.415 3.908,-0.415 1.647,0 2.861,0.276 3.645,0.831 0.783,0.554 1.176,1.266 1.176,2.138 0,0.751 -0.256,1.315 -0.764,1.692 -0.51,0.375 -1.255,0.662 -2.234,0.861 l -6.231,1.128 c -2.39,0.475 -4.242,1.385 -5.555,2.731 -1.314,1.346 -1.969,3.088 -1.969,5.225 0,2.019 0.548,3.741 1.646,5.166 1.096,1.425 2.615,2.523 4.555,3.295 1.941,0.772 4.144,1.158 6.613,1.158 1.765,0 3.381,-0.158 4.85,-0.475 1.47,-0.317 2.91,-0.851 4.32,-1.603 0.706,-0.318 1.205,-0.772 1.5,-1.366 0.293,-0.594 0.382,-1.207 0.264,-1.841 -0.117,-0.633 -0.362,-1.197 -0.735,-1.692 -0.372,-0.495 -0.863,-0.831 -1.469,-1.009 -0.608,-0.178 -1.323,-0.089 -2.146,0.267 -1.254,0.514 -2.411,0.9 -3.468,1.158 -1.058,0.257 -2.038,0.386 -2.94,0.386 -1.801,0 -3.106,-0.278 -3.908,-0.831 -0.804,-0.555 -1.205,-1.267 -1.205,-2.138 0,-0.673 0.234,-1.237 0.705,-1.692 0.471,-0.456 1.176,-0.763 2.116,-0.92 l 6.231,-1.069 c 2.507,-0.475 4.428,-1.356 5.761,-2.642 1.332,-1.287 1.999,-3.019 1.999,-5.196 0,-3.087 -1.167,-5.473 -3.497,-7.154 C 6.986,0.841 3.879,0 0,0"
       style="fill:#022533;fill-opacity:1;fill-rule:nonzero;stroke:none"
       transform="matrix(0.35277776,0,0,-0.35277776,25.52835,110.06321)"
       clip-path="url(#clipPath504)" />
    <path
       id="path505"
       d="m 0,0 c -1.372,0 -2.45,0.426 -3.234,1.277 -0.783,0.851 -1.174,2.048 -1.174,3.592 v 20.366 c 0,1.583 0.391,2.78 1.174,3.592 0.784,0.811 1.862,1.217 3.234,1.217 1.449,0 2.557,-0.406 3.321,-1.217 0.764,-0.812 1.147,-2.009 1.147,-3.592 V 4.869 C 4.468,3.325 4.094,2.128 3.35,1.277 2.605,0.426 1.489,0 0,0"
       style="fill:#022533;fill-opacity:1;fill-rule:nonzero;stroke:none"
       transform="matrix(0.35277776,0,0,-0.35277776,33.387639,110.02137)"
       clip-path="url(#clipPath506)" />
    <path
       id="path507"
       d="m 0,0 c -1.685,0 -3.448,0.148 -5.29,0.445 -1.843,0.297 -3.489,0.822 -4.938,1.574 -0.822,0.395 -1.402,0.9 -1.734,1.514 -0.333,0.613 -0.48,1.247 -0.441,1.9 0.039,0.653 0.244,1.226 0.617,1.722 0.372,0.495 0.862,0.831 1.47,1.009 0.607,0.178 1.283,0.109 2.027,-0.207 1.607,-0.674 3.087,-1.149 4.439,-1.426 1.352,-0.277 2.654,-0.415 3.908,-0.415 1.647,0 2.861,0.276 3.645,0.831 0.783,0.554 1.176,1.266 1.176,2.138 0,0.751 -0.256,1.315 -0.764,1.692 -0.51,0.375 -1.255,0.662 -2.234,0.861 l -6.231,1.128 c -2.39,0.475 -4.242,1.385 -5.555,2.731 -1.314,1.346 -1.969,3.088 -1.969,5.225 0,2.019 0.548,3.741 1.646,5.166 1.096,1.425 2.615,2.523 4.555,3.295 1.941,0.772 4.144,1.158 6.613,1.158 1.765,0 3.381,-0.158 4.85,-0.475 1.47,-0.317 2.91,-0.851 4.32,-1.603 0.706,-0.318 1.205,-0.772 1.5,-1.366 0.293,-0.594 0.382,-1.207 0.264,-1.841 -0.117,-0.633 -0.362,-1.197 -0.735,-1.692 -0.372,-0.495 -0.863,-0.831 -1.469,-1.009 -0.608,-0.178 -1.323,-0.089 -2.146,0.267 -1.254,0.514 -2.411,0.9 -3.468,1.158 -1.058,0.257 -2.038,0.386 -2.94,0.386 -1.801,0 -3.106,-0.278 -3.908,-0.831 -0.804,-0.555 -1.205,-1.267 -1.205,-2.138 0,-0.673 0.234,-1.237 0.705,-1.692 0.471,-0.456 1.176,-0.763 2.116,-0.92 l 6.231,-1.069 c 2.507,-0.475 4.428,-1.356 5.761,-2.642 1.332,-1.287 1.999,-3.019 1.999,-5.196 0,-3.087 -1.167,-5.473 -3.497,-7.154 C 6.986,0.841 3.879,0 0,0"
       style="fill:#022533;fill-opacity:1;fill-rule:nonzero;stroke:none"
       transform="matrix(0.35277776,0,0,-0.35277776,41.288097,110.06321)"
       clip-path="url(#clipPath508)" />
    <path
       id="path509"
       d="m 0,0 c -3.41,0 -6.34,0.613 -8.789,1.841 -2.448,1.226 -4.33,2.978 -5.642,5.255 -1.314,2.275 -1.97,4.977 -1.97,8.104 0,3.008 0.638,5.631 1.91,7.868 1.274,2.235 3.028,4.008 5.262,5.313 2.233,1.307 4.761,1.96 7.582,1.96 2.155,0 4.065,-0.347 5.732,-1.039 1.665,-0.693 3.105,-1.683 4.32,-2.969 1.215,-1.286 2.136,-2.85 2.763,-4.69 0.626,-1.841 0.94,-3.89 0.94,-6.146 0,-0.752 -0.234,-1.317 -0.705,-1.692 -0.471,-0.377 -1.156,-0.564 -2.058,-0.564 H -9.052 v 4.631 H 5.701 l -0.94,-0.831 c 0,1.623 -0.235,2.978 -0.705,4.067 -0.471,1.088 -1.147,1.919 -2.029,2.494 -0.882,0.573 -1.969,0.861 -3.261,0.861 -1.451,0 -2.685,-0.337 -3.705,-1.009 -1.019,-0.674 -1.803,-1.654 -2.35,-2.94 -0.549,-1.286 -0.823,-2.82 -0.823,-4.601 v -0.475 c 0,-3.009 0.685,-5.226 2.057,-6.65 1.371,-1.425 3.449,-2.138 6.231,-2.138 0.94,0 2.008,0.119 3.203,0.357 C 4.574,7.244 5.721,7.62 6.818,8.134 7.758,8.57 8.562,8.708 9.229,8.55 9.894,8.391 10.434,8.065 10.845,7.571 11.256,7.075 11.481,6.492 11.521,5.819 11.559,5.145 11.412,4.483 11.079,3.83 10.747,3.177 10.189,2.632 9.405,2.197 8.033,1.405 6.504,0.841 4.819,0.505 3.134,0.169 1.527,0 0,0"
       style="fill:#022533;fill-opacity:1;fill-rule:nonzero;stroke:none"
       transform="matrix(0.35277776,0,0,-0.35277776,61.050461,110.06321)"
       clip-path="url(#clipPath510)" />
    <path
       id="path511"
       d="M 0,0 C -1.372,0 -2.45,0.386 -3.234,1.158 -4.018,1.93 -4.41,3.048 -4.41,4.513 v 21.078 c 0,1.464 0.382,2.583 1.147,3.355 0.764,0.772 1.851,1.158 3.263,1.158 1.371,0 2.429,-0.386 3.174,-1.158 C 3.918,28.174 4.29,27.055 4.29,25.591 V 21.85 l -0.647,2.257 c 0.784,1.86 1.999,3.344 3.645,4.453 1.646,1.107 3.586,1.662 5.82,1.662 2.234,0 4.094,-0.534 5.584,-1.603 1.489,-1.069 2.547,-2.692 3.174,-4.868 h -0.823 c 0.861,1.978 2.194,3.552 3.997,4.72 1.803,1.167 3.841,1.751 6.113,1.751 2.194,0 4.017,-0.436 5.468,-1.306 1.449,-0.871 2.526,-2.227 3.232,-4.067 0.705,-1.841 1.058,-4.147 1.058,-6.917 V 4.513 C 40.911,3.048 40.529,1.93 39.765,1.158 39.002,0.386 37.893,0 36.444,0 35.072,0 33.994,0.386 33.211,1.158 32.427,1.93 32.036,3.048 32.036,4.513 v 13.122 c 0,1.978 -0.294,3.414 -0.883,4.305 -0.587,0.89 -1.645,1.335 -3.174,1.335 -1.645,0 -2.939,-0.594 -3.879,-1.781 -0.94,-1.187 -1.411,-2.87 -1.411,-5.046 V 4.513 C 22.689,3.048 22.307,1.93 21.543,1.158 20.779,0.386 19.692,0 18.281,0 16.869,0 15.773,0.386 14.989,1.158 14.204,1.93 13.813,3.048 13.813,4.513 v 13.122 c 0,1.978 -0.314,3.414 -0.941,4.305 -0.627,0.89 -1.645,1.335 -3.056,1.335 -1.685,0 -2.998,-0.594 -3.939,-1.781 -0.94,-1.187 -1.41,-2.87 -1.41,-5.046 V 4.513 C 4.467,1.504 2.978,0 0,0"
       style="fill:#022533;fill-opacity:1;fill-rule:nonzero;stroke:none"
       transform="matrix(0.35277776,0,0,-0.35277776,68.743698,110.02137)"
       clip-path="url(#clipPath512)" />
    <path
       id="path513"
       d="m 0,0 c -2.195,0 -4.115,0.406 -5.76,1.217 -1.647,0.811 -2.94,1.92 -3.88,3.325 -0.941,1.405 -1.412,3.018 -1.412,4.839 0,2.138 0.549,3.82 1.647,5.047 1.096,1.227 2.87,2.118 5.319,2.672 2.449,0.554 5.711,0.832 9.788,0.832 H 8.818 V 13.3 H 5.76 c -2.037,0 -3.655,-0.109 -4.849,-0.327 -1.196,-0.217 -2.067,-0.593 -2.616,-1.127 -0.549,-0.535 -0.823,-1.238 -0.823,-2.108 0,-1.069 0.383,-1.96 1.147,-2.672 0.763,-0.713 1.852,-1.069 3.262,-1.069 1.136,0 2.155,0.257 3.056,0.772 0.902,0.514 1.607,1.227 2.116,2.138 0.509,0.91 0.765,1.998 0.765,3.265 v 6.769 c 0,1.741 -0.392,2.978 -1.176,3.711 -0.785,0.732 -2.136,1.099 -4.055,1.099 -1.02,0 -2.147,-0.12 -3.381,-0.357 C -2.028,23.157 -3.39,22.72 -4.879,22.088 -5.78,21.731 -6.555,21.652 -7.2,21.85 c -0.647,0.198 -1.147,0.584 -1.5,1.158 -0.352,0.574 -0.529,1.217 -0.529,1.93 0,0.712 0.196,1.385 0.588,2.018 0.391,0.633 1.058,1.108 1.999,1.425 1.802,0.713 3.516,1.218 5.143,1.515 1.626,0.297 3.106,0.445 4.438,0.445 3.018,0 5.515,-0.445 7.495,-1.336 1.978,-0.891 3.448,-2.266 4.408,-4.127 0.96,-1.861 1.44,-4.215 1.44,-7.065 V 4.632 C 16.282,3.167 15.92,2.048 15.195,1.277 14.47,0.505 13.461,0.119 12.168,0.119 10.836,0.119 9.807,0.505 9.082,1.277 8.356,2.048 7.994,3.167 7.994,4.632 V 6.828 L 8.405,6.413 C 8.171,5.106 7.671,3.979 6.907,3.028 6.142,2.078 5.182,1.336 4.026,0.801 2.87,0.267 1.529,0 0,0"
       style="fill:#022533;fill-opacity:1;fill-rule:nonzero;stroke:none"
       transform="matrix(0.35277776,0,0,-0.35277776,89.044859,110.06321)"
       clip-path="url(#clipPath514)" />
    <path
       id="path515"
       d="m 0,0 c -0.373,0.375 -0.834,0.544 -1.381,0.504 -0.353,0 -0.795,-0.059 -1.324,-0.178 -0.529,-0.119 -1.087,-0.178 -1.674,-0.178 -1.686,0 -2.901,0.405 -3.645,1.218 -0.745,0.81 -1.117,2.048 -1.117,3.71 v 10.866 h 5.467 c 1.136,0 1.998,0.287 2.587,0.861 0.587,0.573 0.881,1.395 0.881,2.464 0,1.069 -0.294,1.88 -0.881,2.435 -0.589,0.553 -1.451,0.831 -2.587,0.831 h -5.467 v 6.647 c 0,2.295 -1.86,4.155 -4.155,4.155 h -0.567 c -2.294,0 -4.154,-1.86 -4.154,-4.155 v -6.647 h -2.586 c -1.059,0 -1.891,-0.278 -2.499,-0.831 -0.607,-0.555 -0.91,-1.366 -0.91,-2.435 0,-1.069 0.303,-1.891 0.91,-2.464 0.608,-0.574 1.44,-0.861 2.499,-0.861 h 2.586 V 4.72 c 0,-2.652 0.431,-4.849 1.294,-6.591 0.861,-1.742 2.203,-3.058 4.026,-3.948 1.822,-0.891 4.085,-1.336 6.789,-1.336 0.588,0 1.331,0.069 2.234,0.208 0.9,0.139 1.606,0.288 2.116,0.445 0.824,0.277 1.382,0.772 1.676,1.485 0.293,0.712 0.44,1.563 0.44,2.552 C 0.558,-1.198 0.371,-0.377 0,0"
       style="fill:#022533;fill-opacity:1;fill-rule:nonzero;stroke:none"
       transform="matrix(0.35277776,0,0,-0.35277776,55.048864,107.53902)"
       clip-path="url(#clipPath516)" />
    <path
       id="path517"
       d="m -10.758281,114.88783 c -0.151929,0 -0.285254,-0.0196 -0.401009,-0.0579 -0.115756,-0.0413 -0.212907,-0.10026 -0.289388,-0.17777 -0.07752,-0.0796 -0.136426,-0.17777 -0.177767,-0.29352 -0.03927,-0.11783 -0.05788,-0.25632 -0.05788,-0.41341 v -1.24024 c 0,-0.0496 0.0124,-0.0868 0.03721,-0.11162 0.02481,-0.0248 0.06201,-0.0372 0.111621,-0.0372 0.04961,0 0.08682,0.0124 0.111621,0.0372 0.0248,0.0248 0.03721,0.062 0.03721,0.11162 v 1.23197 c 0,0.23151 0.05168,0.40411 0.157097,0.51676 0.107487,0.11369 0.264583,0.1695 0.471289,0.1695 0.203605,0 0.357601,-0.0558 0.463021,-0.1695 0.107487,-0.11265 0.16123,-0.28525 0.16123,-0.51676 v -1.23197 c 0,-0.0496 0.0124,-0.0868 0.03721,-0.11162 0.02481,-0.0248 0.06201,-0.0372 0.1116212,-0.0372 0.046509,0 0.082682,0.0124 0.1074869,0.0372 0.026872,0.0248 0.041341,0.062 0.041341,0.11162 v 1.24024 c 0,0.2067 -0.036174,0.38033 -0.107487,0.52089 -0.069246,0.1385 -0.1725991,0.24288 -0.3100581,0.3142 -0.138493,0.0723 -0.305925,0.10748 -0.504362,0.10748 z m 3.3713701,-0.008 c -0.041341,0 -0.074414,-0.0124 -0.099219,-0.0372 -0.024804,-0.0248 -0.037207,-0.06 -0.037207,-0.10749 v -2.02985 c 0,-0.0496 0.010336,-0.0868 0.033073,-0.11162 0.024804,-0.0248 0.05581,-0.0372 0.095085,-0.0372 0.03514,0 0.063045,0.007 0.082682,0.0207 0.018605,0.0114 0.041341,0.0331 0.066146,0.0662 l 1.372526,1.81901 h -0.082682 v -1.76113 c 0,-0.0465 0.012404,-0.0827 0.037207,-0.10749 0.024804,-0.0248 0.059945,-0.0372 0.1074872,-0.0372 0.043408,0 0.076481,0.0124 0.099219,0.0372 0.024804,0.0248 0.037207,0.061 0.037207,0.10749 v 2.03398 c 0,0.0475 -0.01137,0.0827 -0.033073,0.10749 -0.022737,0.0248 -0.051676,0.0372 -0.086816,0.0372 -0.036174,0 -0.065112,-0.007 -0.086817,-0.0207 -0.022736,-0.0134 -0.045475,-0.0351 -0.07028,-0.0661 l -1.3683918,-1.81901 h 0.074414 v 1.76113 c 0,0.0475 -0.012404,0.0827 -0.037207,0.10749 -0.022736,0.0248 -0.056844,0.0372 -0.1033529,0.0372 z m 4.1888912,0 c -0.049609,0 -0.086816,-0.0124 -0.111621,-0.0372 -0.024804,-0.0269 -0.037207,-0.0661 -0.037207,-0.11576 v -2.01744 c 0,-0.0517 0.012404,-0.091 0.037207,-0.11576 0.024804,-0.0248 0.062012,-0.0372 0.111621,-0.0372 0.049609,0 0.086817,0.0124 0.1116214,0.0372 0.024804,0.0248 0.037207,0.0641 0.037207,0.11576 v 2.01744 c 0,0.0496 -0.012404,0.0889 -0.037207,0.11576 -0.024804,0.0248 -0.062012,0.0372 -0.1116214,0.0372 z m 2.63963211,-0.0207 c -0.0527099,0 -0.0930176,-0.0134 -0.11988941,-0.0413 -0.0279047,-0.0269 -0.041341,-0.0672 -0.041341,-0.11989 v -1.95957 c 0,-0.0517 0.0134373,-0.092 0.041341,-0.11989 0.0268711,-0.0269 0.0671795,-0.0413 0.11988941,-0.0413 h 0.62425118 c 0.37207047,0 0.65835774,0.0982 0.85989579,0.29353 0.20360532,0.19637 0.30592462,0.47852 0.30592462,0.84749 0,0.1819 -0.026871,0.3452 -0.078548,0.48782 -0.05271,0.14367 -0.1281578,0.26355 -0.22737652,0.35967 -0.0992187,0.094 -0.22117507,0.16743 -0.36380206,0.21911 -0.14366028,0.0496 -0.30902485,0.0744 -0.49609373,0.0744 z m 0.13642586,-0.25631 h 0.46715501 c 0.14572756,0 0.27285138,-0.0176 0.38033853,-0.0537 0.10955407,-0.0351 0.20050441,-0.0909 0.27285137,-0.16537 0.0713137,-0.0744 0.12505689,-0.1664 0.16123037,-0.27698 0.0382408,-0.10956 0.0578778,-0.23978 0.0578778,-0.38861 0,-0.29766 -0.0733806,-0.51883 -0.21910815,-0.66559 -0.14676084,-0.14573 -0.36380207,-0.21911 -0.6531899,-0.21911 h -0.46715501 z m 3.82302223,0.27699 c -0.039274,0 -0.07028,-0.008 -0.095085,-0.0248 -0.022737,-0.0165 -0.036173,-0.0393 -0.041341,-0.0703 -0.0031,-0.03 0.00413,-0.063 0.020669,-0.0992 l 0.8847007,-2.00091 c 0.018602,-0.0465 0.043408,-0.0796 0.074414,-0.0992 0.029972,-0.0186 0.063045,-0.0289 0.099219,-0.0289 0.03824,0 0.071313,0.0103 0.099219,0.0289 0.029972,0.0196 0.055811,0.0527 0.078548,0.0992 l 0.8805665,2.00091 c 0.018602,0.0362 0.025837,0.0703 0.020669,0.10335 -0.0031,0.031 -0.015505,0.0537 -0.037207,0.0703 -0.019636,0.0134 -0.048576,0.0207 -0.086816,0.0207 -0.044442,0 -0.080615,-0.0114 -0.1074868,-0.0331 -0.024804,-0.0217 -0.047542,-0.0548 -0.066146,-0.0992 l -0.2315104,-0.53743 0.1405597,0.0786 H 3.6491074 l 0.14056,-0.0786 -0.2315104,0.53743 c -0.019639,0.0496 -0.041341,0.0847 -0.066146,0.10336 -0.022736,0.0186 -0.05271,0.0289 -0.090951,0.0289 z m 0.9384439,-1.96371 -0.5043618,1.19476 -0.078548,-0.0661 h 1.1699543 l -0.074414,0.0661 -0.508496,-1.19476 z m 3.4065102,1.94303 c -0.05271,0 -0.093018,-0.0134 -0.119889,-0.0413 -0.027905,-0.0269 -0.041341,-0.0672 -0.041341,-0.11989 v -1.95957 c 0,-0.0517 0.013437,-0.092 0.041341,-0.11989 0.026871,-0.0269 0.067179,-0.0413 0.119889,-0.0413 h 0.6242516 c 0.3720701,0 0.6583574,0.0982 0.8598958,0.29353 0.2036049,0.19637 0.3059243,0.47852 0.3059243,0.84749 0,0.1819 -0.026871,0.3452 -0.078548,0.48782 -0.05271,0.14367 -0.1281575,0.26355 -0.2273762,0.35967 -0.099219,0.094 -0.2211755,0.16743 -0.3638021,0.21911 -0.1436606,0.0496 -0.3090252,0.0744 -0.4960937,0.0744 z m 0.1364259,-0.25631 h 0.467155 c 0.1457276,0 0.2728514,-0.0176 0.3803385,-0.0537 0.1095541,-0.0351 0.2005045,-0.0909 0.2728514,-0.16537 0.071314,-0.0744 0.1250569,-0.1664 0.1612307,-0.27698 0.03824,-0.10956 0.057878,-0.23978 0.057878,-0.38861 0,-0.29766 -0.073381,-0.51883 -0.2191082,-0.66559 -0.1467608,-0.14573 -0.3638021,-0.21911 -0.6531899,-0.21911 H 7.882441 Z m 6.6590245,0.27699 c -0.04134,0 -0.07441,-0.0124 -0.09922,-0.0372 -0.0248,-0.0248 -0.03721,-0.06 -0.03721,-0.10749 v -2.02985 c 0,-0.0496 0.01034,-0.0868 0.03307,-0.11162 0.0248,-0.0248 0.05581,-0.0372 0.09508,-0.0372 0.03514,0 0.06305,0.007 0.08268,0.0207 0.0186,0.0114 0.04134,0.0331 0.06615,0.0662 l 1.372526,1.81901 h -0.08268 v -1.76113 c 0,-0.0465 0.0124,-0.0827 0.03721,-0.10749 0.0248,-0.0248 0.05994,-0.0372 0.107487,-0.0372 0.04341,0 0.07648,0.0124 0.09922,0.0372 0.0248,0.0248 0.03721,0.061 0.03721,0.10749 v 2.03398 c 0,0.0475 -0.01137,0.0827 -0.03307,0.10749 -0.02274,0.0248 -0.05168,0.0372 -0.08682,0.0372 -0.03617,0 -0.06511,-0.007 -0.08682,-0.0207 -0.02274,-0.0134 -0.04548,-0.0351 -0.07028,-0.0661 l -1.368392,-1.81901 h 0.07441 v 1.76113 c 0,0.0475 -0.0124,0.0827 -0.03721,0.10749 -0.02274,0.0248 -0.05684,0.0372 -0.103353,0.0372 z m 4.006991,0 c -0.03927,0 -0.07028,-0.008 -0.09509,-0.0248 -0.02274,-0.0165 -0.03617,-0.0393 -0.04134,-0.0703 -0.0031,-0.03 0.0041,-0.063 0.02067,-0.0992 l 0.884701,-2.00091 c 0.0186,-0.0465 0.04341,-0.0796 0.07441,-0.0992 0.02997,-0.0186 0.06304,-0.0289 0.09922,-0.0289 0.03824,0 0.07131,0.0103 0.09922,0.0289 0.02997,0.0196 0.05581,0.0527 0.07855,0.0992 l 0.880567,2.00091 c 0.0186,0.0362 0.02584,0.0703 0.02067,0.10335 -0.0031,0.031 -0.01551,0.0537 -0.03721,0.0703 -0.01964,0.0134 -0.04858,0.0207 -0.08682,0.0207 -0.04444,0 -0.08061,-0.0114 -0.107487,-0.0331 -0.0248,-0.0217 -0.04754,-0.0548 -0.06614,-0.0992 l -0.231511,-0.53743 0.14056,0.0786 H 18.7965 l 0.140561,-0.0786 -0.231511,0.53743 c -0.01964,0.0496 -0.04134,0.0847 -0.06615,0.10336 -0.02274,0.0186 -0.05271,0.0289 -0.09095,0.0289 z m 0.938443,-1.96371 -0.504361,1.19476 -0.07855,-0.0661 h 1.169954 l -0.07441,0.0661 -0.508496,-1.19476 z m 4.204395,1.97197 c -0.226342,0 -0.420646,-0.0465 -0.58291,-0.14056 -0.160197,-0.0961 -0.284221,-0.23151 -0.37207,-0.40514 -0.08888,-0.1757 -0.132292,-0.38447 -0.132292,-0.62425 0,-0.1788 0.0248,-0.34003 0.07441,-0.48369 0.04961,-0.14573 0.120923,-0.26975 0.214974,-0.37207 0.09302,-0.10129 0.206706,-0.1788 0.338997,-0.23151 0.13436,-0.0548 0.28732,-0.0827 0.458887,-0.0827 0.129191,0 0.253213,0.0196 0.372071,0.0579 0.120922,0.0362 0.225309,0.0868 0.314191,0.15296 0.03306,0.0227 0.05478,0.0486 0.06615,0.0786 0.01034,0.031 0.01242,0.06 0.0041,0.0868 -0.0083,0.0279 -0.02272,0.0517 -0.04134,0.0703 -0.01965,0.0165 -0.04444,0.0269 -0.07441,0.0289 -0.03101,0 -0.06408,-0.0124 -0.09922,-0.0372 -0.07441,-0.0579 -0.157099,-0.0992 -0.248049,-0.12402 -0.08888,-0.0269 -0.183966,-0.0413 -0.285252,-0.0413 -0.165365,0 -0.305925,0.0362 -0.421681,0.10748 -0.115755,0.0693 -0.204638,0.1695 -0.264583,0.30179 -0.05788,0.1323 -0.08682,0.29559 -0.08682,0.48783 0,0.19017 0.02894,0.35347 0.08682,0.48782 0.05994,0.1323 0.148828,0.23462 0.264583,0.30593 0.115756,0.0692 0.256316,0.10335 0.421681,0.10335 0.101286,0 0.198437,-0.0134 0.289387,-0.0413 0.09095,-0.0269 0.174667,-0.0703 0.25218,-0.12816 0.03514,-0.0248 0.06718,-0.0351 0.09509,-0.0331 0.02999,0.003 0.05478,0.0124 0.07441,0.0289 0.01859,0.0145 0.03306,0.0351 0.04134,0.062 0.0083,0.0279 0.0062,0.0558 -0.0041,0.0827 -0.0083,0.0279 -0.0279,0.0527 -0.05788,0.0744 -0.08888,0.0775 -0.19327,0.13539 -0.314195,0.17363 -0.121955,0.0351 -0.250112,0.0537 -0.384471,0.0537 z m 3.110921,-0.008 c -0.04961,0 -0.08682,-0.0124 -0.111622,-0.0372 -0.0248,-0.0269 -0.03721,-0.0661 -0.03721,-0.11576 v -2.01744 c 0,-0.0517 0.01242,-0.091 0.03721,-0.11576 0.0248,-0.0248 0.06201,-0.0372 0.111622,-0.0372 0.04961,0 0.08682,0.0124 0.111623,0.0372 0.0248,0.0248 0.0372,0.0641 0.0372,0.11576 v 2.01744 c 0,0.0496 -0.01238,0.0889 -0.0372,0.11576 -0.0248,0.0248 -0.06201,0.0372 -0.111623,0.0372 z m 3.44992,0.008 c -0.214976,0 -0.40101,-0.0475 -0.558105,-0.14469 -0.157099,-0.0961 -0.280088,-0.23151 -0.367937,-0.40514 -0.08889,-0.1757 -0.132292,-0.38241 -0.132292,-0.62012 0,-0.1788 0.0248,-0.34003 0.07441,-0.48369 0.04961,-0.14573 0.119891,-0.26975 0.210841,-0.37207 0.09302,-0.10129 0.204639,-0.1788 0.334864,-0.23151 0.132291,-0.0548 0.278017,-0.0827 0.438217,-0.0827 0.217039,0 0.40514,0.0486 0.562239,0.1447 0.157096,0.094 0.278017,0.22944 0.363802,0.40514 0.08475,0.17363 0.128157,0.37931 0.128157,0.61599 0,0.17983 -0.0248,0.34209 -0.07441,0.48782 -0.04961,0.14366 -0.119888,0.26768 -0.210841,0.37207 -0.09095,0.10232 -0.201538,0.18087 -0.330729,0.23565 -0.130224,0.0517 -0.27595,0.0785 -0.438213,0.0785 z m 0,-0.26458 c 0.157095,0 0.289387,-0.0351 0.396875,-0.10749 0.109551,-0.0713 0.195336,-0.17466 0.256314,-0.31006 0.05994,-0.13435 0.09095,-0.29765 0.09095,-0.48782 0,-0.28939 -0.06511,-0.51263 -0.194303,-0.66973 -0.130225,-0.15709 -0.313161,-0.23564 -0.549836,-0.23564 -0.155032,0 -0.288357,0.0362 -0.40101,0.10749 -0.110589,0.0692 -0.194303,0.17156 -0.252183,0.30592 -0.05788,0.13539 -0.08682,0.29972 -0.08682,0.49196 0,0.28422 0.06408,0.50643 0.194303,0.66559 0.129191,0.1602 0.311093,0.23978 0.545705,0.23978 z m 3.438549,0.25632 c -0.04134,0 -0.07441,-0.0124 -0.09922,-0.0372 -0.0248,-0.0248 -0.03721,-0.06 -0.03721,-0.10749 v -2.02985 c 0,-0.0496 0.01034,-0.0868 0.03306,-0.11162 0.0248,-0.0248 0.05581,-0.0372 0.09508,-0.0372 0.03514,0 0.06304,0.007 0.08268,0.0207 0.01859,0.0114 0.04134,0.0331 0.06615,0.0662 l 1.372528,1.81901 h -0.08268 v -1.76113 c 0,-0.0465 0.01242,-0.0827 0.03721,-0.10749 0.0248,-0.0248 0.05994,-0.0372 0.107488,-0.0372 0.04341,0 0.07648,0.0124 0.09922,0.0372 0.0248,0.0248 0.03721,0.061 0.03721,0.10749 v 2.03398 c 0,0.0475 -0.01136,0.0827 -0.03305,0.10749 -0.02272,0.0248 -0.05168,0.0372 -0.08682,0.0372 -0.03617,0 -0.06512,-0.007 -0.08682,-0.0207 -0.02272,-0.0134 -0.04547,-0.0351 -0.07028,-0.0661 l -1.36839,-1.81901 h 0.07441 v 1.76113 c 0,0.0475 -0.01238,0.0827 -0.0372,0.10749 -0.02276,0.0248 -0.05685,0.0372 -0.103354,0.0372 z m 4.008021,0 c -0.03927,0 -0.07028,-0.008 -0.09508,-0.0248 -0.02275,-0.0165 -0.03617,-0.0393 -0.04134,-0.0703 -0.0032,-0.03 0.0041,-0.063 0.02067,-0.0992 l 0.8847,-2.00091 c 0.01859,-0.0465 0.04341,-0.0796 0.07442,-0.0992 0.02999,-0.0186 0.06304,-0.0289 0.09922,-0.0289 0.03824,0 0.07131,0.0103 0.09922,0.0289 0.02999,0.0196 0.05581,0.0527 0.07855,0.0992 l 0.880565,2.00091 c 0.01859,0.0362 0.02582,0.0703 0.02067,0.10335 -0.0032,0.031 -0.01549,0.0537 -0.03721,0.0703 -0.01965,0.0134 -0.04857,0.0207 -0.08682,0.0207 -0.04444,0 -0.08061,-0.0114 -0.107488,-0.0331 -0.0248,-0.0217 -0.04754,-0.0548 -0.06615,-0.0992 l -0.23151,-0.53743 0.140561,0.0786 h -1.384928 l 0.140561,-0.0786 -0.231511,0.53743 c -0.01965,0.0496 -0.04134,0.0847 -0.06615,0.10336 -0.02275,0.0186 -0.05271,0.0289 -0.09095,0.0289 z m 0.938446,-1.96371 -0.504363,1.19476 -0.07855,-0.0661 h 1.169952 l -0.07441,0.0661 -0.508497,-1.19476 z m 3.394106,1.94303 c -0.04754,0 -0.08475,-0.0134 -0.111619,-0.0413 -0.0248,-0.0269 -0.03721,-0.0661 -0.03721,-0.11575 v -1.98438 c 0,-0.0496 0.01242,-0.0868 0.03721,-0.11162 0.0248,-0.0269 0.06201,-0.0413 0.111619,-0.0413 0.04961,0 0.08682,0.0145 0.111623,0.0413 0.0248,0.0248 0.03721,0.062 0.03721,0.11162 v 1.88103 h 1.029395 c 0.04651,0 0.08061,0.0114 0.103353,0.0331 0.0217,0.0227 0.03305,0.0537 0.03305,0.0951 0,0.0444 -0.01136,0.0775 -0.03305,0.0992 -0.02275,0.0227 -0.05685,0.0331 -0.103353,0.0331 z m 6.18877,0 c -0.05271,0 -0.09302,-0.0134 -0.119888,-0.0413 -0.0279,-0.0269 -0.04134,-0.0672 -0.04134,-0.11989 v -1.95957 c 0,-0.0517 0.01344,-0.092 0.04134,-0.11989 0.02688,-0.0269 0.06718,-0.0413 0.119888,-0.0413 h 0.624251 c 0.372071,0 0.658361,0.0982 0.859895,0.29353 0.203606,0.19637 0.305926,0.47852 0.305926,0.84749 0,0.1819 -0.02688,0.3452 -0.07855,0.48782 -0.05271,0.14367 -0.128161,0.26355 -0.22738,0.35967 -0.09922,0.094 -0.221174,0.16743 -0.363802,0.21911 -0.143658,0.0496 -0.309022,0.0744 -0.496093,0.0744 z m 0.136426,-0.25631 h 0.467155 c 0.145729,0 0.272853,-0.0176 0.380341,-0.0537 0.109551,-0.0351 0.200504,-0.0909 0.272849,-0.16537 0.07131,-0.0744 0.125059,-0.1664 0.16123,-0.27698 0.03824,-0.10956 0.05788,-0.23978 0.05788,-0.38861 0,-0.29766 -0.07338,-0.51883 -0.21911,-0.66559 -0.14676,-0.14573 -0.363803,-0.21911 -0.65319,-0.21911 h -0.467155 z m 4.059699,0.25631 c -0.05271,0 -0.09302,-0.0134 -0.119888,-0.0413 -0.0279,-0.0269 -0.04134,-0.0672 -0.04134,-0.11989 v -1.95957 c 0,-0.0517 0.01344,-0.092 0.04134,-0.11989 0.02688,-0.0269 0.06718,-0.0413 0.119888,-0.0413 h 1.190625 c 0.04134,0 0.07235,0.0114 0.09509,0.0331 0.0217,0.0196 0.03306,0.0486 0.03306,0.0868 0,0.0413 -0.01136,0.0734 -0.03306,0.0951 -0.02275,0.0196 -0.05375,0.0289 -0.09509,0.0289 h -1.062464 v 0.75654 h 0.992188 c 0.04134,0 0.07234,0.0114 0.09508,0.0331 0.0217,0.0227 0.03305,0.0527 0.03305,0.091 0,0.0413 -0.01136,0.0724 -0.03305,0.0909 -0.02275,0.0196 -0.05375,0.0289 -0.09508,0.0289 h -0.992188 v 0.78962 h 1.062464 c 0.04134,0 0.07235,0.0114 0.09509,0.0331 0.0217,0.0196 0.03306,0.0496 0.03306,0.091 0,0.0413 -0.01136,0.0734 -0.03306,0.0951 -0.02275,0.0196 -0.05375,0.0289 -0.09509,0.0289 z m 0,0"
       style="fill:#022533;fill-opacity:1;fill-rule:nonzero;stroke:none;stroke-width:0.352778"
       aria-label="UNIDAD NACIONAL DE" />
    <path
       id="path518"
       d="m 58.732037,114.8837 c -0.06614,0 -0.117822,-0.0186 -0.152962,-0.0537 -0.03617,-0.0382 -0.05374,-0.091 -0.05374,-0.1571 v -1.88516 c 0,-0.0682 0.01757,-0.12092 0.05374,-0.15709 0.03824,-0.0351 0.09095,-0.0538 0.157097,-0.0538 h 0.781347 c 0.250114,0 0.443384,0.0641 0.578776,0.19017 0.134359,0.12403 0.202572,0.29766 0.202572,0.5209 0,0.22634 -0.06821,0.40308 -0.202572,0.52917 -0.135392,0.12402 -0.328662,0.18603 -0.578776,0.18603 h -0.574642 v 0.66973 c 0,0.0661 -0.0186,0.11886 -0.05374,0.1571 -0.03617,0.0351 -0.08888,0.0537 -0.157097,0.0537 z m 0.21084,-1.20716 h 0.508496 c 0.145728,0 0.256315,-0.0331 0.330729,-0.0992 0.07648,-0.0661 0.115756,-0.16226 0.115756,-0.28939 0,-0.12609 -0.03927,-0.22117 -0.115756,-0.28525 -0.07441,-0.0661 -0.185001,-0.0992 -0.330729,-0.0992 h -0.508496 z m 3.677295,1.20716 c -0.06615,0 -0.117822,-0.0186 -0.152962,-0.0537 -0.03617,-0.0382 -0.05374,-0.091 -0.05374,-0.1571 v -1.88516 c 0,-0.0682 0.01757,-0.12092 0.05374,-0.15709 0.03824,-0.0351 0.09095,-0.0538 0.157096,-0.0538 h 0.781348 c 0.250114,0 0.443383,0.061 0.578776,0.1819 0.134359,0.11886 0.202571,0.28526 0.202571,0.50023 0,0.14056 -0.031,0.26252 -0.09095,0.3638 -0.06098,0.10232 -0.150895,0.18087 -0.268718,0.23565 -0.115755,0.0527 -0.256315,0.0785 -0.421679,0.0785 l 0.02894,-0.0496 h 0.107487 c 0.08785,0 0.165364,0.0227 0.23151,0.0661 0.06615,0.0413 0.124024,0.10956 0.173633,0.20258 l 0.239779,0.45061 c 0.02687,0.0444 0.03927,0.0889 0.03721,0.1323 -0.0031,0.0444 -0.01964,0.0806 -0.04961,0.10748 -0.03101,0.0248 -0.07441,0.0372 -0.132291,0.0372 -0.05788,0 -0.106454,-0.0124 -0.144694,-0.0372 -0.03617,-0.0248 -0.06821,-0.063 -0.09508,-0.11575 l -0.326594,-0.59945 c -0.03927,-0.0744 -0.08475,-0.12402 -0.136426,-0.14883 -0.05271,-0.0248 -0.119889,-0.0372 -0.202572,-0.0372 h -0.305924 v 0.7276 c 0,0.0661 -0.0186,0.11886 -0.05374,0.1571 -0.03617,0.0351 -0.08888,0.0537 -0.157096,0.0537 z m 0.21084,-1.24437 h 0.504362 c 0.148828,0 0.260449,-0.03 0.334863,-0.091 0.07648,-0.063 0.115755,-0.15503 0.115755,-0.27699 0,-0.12092 -0.03927,-0.21187 -0.115755,-0.27285 -0.07441,-0.063 -0.186035,-0.0951 -0.334863,-0.0951 h -0.504362 z m 4.590934,1.25264 c -0.221175,0 -0.413412,-0.0475 -0.578776,-0.1447 -0.165365,-0.0992 -0.293522,-0.23564 -0.384473,-0.40927 -0.09095,-0.1757 -0.136425,-0.38241 -0.136425,-0.62012 0,-0.1788 0.02584,-0.34003 0.07855,-0.48369 0.05168,-0.14573 0.12609,-0.26975 0.223242,-0.37207 0.09612,-0.10129 0.21084,-0.17984 0.343131,-0.23565 0.134359,-0.0548 0.286288,-0.0827 0.454753,-0.0827 0.220141,0 0.411344,0.0486 0.574642,0.14469 0.165364,0.0972 0.293522,0.23358 0.384472,0.40928 0.09095,0.17363 0.136426,0.37931 0.136426,0.61599 0,0.17983 -0.02687,0.34209 -0.07855,0.48782 -0.04961,0.14366 -0.12299,0.26768 -0.219108,0.37207 -0.09715,0.10232 -0.212907,0.18087 -0.347266,0.23565 -0.135392,0.0548 -0.285254,0.0827 -0.450618,0.0827 z m 0,-0.35554 c 0.14056,0 0.258382,-0.031 0.355534,-0.0951 0.09922,-0.0661 0.174666,-0.16123 0.227376,-0.28525 0.05168,-0.12403 0.07855,-0.26976 0.07855,-0.43822 0,-0.25838 -0.05788,-0.45992 -0.173632,-0.60358 -0.115756,-0.14263 -0.279053,-0.21498 -0.487826,-0.21498 -0.138493,0 -0.256315,0.032 -0.355534,0.0951 -0.09922,0.0641 -0.176733,0.1571 -0.23151,0.28112 -0.05271,0.12196 -0.07855,0.26872 -0.07855,0.44235 0,0.25631 0.05788,0.45785 0.173633,0.60358 0.117822,0.14366 0.282153,0.21497 0.49196,0.21497 z m 3.915006,0.34727 c -0.06925,0 -0.121956,-0.0186 -0.157096,-0.0537 -0.03617,-0.0382 -0.05374,-0.091 -0.05374,-0.1571 v -1.74873 h -0.628385 c -0.05788,0 -0.102319,-0.0145 -0.132292,-0.0455 -0.03101,-0.0331 -0.04548,-0.0765 -0.04548,-0.13229 0,-0.0548 0.01447,-0.0961 0.04548,-0.12402 0.02997,-0.03 0.07442,-0.0455 0.132292,-0.0455 h 1.674316 c 0.05788,0 0.101286,0.0155 0.132292,0.0455 0.02997,0.0279 0.04548,0.0693 0.04548,0.12402 0,0.0558 -0.0155,0.0992 -0.04548,0.13229 -0.03101,0.031 -0.07441,0.0455 -0.132292,0.0455 h -0.628385 v 1.74873 c 0,0.0661 -0.0186,0.11886 -0.05374,0.1571 -0.03307,0.0351 -0.08475,0.0537 -0.152962,0.0537 z m 3.251481,-0.0248 c -0.07235,0 -0.127124,-0.0176 -0.165365,-0.0537 -0.03927,-0.0382 -0.05788,-0.093 -0.05788,-0.16536 v -1.84382 c 0,-0.0713 0.0186,-0.12506 0.05788,-0.16123 0.03824,-0.0382 0.09302,-0.0579 0.165365,-0.0579 h 1.153418 c 0.05478,0 0.09612,0.0145 0.124024,0.0413 0.02997,0.0279 0.04547,0.0682 0.04547,0.11989 0,0.0558 -0.01551,0.0982 -0.04547,0.12816 -0.02791,0.0279 -0.06925,0.0413 -0.124024,0.0413 H 74.7662 v 0.62839 h 0.905371 c 0.05478,0 0.09612,0.0145 0.124023,0.0413 0.02997,0.0279 0.04548,0.0692 0.04548,0.12402 0,0.0527 -0.01551,0.094 -0.04548,0.12403 -0.0279,0.0279 -0.06925,0.0413 -0.124023,0.0413 H 74.7662 v 0.66146 h 0.975651 c 0.05478,0 0.09612,0.0145 0.124024,0.0413 0.02997,0.0279 0.04547,0.0692 0.04547,0.12402 0,0.0558 -0.01551,0.0971 -0.04547,0.12402 -0.02791,0.0279 -0.06925,0.0413 -0.124024,0.0413 z m 4.546492,0.0331 c -0.237711,0 -0.441316,-0.0475 -0.611849,-0.1447 -0.168465,-0.0961 -0.297656,-0.23151 -0.388606,-0.40514 -0.09095,-0.1757 -0.136426,-0.38447 -0.136426,-0.62425 0,-0.1788 0.02584,-0.34003 0.07855,-0.48369 0.05168,-0.14573 0.12609,-0.26975 0.223242,-0.37207 0.09612,-0.10129 0.214974,-0.17984 0.355534,-0.23565 0.142627,-0.0548 0.302824,-0.0827 0.479557,-0.0827 0.117823,0 0.233578,0.0155 0.347266,0.0455 0.115755,0.031 0.217041,0.0734 0.305924,0.12815 0.04341,0.031 0.07235,0.0661 0.08682,0.10749 0.01654,0.0393 0.02067,0.0775 0.0124,0.11576 -0.0083,0.0362 -0.02687,0.0682 -0.05374,0.0951 -0.0279,0.0248 -0.06201,0.0393 -0.103353,0.0413 -0.03927,0.003 -0.08165,-0.0103 -0.128157,-0.0413 -0.06615,-0.0413 -0.139527,-0.0713 -0.219108,-0.0909 -0.07752,-0.0217 -0.156063,-0.0331 -0.235645,-0.0331 -0.151928,0 -0.28112,0.032 -0.388607,0.0951 -0.10542,0.0641 -0.185001,0.15503 -0.239778,0.27285 -0.05271,0.11886 -0.07855,0.26459 -0.07855,0.43822 0,0.16846 0.02584,0.31316 0.07855,0.43408 0.05478,0.12196 0.134358,0.21394 0.239778,0.27699 0.107487,0.0641 0.236679,0.0951 0.388607,0.0951 0.08268,0 0.163298,-0.009 0.243913,-0.0289 0.07958,-0.0217 0.155029,-0.0548 0.227376,-0.0992 0.04651,-0.0269 0.08785,-0.0393 0.124024,-0.0372 0.03824,0.003 0.07028,0.0165 0.09508,0.0413 0.02687,0.0227 0.04547,0.0517 0.05374,0.0868 0.0083,0.0362 0.0052,0.0734 -0.0083,0.11163 -0.01137,0.0393 -0.03617,0.0723 -0.07441,0.0992 -0.08578,0.0641 -0.189137,0.11163 -0.31006,0.1447 -0.118855,0.0331 -0.239778,0.0496 -0.363802,0.0496 z m 3.905705,0 c -0.237712,0 -0.441317,-0.0475 -0.611849,-0.1447 -0.168465,-0.0961 -0.297656,-0.23151 -0.388607,-0.40514 -0.09095,-0.1757 -0.136426,-0.38447 -0.136426,-0.62425 0,-0.1788 0.02584,-0.34003 0.07855,-0.48369 0.05168,-0.14573 0.12609,-0.26975 0.223242,-0.37207 0.09612,-0.10129 0.214974,-0.17984 0.355534,-0.23565 0.142627,-0.0548 0.302824,-0.0827 0.479557,-0.0827 0.117822,0 0.233577,0.0155 0.347266,0.0455 0.115755,0.031 0.217041,0.0734 0.305924,0.12815 0.04341,0.031 0.07235,0.0661 0.08682,0.10749 0.01653,0.0393 0.02067,0.0775 0.0124,0.11576 -0.0083,0.0362 -0.02687,0.0682 -0.05374,0.0951 -0.0279,0.0248 -0.06201,0.0393 -0.103353,0.0413 -0.03927,0.003 -0.08165,-0.0103 -0.128158,-0.0413 -0.06615,-0.0413 -0.139526,-0.0713 -0.219108,-0.0909 -0.07751,-0.0217 -0.156062,-0.0331 -0.235644,-0.0331 -0.151929,0 -0.28112,0.032 -0.388607,0.0951 -0.10542,0.0641 -0.185002,0.15503 -0.239779,0.27285 -0.05271,0.11886 -0.07855,0.26459 -0.07855,0.43822 0,0.16846 0.02584,0.31316 0.07855,0.43408 0.05478,0.12196 0.134359,0.21394 0.239779,0.27699 0.107487,0.0641 0.236678,0.0951 0.388607,0.0951 0.08268,0 0.163297,-0.009 0.243912,-0.0289 0.07958,-0.0217 0.15503,-0.0548 0.227377,-0.0992 0.04651,-0.0269 0.08785,-0.0393 0.124023,-0.0372 0.03824,0.003 0.07028,0.0165 0.09508,0.0413 0.02687,0.0227 0.04547,0.0517 0.05374,0.0868 0.0083,0.0362 0.0052,0.0734 -0.0083,0.11163 -0.01137,0.0393 -0.03617,0.0723 -0.07441,0.0992 -0.08578,0.0641 -0.189136,0.11163 -0.310059,0.1447 -0.118856,0.0331 -0.239779,0.0496 -0.363802,0.0496 z m 3.123323,-0.008 c -0.06615,0 -0.117822,-0.0186 -0.152962,-0.0537 -0.03617,-0.0382 -0.05374,-0.091 -0.05374,-0.1571 v -1.90996 c 0,-0.0682 0.01757,-0.12092 0.05374,-0.1571 0.03514,-0.0351 0.08682,-0.0537 0.152962,-0.0537 0.06821,0 0.120923,0.0186 0.157097,0.0537 0.03514,0.0362 0.05374,0.0889 0.05374,0.1571 v 1.90996 c 0,0.0661 -0.0186,0.11886 -0.05374,0.1571 -0.03617,0.0351 -0.08888,0.0537 -0.157097,0.0537 z m 3.509864,0.008 c -0.221176,0 -0.413412,-0.0475 -0.578776,-0.1447 -0.165365,-0.0992 -0.293523,-0.23564 -0.384473,-0.40927 -0.09095,-0.1757 -0.136426,-0.38241 -0.136426,-0.62012 0,-0.1788 0.02584,-0.34003 0.07855,-0.48369 0.05168,-0.14573 0.126091,-0.26975 0.223242,-0.37207 0.09612,-0.10129 0.21084,-0.17984 0.343132,-0.23565 0.134359,-0.0548 0.286287,-0.0827 0.454753,-0.0827 0.220141,0 0.411344,0.0486 0.574641,0.14469 0.165365,0.0972 0.293522,0.23358 0.384473,0.40928 0.09095,0.17363 0.136426,0.37931 0.136426,0.61599 0,0.17983 -0.02687,0.34209 -0.07855,0.48782 -0.04961,0.14366 -0.122989,0.26768 -0.219107,0.37207 -0.09715,0.10232 -0.212907,0.18087 -0.347266,0.23565 -0.135392,0.0548 -0.285254,0.0827 -0.450619,0.0827 z m 0,-0.35554 c 0.140559,0 0.258382,-0.031 0.355533,-0.0951 0.09922,-0.0661 0.174667,-0.16123 0.227377,-0.28525 0.05168,-0.12403 0.07855,-0.26976 0.07855,-0.43822 0,-0.25838 -0.05788,-0.45992 -0.173633,-0.60358 -0.115755,-0.14263 -0.279053,-0.21498 -0.487825,-0.21498 -0.138493,0 -0.256316,0.032 -0.355534,0.0951 -0.09922,0.0641 -0.176734,0.1571 -0.231511,0.28112 -0.05271,0.12196 -0.07855,0.26872 -0.07855,0.44235 0,0.25631 0.05788,0.45785 0.173633,0.60358 0.117822,0.14366 0.282153,0.21497 0.49196,0.21497 z m 0.16123,-2.17454 c -0.0248,0.0279 -0.05374,0.0434 -0.08682,0.0455 -0.03101,0 -0.05788,-0.008 -0.08268,-0.0248 -0.0248,-0.0186 -0.04134,-0.0424 -0.04961,-0.0703 -0.0083,-0.0269 -0.0031,-0.0558 0.01653,-0.0868 l 0.252181,-0.37207 c 0.0248,-0.0382 0.05374,-0.0599 0.08682,-0.0661 0.03307,-0.008 0.06615,-0.006 0.09922,0.004 0.03307,0.0114 0.05891,0.0289 0.07855,0.0537 0.0217,0.0248 0.03307,0.0537 0.03307,0.0868 0.0021,0.031 -0.01034,0.061 -0.03721,0.091 z m 3.326928,2.52181 c -0.06098,0 -0.109554,-0.0165 -0.144694,-0.0496 -0.03307,-0.0351 -0.04961,-0.0847 -0.04961,-0.14883 v -1.9265 c 0,-0.0661 0.01654,-0.11678 0.04961,-0.15296 0.03514,-0.0351 0.07958,-0.0537 0.132292,-0.0537 0.04961,0 0.08682,0.0103 0.111621,0.0289 0.0248,0.0165 0.05478,0.0475 0.09095,0.0909 l 1.240235,1.60817 h -0.08682 v -1.53376 c 0,-0.0599 0.01655,-0.10748 0.04961,-0.14056 0.03306,-0.0351 0.08061,-0.0537 0.144696,-0.0537 0.06305,0 0.109551,0.0186 0.140557,0.0537 0.03306,0.0331 0.04961,0.0806 0.04961,0.14056 v 1.94304 c 0,0.061 -0.01549,0.10955 -0.04548,0.14469 -0.03101,0.0331 -0.07028,0.0496 -0.119888,0.0496 -0.04961,0 -0.08992,-0.0103 -0.119892,-0.0289 -0.02791,-0.0186 -0.05994,-0.0496 -0.09508,-0.0909 l -1.2361,-1.6123 h 0.07855 v 1.53375 c 0,0.0641 -0.01653,0.11369 -0.04961,0.14883 -0.03101,0.0331 -0.07751,0.0496 -0.14056,0.0496 z m 0,0"
       style="fill:#cd3c47;fill-opacity:1;fill-rule:nonzero;stroke:none;stroke-width:0.352778"
       aria-label=" PROTECCIÓN" />
  </g>
</svg>
