<?xml version="1.0" encoding="UTF-8" standalone="no"?>
<!-- Created with Inkscape (http://www.inkscape.org/) -->

<svg
   width="37.804722mm"
   height="45.31501mm"
   viewBox="0 0 37.804722 45.31501"
   version="1.1"
   id="svg1"
   xmlns:inkscape="http://www.inkscape.org/namespaces/inkscape"
   xmlns:sodipodi="http://sodipodi.sourceforge.net/DTD/sodipodi-0.dtd"
   xmlns="http://www.w3.org/2000/svg"
   xmlns:svg="http://www.w3.org/2000/svg">
  <sodipodi:namedview
     id="namedview1"
     pagecolor="#ffffff"
     bordercolor="#000000"
     borderopacity="0.25"
     inkscape:showpageshadow="2"
     inkscape:pageopacity="0.0"
     inkscape:pagecheckerboard="0"
     inkscape:deskcolor="#d1d1d1"
     inkscape:document-units="mm" />
  <defs
     id="defs1">
    <clipPath
       clipPathUnits="userSpaceOnUse"
       id="clipPath869">
      <path
         d="M 0,950 H 666 V 0 H 0 Z"
         transform="translate(-386.58128,-693.01662)"
         id="path869" />
    </clipPath>
    <clipPath
       clipPathUnits="userSpaceOnUse"
       id="clipPath871">
      <path
         d="M 0,950 H 666 V 0 H 0 Z"
         transform="translate(-349.49611,-619.77312)"
         id="path871" />
    </clipPath>
    <clipPath
       clipPathUnits="userSpaceOnUse"
       id="clipPath873">
      <path
         d="M 0,950 H 666 V 0 H 0 Z"
         transform="translate(-354.25808,-663.11302)"
         id="path873" />
    </clipPath>
    <clipPath
       clipPathUnits="userSpaceOnUse"
       id="clipPath875">
      <path
         d="M 0,950 H 666 V 0 H 0 Z"
         transform="translate(-356.56613,-664.56451)"
         id="path875" />
    </clipPath>
    <clipPath
       clipPathUnits="userSpaceOnUse"
       id="clipPath877">
      <path
         d="M 0,950 H 666 V 0 H 0 Z"
         transform="translate(-366.13973,-652.08151)"
         id="path877" />
    </clipPath>
    <clipPath
       clipPathUnits="userSpaceOnUse"
       id="clipPath879">
      <path
         d="M 0,950 H 666 V 0 H 0 Z"
         transform="translate(-364.04851,-652.83312)"
         id="path879" />
    </clipPath>
    <clipPath
       clipPathUnits="userSpaceOnUse"
       id="clipPath881">
      <path
         d="M 0,950 H 666 V 0 H 0 Z"
         transform="translate(-366.35618,-654.28482)"
         id="path881" />
    </clipPath>
    <clipPath
       clipPathUnits="userSpaceOnUse"
       id="clipPath883">
      <path
         d="M 0,950 H 666 V 0 H 0 Z"
         transform="translate(-354.25778,-646.43401)"
         id="path883" />
    </clipPath>
    <clipPath
       clipPathUnits="userSpaceOnUse"
       id="clipPath885">
      <path
         d="M 0,950 H 666 V 0 H 0 Z"
         transform="translate(-352.29998,-646.46932)"
         id="path885" />
    </clipPath>
    <clipPath
       clipPathUnits="userSpaceOnUse"
       id="clipPath887">
      <path
         d="M 0,950 H 666 V 0 H 0 Z"
         transform="translate(-354.60773,-647.92092)"
         id="path887" />
    </clipPath>
    <clipPath
       clipPathUnits="userSpaceOnUse"
       id="clipPath889">
      <path
         d="M 0,950 H 666 V 0 H 0 Z"
         transform="translate(-359.65208,-673.16521)"
         id="path889" />
    </clipPath>
    <clipPath
       clipPathUnits="userSpaceOnUse"
       id="clipPath891">
      <path
         d="M 0,950 H 666 V 0 H 0 Z"
         transform="translate(-363.06953,-680.49112)"
         id="path891" />
    </clipPath>
    <clipPath
       clipPathUnits="userSpaceOnUse"
       id="clipPath893">
      <path
         d="M 0,950 H 666 V 0 H 0 Z"
         transform="translate(-365.37811,-681.94252)"
         id="path893" />
    </clipPath>
    <clipPath
       clipPathUnits="userSpaceOnUse"
       id="clipPath895">
      <path
         d="M 0,950 H 666 V 0 H 0 Z"
         transform="translate(-348.38378,-619.05601)"
         id="path895" />
    </clipPath>
    <clipPath
       clipPathUnits="userSpaceOnUse"
       id="clipPath897">
      <path
         d="M 0,950 H 666 V 0 H 0 Z"
         transform="translate(-350.69191,-620.50812)"
         id="path897" />
    </clipPath>
    <clipPath
       clipPathUnits="userSpaceOnUse"
       id="clipPath899">
      <path
         d="M 0,950 H 666 V 0 H 0 Z"
         transform="translate(-316.28573,-619.77312)"
         id="path899" />
    </clipPath>
    <clipPath
       clipPathUnits="userSpaceOnUse"
       id="clipPath901">
      <path
         d="M 0,950 H 666 V 0 H 0 Z"
         transform="translate(-305.15993,-668.49781)"
         id="path901" />
    </clipPath>
    <clipPath
       clipPathUnits="userSpaceOnUse"
       id="clipPath903">
      <path
         d="M 0,950 H 666 V 0 H 0 Z"
         transform="translate(-302.85181,-669.94921)"
         id="path903" />
    </clipPath>
    <clipPath
       clipPathUnits="userSpaceOnUse"
       id="clipPath905">
      <path
         d="M 0,950 H 666 V 0 H 0 Z"
         transform="translate(-327.05513,-652.08151)"
         id="path905" />
    </clipPath>
    <clipPath
       clipPathUnits="userSpaceOnUse"
       id="clipPath907">
      <path
         d="M 0,950 H 666 V 0 H 0 Z"
         transform="translate(-301.73318,-652.83312)"
         id="path907" />
    </clipPath>
    <clipPath
       clipPathUnits="userSpaceOnUse"
       id="clipPath909">
      <path
         d="M 0,950 H 666 V 0 H 0 Z"
         transform="translate(-299.42461,-654.28482)"
         id="path909" />
    </clipPath>
    <clipPath
       clipPathUnits="userSpaceOnUse"
       id="clipPath911">
      <path
         d="M 0,950 H 666 V 0 H 0 Z"
         transform="translate(-311.52398,-646.43401)"
         id="path911" />
    </clipPath>
    <clipPath
       clipPathUnits="userSpaceOnUse"
       id="clipPath913">
      <path
         d="M 0,950 H 666 V 0 H 0 Z"
         transform="translate(-313.48178,-646.46932)"
         id="path913" />
    </clipPath>
    <clipPath
       clipPathUnits="userSpaceOnUse"
       id="clipPath915">
      <path
         d="M 0,950 H 666 V 0 H 0 Z"
         transform="translate(-311.17313,-647.92092)"
         id="path915" />
    </clipPath>
    <clipPath
       clipPathUnits="userSpaceOnUse"
       id="clipPath917">
      <path
         d="M 0,950 H 666 V 0 H 0 Z"
         transform="translate(-317.39791,-619.05601)"
         id="path917" />
    </clipPath>
    <clipPath
       clipPathUnits="userSpaceOnUse"
       id="clipPath919">
      <path
         d="M 0,950 H 666 V 0 H 0 Z"
         transform="translate(-315.09001,-620.50812)"
         id="path919" />
    </clipPath>
    <clipPath
       clipPathUnits="userSpaceOnUse"
       id="clipPath921">
      <path
         d="M 0,950 H 666 V 0 H 0 Z"
         transform="translate(-333.55868,-666.71502)"
         id="path921" />
    </clipPath>
    <clipPath
       clipPathUnits="userSpaceOnUse"
       id="clipPath923">
      <path
         d="M 0,950 H 666 V 0 H 0 Z"
         transform="translate(-333.48083,-677.48482)"
         id="path923" />
    </clipPath>
    <clipPath
       clipPathUnits="userSpaceOnUse"
       id="clipPath925">
      <path
         d="M 0,950 H 666 V 0 H 0 Z"
         transform="translate(-355.86001,-669.70432)"
         id="path925" />
    </clipPath>
    <clipPath
       clipPathUnits="userSpaceOnUse"
       id="clipPath927">
      <path
         d="M 0,950 H 666 V 0 H 0 Z"
         transform="translate(-322.08218,-679.00542)"
         id="path927" />
    </clipPath>
    <clipPath
       clipPathUnits="userSpaceOnUse"
       id="clipPath929">
      <path
         d="M 0,950 H 666 V 0 H 0 Z"
         transform="translate(-348.20648,-679.98462)"
         id="path929" />
    </clipPath>
    <clipPath
       clipPathUnits="userSpaceOnUse"
       id="clipPath931">
      <path
         d="M 0,950 H 666 V 0 H 0 Z"
         transform="translate(-310.82318,-652.57122)"
         id="path931" />
    </clipPath>
    <clipPath
       clipPathUnits="userSpaceOnUse"
       id="clipPath933">
      <path
         d="M 0,950 H 666 V 0 H 0 Z"
         transform="translate(-316.69748,-662.85142)"
         id="path933" />
    </clipPath>
    <clipPath
       clipPathUnits="userSpaceOnUse"
       id="clipPath935">
      <path
         d="M 0,950 H 666 V 0 H 0 Z"
         transform="translate(-353.76848,-688.81291)"
         id="path935" />
    </clipPath>
    <clipPath
       clipPathUnits="userSpaceOnUse"
       id="clipPath937">
      <path
         d="M 0,950 H 666 V 0 H 0 Z"
         transform="translate(-356.07653,-690.26431)"
         id="path937" />
    </clipPath>
    <clipPath
       clipPathUnits="userSpaceOnUse"
       id="clipPath939">
      <path
         d="M 0,950 H 666 V 0 H 0 Z"
         transform="translate(-333.41888,-672.58921)"
         id="path939" />
    </clipPath>
    <clipPath
       clipPathUnits="userSpaceOnUse"
       id="clipPath941">
      <path
         d="M 0,950 H 666 V 0 H 0 Z"
         transform="translate(-333.41888,-659.37241)"
         id="path941" />
    </clipPath>
    <clipPath
       clipPathUnits="userSpaceOnUse"
       id="clipPath943">
      <path
         d="M 0,950 H 666 V 0 H 0 Z"
         transform="translate(-310.68413,-683.91772)"
         id="path943" />
    </clipPath>
    <clipPath
       clipPathUnits="userSpaceOnUse"
       id="clipPath945">
      <path
         d="M 0,950 H 666 V 0 H 0 Z"
         transform="translate(-308.37631,-685.36932)"
         id="path945" />
    </clipPath>
    <clipPath
       clipPathUnits="userSpaceOnUse"
       id="clipPath947">
      <path
         d="M 0,950 H 666 V 0 H 0 Z"
         transform="translate(-328.79641,-667.76352)"
         id="path947" />
    </clipPath>
    <clipPath
       clipPathUnits="userSpaceOnUse"
       id="clipPath949">
      <path
         d="M 0,950 H 666 V 0 H 0 Z"
         transform="translate(-326.48858,-669.21532)"
         id="path949" />
    </clipPath>
    <clipPath
       clipPathUnits="userSpaceOnUse"
       id="clipPath951">
      <path
         d="M 0,950 H 666 V 0 H 0 Z"
         transform="translate(-333.55868,-617.81572)"
         id="path951" />
    </clipPath>
    <clipPath
       clipPathUnits="userSpaceOnUse"
       id="clipPath953">
      <path
         d="M 0,950 H 666 V 0 H 0 Z"
         transform="translate(-331.25048,-619.05601)"
         id="path953" />
    </clipPath>
    <clipPath
       clipPathUnits="userSpaceOnUse"
       id="clipPath955">
      <path
         d="M 0,950 H 666 V 0 H 0 Z"
         transform="translate(-333.55868,-620.50812)"
         id="path955" />
    </clipPath>
    <clipPath
       clipPathUnits="userSpaceOnUse"
       id="clipPath957">
      <path
         d="M 0,950 H 666 V 0 H 0 Z"
         transform="translate(-331.25048,-700.31672)"
         id="path957" />
    </clipPath>
    <clipPath
       clipPathUnits="userSpaceOnUse"
       id="clipPath959">
      <path
         d="M 0,950 H 666 V 0 H 0 Z"
         transform="translate(-333.55868,-701.76862)"
         id="path959" />
    </clipPath>
    <clipPath
       clipPathUnits="userSpaceOnUse"
       id="clipPath961">
      <path
         d="M 0,950 H 666 V 0 H 0 Z"
         transform="translate(-343.98788,-689.85882)"
         id="path961" />
    </clipPath>
    <clipPath
       clipPathUnits="userSpaceOnUse"
       id="clipPath963">
      <path
         d="M 0,950 H 666 V 0 H 0 Z"
         transform="translate(-343.98788,-689.85882)"
         id="path963" />
    </clipPath>
    <clipPath
       clipPathUnits="userSpaceOnUse"
       id="clipPath965">
      <path
         d="M 0,950 H 666 V 0 H 0 Z"
         transform="translate(-343.69801,-685.95792)"
         id="path965" />
    </clipPath>
  </defs>
  <g
     inkscape:label="Capa 1"
     inkscape:groupmode="layer"
     id="layer1"
     transform="translate(-90.222917,-113.50625)">
    <path
       id="path868"
       d="m 0,0 v -36.105 c 0,-40.172 -38.43,-58.771 -50.208,-63.513 l -3.483,-1.399 -3.349,1.672 c -11.762,5.878 -50.123,27.8 -50.123,63.235 v 36.099 c 0,5.782 3.687,10.894 9.179,12.716 l 44.4,14.73 44.405,-14.72 C -3.687,10.899 0,5.792 0,0.005 Z"
       style="fill:#ffffff;fill-opacity:1;fill-rule:nonzero;stroke:none"
       transform="matrix(0.35277776,0,0,-0.35277776,128.02764,123.18471)"
       clip-path="url(#clipPath869)" />
    <path
       id="path870"
       d="M 0,0 C -0.196,0 -0.394,0.067 -0.555,0.204 L -4.35,3.427 h -6.419 c -0.474,0 -0.857,0.383 -0.857,0.857 V 38.55 c 0,0.242 0.101,0.472 0.281,0.634 l 5.384,4.895 c 0.158,0.143 0.363,0.223 0.576,0.223 H 6.914 c 0.474,0 0.857,-0.384 0.857,-0.857 0,-0.473 -0.383,-0.856 -0.857,-0.856 H -5.054 L -9.913,38.171 V 5.14 h 5.878 c 0.202,0 0.4,-0.072 0.554,-0.203 L 0.555,1.509 C 0.915,1.203 0.959,0.662 0.653,0.302 0.483,0.102 0.242,0 0,0"
       style="fill:#022533;fill-opacity:1;fill-rule:nonzero;stroke:none"
       transform="matrix(0.35277776,0,0,-0.35277776,114.94481,149.02339)"
       clip-path="url(#clipPath871)" />
    <path
       id="path872"
       d="m 0,0 c 0,-1.275 1.033,-2.308 2.308,-2.308 1.275,0 2.308,1.033 2.308,2.308 0,1.275 -1.033,2.308 -2.308,2.308 C 1.033,2.308 0,1.275 0,0"
       style="fill:#ffffff;fill-opacity:1;fill-rule:nonzero;stroke:none"
       transform="matrix(0.35277776,0,0,-0.35277776,116.62473,133.73403)"
       clip-path="url(#clipPath873)" />
    <path
       id="path874"
       d="m 0,0 c -0.8,0 -1.452,-0.651 -1.452,-1.451 0,-0.801 0.652,-1.452 1.452,-1.452 0.8,0 1.452,0.651 1.452,1.452 C 1.452,-0.651 0.8,0 0,0 m 0,-4.616 c -1.745,0 -3.165,1.42 -3.165,3.165 0,1.745 1.42,3.164 3.165,3.164 1.745,0 3.165,-1.419 3.165,-3.164 0,-1.745 -1.42,-3.165 -3.165,-3.165"
       style="fill:#022533;fill-opacity:1;fill-rule:nonzero;stroke:none"
       transform="matrix(0.35277776,0,0,-0.35277776,117.43896,133.22198)"
       clip-path="url(#clipPath875)" />
    <path
       id="path876"
       d="m 0,0 h -27.413 c -0.474,0 -0.856,0.383 -0.856,0.857 0,0.473 0.382,0.856 0.856,0.856 H 0 C 0.474,1.713 0.857,1.33 0.857,0.857 0.857,0.383 0.474,0 0,0"
       style="fill:#022533;fill-opacity:1;fill-rule:nonzero;stroke:none"
       transform="matrix(0.35277776,0,0,-0.35277776,120.81631,137.6257)"
       clip-path="url(#clipPath877)" />
    <path
       id="path878"
       d="m 0,0 c 0,-1.275 1.033,-2.308 2.308,-2.308 1.275,0 2.308,1.033 2.308,2.308 0,1.275 -1.033,2.308 -2.308,2.308 C 1.033,2.308 0,1.275 0,0"
       style="fill:#ffffff;fill-opacity:1;fill-rule:nonzero;stroke:none"
       transform="matrix(0.35277776,0,0,-0.35277776,120.07858,137.36055)"
       clip-path="url(#clipPath879)" />
    <path
       id="path880"
       d="m 0,0 c -0.8,0 -1.451,-0.651 -1.451,-1.452 0,-0.8 0.651,-1.452 1.451,-1.452 0.8,0 1.452,0.652 1.452,1.452 C 1.452,-0.651 0.8,0 0,0 m 0,-4.617 c -1.745,0 -3.164,1.42 -3.164,3.165 0,1.745 1.419,3.165 3.164,3.165 1.745,0 3.165,-1.42 3.165,-3.165 0,-1.745 -1.42,-3.165 -3.165,-3.165"
       style="fill:#022533;fill-opacity:1;fill-rule:nonzero;stroke:none"
       transform="matrix(0.35277776,0,0,-0.35277776,120.89267,136.84842)"
       clip-path="url(#clipPath881)" />
    <path
       id="path882"
       d="m 0,0 c -0.226,0 -0.452,0.089 -0.621,0.266 l -5.375,5.648 c -0.326,0.342 -0.312,0.885 0.03,1.21 0.343,0.326 0.885,0.314 1.212,-0.029 L 0.621,1.447 C 0.947,1.105 0.933,0.562 0.591,0.236 0.425,0.078 0.212,0 0,0"
       style="fill:#022533;fill-opacity:1;fill-rule:nonzero;stroke:none"
       transform="matrix(0.35277776,0,0,-0.35277776,116.62463,139.61801)"
       clip-path="url(#clipPath883)" />
    <path
       id="path884"
       d="m 0,0 c 0,-1.275 1.033,-2.308 2.308,-2.308 1.275,0 2.308,1.033 2.308,2.308 0,1.275 -1.033,2.308 -2.308,2.308 C 1.033,2.308 0,1.275 0,0"
       style="fill:#ffffff;fill-opacity:1;fill-rule:nonzero;stroke:none"
       transform="matrix(0.35277776,0,0,-0.35277776,115.93396,139.60556)"
       clip-path="url(#clipPath885)" />
    <path
       id="path886"
       d="m 0,0 c -0.8,0 -1.451,-0.651 -1.451,-1.452 0,-0.8 0.651,-1.451 1.451,-1.451 0.8,0 1.452,0.651 1.452,1.451 C 1.452,-0.651 0.8,0 0,0 m 0,-4.616 c -1.745,0 -3.164,1.419 -3.164,3.164 0,1.745 1.419,3.165 3.164,3.165 1.745,0 3.165,-1.42 3.165,-3.165 0,-1.745 -1.42,-3.164 -3.165,-3.164"
       style="fill:#022533;fill-opacity:1;fill-rule:nonzero;stroke:none"
       transform="matrix(0.35277776,0,0,-0.35277776,116.74808,139.09347)"
       clip-path="url(#clipPath887)" />
    <path
       id="path888"
       d="m 0,0 c -0.212,0 -0.425,0.078 -0.591,0.236 -0.342,0.326 -0.356,0.869 -0.03,1.211 L 4.754,7.095 C 5.082,7.438 5.621,7.45 5.966,7.125 6.308,6.799 6.322,6.257 5.996,5.914 L 0.621,0.266 C 0.452,0.089 0.226,0 0,0"
       style="fill:#022533;fill-opacity:1;fill-rule:nonzero;stroke:none"
       transform="matrix(0.35277776,0,0,-0.35277776,118.52762,130.18784)"
       clip-path="url(#clipPath889)" />
    <path
       id="path890"
       d="M 0,0 C 0,1.275 1.033,2.308 2.308,2.308 3.583,2.308 4.616,1.275 4.616,0 4.616,-1.275 3.583,-2.308 2.308,-2.308 1.033,-2.308 0,-1.275 0,0"
       style="fill:#ffffff;fill-opacity:1;fill-rule:nonzero;stroke:none"
       transform="matrix(0.35277776,0,0,-0.35277776,119.73322,127.60343)"
       clip-path="url(#clipPath891)" />
    <path
       id="path892"
       d="m 0,0 c -0.8,0 -1.452,-0.651 -1.452,-1.451 0,-0.801 0.652,-1.452 1.452,-1.452 0.8,0 1.451,0.651 1.451,1.452 C 1.451,-0.651 0.8,0 0,0 m 0,-4.616 c -1.745,0 -3.165,1.42 -3.165,3.165 0,1.745 1.42,3.164 3.165,3.164 1.745,0 3.164,-1.419 3.164,-3.164 0,-1.745 -1.419,-3.165 -3.164,-3.165"
       style="fill:#022533;fill-opacity:1;fill-rule:nonzero;stroke:none"
       transform="matrix(0.35277776,0,0,-0.35277776,120.54763,127.0914)"
       clip-path="url(#clipPath893)" />
    <path
       id="path894"
       d="m 0,0 c 0,-1.275 1.033,-2.308 2.308,-2.308 1.275,0 2.308,1.033 2.308,2.308 0,1.275 -1.033,2.308 -2.308,2.308 C 1.033,2.308 0,1.275 0,0"
       style="fill:#ffffff;fill-opacity:1;fill-rule:nonzero;stroke:none"
       transform="matrix(0.35277776,0,0,-0.35277776,114.55241,149.27636)"
       clip-path="url(#clipPath895)" />
    <path
       id="path896"
       d="m 0,0 c -0.8,0 -1.452,-0.652 -1.452,-1.452 0,-0.8 0.652,-1.452 1.452,-1.452 0.8,0 1.452,0.652 1.452,1.452 C 1.452,-0.652 0.8,0 0,0 m 0,-4.617 c -1.745,0 -3.165,1.42 -3.165,3.165 0,1.745 1.42,3.165 3.165,3.165 1.745,0 3.165,-1.42 3.165,-3.165 0,-1.745 -1.42,-3.165 -3.165,-3.165"
       style="fill:#022533;fill-opacity:1;fill-rule:nonzero;stroke:none"
       transform="matrix(0.35277776,0,0,-0.35277776,115.36666,148.76409)"
       clip-path="url(#clipPath897)" />
    <path
       id="path898"
       d="m 0,0 c -0.242,0 -0.483,0.102 -0.653,0.302 -0.306,0.36 -0.262,0.901 0.098,1.207 L 3.481,4.937 C 3.635,5.068 3.833,5.14 4.035,5.14 H 9.913 V 38.171 L 5.054,42.589 H -6.914 c -0.179,0 -0.355,0.056 -0.501,0.161 l -6.166,4.44 c -0.384,0.277 -0.472,0.812 -0.195,1.196 0.276,0.382 0.811,0.472 1.195,0.194 l 5.943,-4.278 H 5.385 c 0.213,0 0.418,-0.08 0.576,-0.223 l 5.384,-4.895 c 0.18,-0.162 0.281,-0.392 0.281,-0.634 V 4.284 c 0,-0.474 -0.383,-0.857 -0.857,-0.857 L 4.35,3.427 0.555,0.204 C 0.394,0.067 0.196,0 0,0"
       style="fill:#022533;fill-opacity:1;fill-rule:nonzero;stroke:none"
       transform="matrix(0.35277776,0,0,-0.35277776,103.22893,149.02339)"
       clip-path="url(#clipPath899)" />
    <path
       id="path900"
       d="m 0,0 c 0,-1.275 -1.033,-2.308 -2.308,-2.308 -1.275,0 -2.308,1.033 -2.308,2.308 0,1.275 1.033,2.308 2.308,2.308 C -1.033,2.308 0,1.275 0,0"
       style="fill:#ffffff;fill-opacity:1;fill-rule:nonzero;stroke:none"
       transform="matrix(0.35277776,0,0,-0.35277776,99.303996,131.8344)"
       clip-path="url(#clipPath901)" />
    <path
       id="path902"
       d="m 0,0 c -0.8,0 -1.452,-0.651 -1.452,-1.451 0,-0.801 0.652,-1.452 1.452,-1.452 0.8,0 1.452,0.651 1.452,1.452 C 1.452,-0.651 0.8,0 0,0 m 0,-4.616 c -1.745,0 -3.165,1.42 -3.165,3.165 0,1.745 1.42,3.164 3.165,3.164 1.745,0 3.165,-1.419 3.165,-3.164 0,-1.745 -1.42,-3.165 -3.165,-3.165"
       style="fill:#022533;fill-opacity:1;fill-rule:nonzero;stroke:none"
       transform="matrix(0.35277776,0,0,-0.35277776,98.489741,131.32237)"
       clip-path="url(#clipPath903)" />
    <path
       id="path904"
       d="m 0,0 h -27.413 c -0.474,0 -0.856,0.383 -0.856,0.857 0,0.473 0.382,0.856 0.856,0.856 H 0 C 0.474,1.713 0.857,1.33 0.857,0.857 0.857,0.383 0.474,0 0,0"
       style="fill:#022533;fill-opacity:1;fill-rule:nonzero;stroke:none"
       transform="matrix(0.35277776,0,0,-0.35277776,107.02814,137.6257)"
       clip-path="url(#clipPath905)" />
    <path
       id="path906"
       d="m 0,0 c 0,-1.275 -1.033,-2.308 -2.308,-2.308 -1.275,0 -2.308,1.033 -2.308,2.308 0,1.275 1.033,2.308 2.308,2.308 C -1.033,2.308 0,1.275 0,0"
       style="fill:#ffffff;fill-opacity:1;fill-rule:nonzero;stroke:none"
       transform="matrix(0.35277776,0,0,-0.35277776,98.095115,137.36055)"
       clip-path="url(#clipPath907)" />
    <path
       id="path908"
       d="m 0,0 c -0.8,0 -1.451,-0.651 -1.451,-1.452 0,-0.8 0.651,-1.452 1.451,-1.452 0.8,0 1.452,0.652 1.452,1.452 C 1.452,-0.651 0.8,0 0,0 m 0,-4.617 c -1.745,0 -3.164,1.42 -3.164,3.165 0,1.745 1.419,3.165 3.164,3.165 1.745,0 3.165,-1.42 3.165,-3.165 0,-1.745 -1.42,-3.165 -3.165,-3.165"
       style="fill:#022533;fill-opacity:1;fill-rule:nonzero;stroke:none"
       transform="matrix(0.35277776,0,0,-0.35277776,97.280701,136.84842)"
       clip-path="url(#clipPath909)" />
    <path
       id="path910"
       d="m 0,0 c -0.212,0 -0.425,0.078 -0.591,0.236 -0.342,0.326 -0.356,0.869 -0.03,1.211 L 4.754,7.095 C 5.082,7.438 5.623,7.45 5.966,7.124 6.308,6.799 6.322,6.256 5.996,5.914 L 0.621,0.266 C 0.452,0.089 0.226,0 0,0"
       style="fill:#022533;fill-opacity:1;fill-rule:nonzero;stroke:none"
       transform="matrix(0.35277776,0,0,-0.35277776,101.54909,139.61801)"
       clip-path="url(#clipPath911)" />
    <path
       id="path912"
       d="m 0,0 c 0,-1.275 -1.033,-2.308 -2.308,-2.308 -1.275,0 -2.308,1.033 -2.308,2.308 0,1.275 1.033,2.308 2.308,2.308 C -1.033,2.308 0,1.275 0,0"
       style="fill:#ffffff;fill-opacity:1;fill-rule:nonzero;stroke:none"
       transform="matrix(0.35277776,0,0,-0.35277776,102.23976,139.60556)"
       clip-path="url(#clipPath913)" />
    <path
       id="path914"
       d="m 0,0 c -0.8,0 -1.451,-0.651 -1.451,-1.452 0,-0.8 0.651,-1.451 1.451,-1.451 0.8,0 1.452,0.651 1.452,1.451 C 1.452,-0.651 0.8,0 0,0 m 0,-4.616 c -1.745,0 -3.164,1.419 -3.164,3.164 0,1.745 1.419,3.165 3.164,3.165 1.745,0 3.165,-1.42 3.165,-3.165 0,-1.745 -1.42,-3.164 -3.165,-3.164"
       style="fill:#022533;fill-opacity:1;fill-rule:nonzero;stroke:none"
       transform="matrix(0.35277776,0,0,-0.35277776,101.42532,139.09347)"
       clip-path="url(#clipPath915)" />
    <path
       id="path916"
       d="m 0,0 c 0,-1.275 -1.033,-2.308 -2.308,-2.308 -1.275,0 -2.308,1.033 -2.308,2.308 0,1.275 1.033,2.308 2.308,2.308 C -1.033,2.308 0,1.275 0,0"
       style="fill:#ffffff;fill-opacity:1;fill-rule:nonzero;stroke:none"
       transform="matrix(0.35277776,0,0,-0.35277776,103.62128,149.27636)"
       clip-path="url(#clipPath917)" />
    <path
       id="path918"
       d="m 0,0 c -0.8,0 -1.452,-0.652 -1.452,-1.452 0,-0.8 0.652,-1.452 1.452,-1.452 0.8,0 1.452,0.652 1.452,1.452 C 1.452,-0.652 0.8,0 0,0 m 0,-4.617 c -1.745,0 -3.165,1.42 -3.165,3.165 0,1.745 1.42,3.165 3.165,3.165 1.745,0 3.165,-1.42 3.165,-3.165 0,-1.745 -1.42,-3.165 -3.165,-3.165"
       style="fill:#022533;fill-opacity:1;fill-rule:nonzero;stroke:none"
       transform="matrix(0.35277776,0,0,-0.35277776,102.80711,148.76409)"
       clip-path="url(#clipPath919)" />
    <path
       id="path920"
       d="m 0,0 c -0.213,0 -0.427,0.079 -0.593,0.238 -0.341,0.327 -0.353,0.87 -0.026,1.211 L 5.528,7.865 C 5.69,8.034 5.913,8.129 6.146,8.129 h 31.82 c 0.473,0 0.856,-0.383 0.856,-0.856 0,-0.473 -0.383,-0.857 -0.856,-0.857 L 6.512,6.416 0.619,0.264 C 0.45,0.089 0.225,0 0,0"
       style="fill:#022533;fill-opacity:1;fill-rule:nonzero;stroke:none"
       transform="matrix(0.35277776,0,0,-0.35277776,109.32244,132.46333)"
       clip-path="url(#clipPath921)" />
    <path
       id="path922"
       d="m 0,0 c -0.213,0 -0.427,0.079 -0.593,0.238 -0.341,0.327 -0.353,0.87 -0.026,1.211 l 6.148,6.416 c 0.162,0.169 0.385,0.264 0.618,0.264 h 10.57 l 3.558,2.576 c 0.383,0.277 0.917,0.191 1.196,-0.192 0.278,-0.383 0.191,-0.919 -0.192,-1.196 L 17.497,6.579 C 17.351,6.473 17.175,6.416 16.995,6.416 H 6.513 L 0.619,0.264 C 0.45,0.089 0.225,0 0,0"
       style="fill:#022533;fill-opacity:1;fill-rule:nonzero;stroke:none"
       transform="matrix(0.35277776,0,0,-0.35277776,109.29498,128.66398)"
       clip-path="url(#clipPath923)" />
    <path
       id="path924"
       d="M 0,0 C -0.215,0 -0.43,0.081 -0.596,0.242 L -4.147,3.69 c -0.341,0.329 -0.348,0.871 -0.018,1.211 0.328,0.339 0.871,0.347 1.21,0.018 L 0.596,1.471 C 0.937,1.141 0.944,0.599 0.614,0.26 0.447,0.087 0.223,0 0,0"
       style="fill:#022533;fill-opacity:1;fill-rule:nonzero;stroke:none"
       transform="matrix(0.35277776,0,0,-0.35277776,117.18986,131.40877)"
       clip-path="url(#clipPath925)" />
    <path
       id="path926"
       d="m 0,0 c -0.215,0 -0.43,0.081 -0.597,0.242 l -3.55,3.448 c -0.34,0.329 -0.347,0.872 -0.017,1.211 0.329,0.339 0.871,0.347 1.211,0.018 L 0.597,1.471 C 0.937,1.141 0.944,0.599 0.614,0.26 0.447,0.087 0.223,0 0,0"
       style="fill:#022533;fill-opacity:1;fill-rule:nonzero;stroke:none"
       transform="matrix(0.35277776,0,0,-0.35277776,105.27379,128.12755)"
       clip-path="url(#clipPath927)" />
    <path
       id="path928"
       d="m 0,0 c -0.215,0 -0.43,0.081 -0.597,0.242 l -3.55,3.448 c -0.34,0.329 -0.347,0.872 -0.017,1.211 0.329,0.34 0.871,0.346 1.211,0.018 L 0.597,1.471 C 0.937,1.141 0.944,0.599 0.614,0.26 0.447,0.087 0.223,0 0,0"
       style="fill:#022533;fill-opacity:1;fill-rule:nonzero;stroke:none"
       transform="matrix(0.35277776,0,0,-0.35277776,114.48986,127.78211)"
       clip-path="url(#clipPath929)" />
    <path
       id="path930"
       d="m 0,0 c -0.215,0 -0.43,0.081 -0.597,0.242 l -3.55,3.448 c -0.339,0.329 -0.347,0.872 -0.017,1.211 0.329,0.34 0.87,0.346 1.211,0.018 L 0.597,1.471 C 0.937,1.141 0.944,0.599 0.614,0.26 0.447,0.087 0.223,0 0,0"
       style="fill:#022533;fill-opacity:1;fill-rule:nonzero;stroke:none"
       transform="matrix(0.35277776,0,0,-0.35277776,101.30186,137.45294)"
       clip-path="url(#clipPath931)" />
    <path
       id="path932"
       d="m 0,0 c -0.215,0 -0.43,0.081 -0.596,0.242 l -3.55,3.447 c -0.34,0.33 -0.348,0.872 -0.018,1.211 0.329,0.34 0.872,0.347 1.21,0.018 L 0.596,1.471 C 0.937,1.141 0.944,0.599 0.614,0.26 0.447,0.087 0.223,0 0,0"
       style="fill:#022533;fill-opacity:1;fill-rule:nonzero;stroke:none"
       transform="matrix(0.35277776,0,0,-0.35277776,103.37419,133.82632)"
       clip-path="url(#clipPath933)" />
    <path
       id="path934"
       d="M 0,0 C 0,1.275 1.033,2.308 2.308,2.308 3.583,2.308 4.616,1.275 4.616,0 4.616,-1.275 3.583,-2.308 2.308,-2.308 1.033,-2.308 0,-1.275 0,0"
       style="fill:#ffffff;fill-opacity:1;fill-rule:nonzero;stroke:none"
       transform="matrix(0.35277776,0,0,-0.35277776,116.45201,124.66768)"
       clip-path="url(#clipPath935)" />
    <path
       id="path936"
       d="m 0,0 c -0.8,0 -1.452,-0.651 -1.452,-1.451 0,-0.801 0.652,-1.452 1.452,-1.452 0.8,0 1.452,0.651 1.452,1.452 C 1.452,-0.651 0.8,0 0,0 m 0,-4.616 c -1.745,0 -3.165,1.42 -3.165,3.165 0,1.745 1.42,3.164 3.165,3.164 1.745,0 3.165,-1.419 3.165,-3.164 0,-1.745 -1.42,-3.165 -3.165,-3.165"
       style="fill:#022533;fill-opacity:1;fill-rule:nonzero;stroke:none"
       transform="matrix(0.35277776,0,0,-0.35277776,117.26624,124.15566)"
       clip-path="url(#clipPath937)" />
    <path
       id="path938"
       d="m 0,0 c -0.225,0 -0.45,0.089 -0.619,0.264 l -5.893,6.152 h -13.909 c -0.18,0 -0.356,0.057 -0.502,0.163 l -3.783,2.739 c -0.383,0.277 -0.469,0.812 -0.191,1.196 0.278,0.383 0.813,0.469 1.196,0.191 l 3.558,-2.576 h 13.997 c 0.233,0 0.456,-0.095 0.618,-0.264 L 0.619,1.449 C 0.946,1.108 0.934,0.565 0.593,0.238 0.427,0.079 0.213,0 0,0"
       style="fill:#022533;fill-opacity:1;fill-rule:nonzero;stroke:none"
       transform="matrix(0.35277776,0,0,-0.35277776,109.27313,130.39104)"
       clip-path="url(#clipPath939)" />
    <path
       id="path940"
       d="M 0,0 C -0.225,0 -0.45,0.089 -0.619,0.264 L -6.765,6.68 c -0.327,0.341 -0.316,0.884 0.026,1.211 0.341,0.328 0.883,0.317 1.211,-0.026 L 0.619,1.449 C 0.946,1.108 0.934,0.565 0.593,0.238 0.427,0.079 0.213,0 0,0"
       style="fill:#022533;fill-opacity:1;fill-rule:nonzero;stroke:none"
       transform="matrix(0.35277776,0,0,-0.35277776,109.27313,135.05363)"
       clip-path="url(#clipPath941)" />
    <path
       id="path942"
       d="m 0,0 c 0,1.275 -1.033,2.308 -2.308,2.308 -1.275,0 -2.308,-1.033 -2.308,-2.308 0,-1.275 1.033,-2.308 2.308,-2.308 C -1.033,-2.308 0,-1.275 0,0"
       style="fill:#ffffff;fill-opacity:1;fill-rule:nonzero;stroke:none"
       transform="matrix(0.35277776,0,0,-0.35277776,101.25281,126.3946)"
       clip-path="url(#clipPath943)" />
    <path
       id="path944"
       d="m 0,0 c -0.8,0 -1.452,-0.651 -1.452,-1.452 0,-0.8 0.652,-1.451 1.452,-1.451 0.8,0 1.452,0.651 1.452,1.451 C 1.452,-0.651 0.8,0 0,0 m 0,-4.616 c -1.745,0 -3.165,1.419 -3.165,3.164 0,1.745 1.42,3.165 3.165,3.165 1.745,0 3.165,-1.42 3.165,-3.165 0,-1.745 -1.42,-3.164 -3.165,-3.164"
       style="fill:#022533;fill-opacity:1;fill-rule:nonzero;stroke:none"
       transform="matrix(0.35277776,0,0,-0.35277776,100.43866,125.8825)"
       clip-path="url(#clipPath945)" />
    <path
       id="path946"
       d="m 0,0 c 0,1.275 -1.033,2.308 -2.308,2.308 -1.275,0 -2.308,-1.033 -2.308,-2.308 0,-1.275 1.033,-2.308 2.308,-2.308 C -1.033,-2.308 0,-1.275 0,0"
       style="fill:#ffffff;fill-opacity:1;fill-rule:nonzero;stroke:none"
       transform="matrix(0.35277776,0,0,-0.35277776,107.64242,132.09344)"
       clip-path="url(#clipPath947)" />
    <path
       id="path948"
       d="m 0,0 c -0.8,0 -1.452,-0.651 -1.452,-1.452 0,-0.8 0.652,-1.452 1.452,-1.452 0.8,0 1.451,0.652 1.451,1.452 C 1.451,-0.651 0.8,0 0,0 m 0,-4.617 c -1.745,0 -3.165,1.42 -3.165,3.165 0,1.745 1.42,3.165 3.165,3.165 1.745,0 3.164,-1.42 3.164,-3.165 0,-1.745 -1.419,-3.165 -3.164,-3.165"
       style="fill:#022533;fill-opacity:1;fill-rule:nonzero;stroke:none"
       transform="matrix(0.35277776,0,0,-0.35277776,106.82827,131.58128)"
       clip-path="url(#clipPath949)" />
    <path
       id="path950"
       d="m 0,0 c -0.474,0 -0.857,0.383 -0.857,0.857 v 81.749 c 0,0.473 0.383,0.857 0.857,0.857 0.474,0 0.857,-0.384 0.857,-0.857 V 0.857 C 0.857,0.383 0.474,0 0,0"
       style="fill:#022533;fill-opacity:1;fill-rule:nonzero;stroke:none"
       transform="matrix(0.35277776,0,0,-0.35277776,109.32244,149.71391)"
       clip-path="url(#clipPath951)" />
    <path
       id="path952"
       d="m 0,0 c 0,-1.275 1.033,-2.308 2.308,-2.308 1.275,0 2.308,1.033 2.308,2.308 0,1.275 -1.033,2.308 -2.308,2.308 C 1.033,2.308 0,1.275 0,0"
       style="fill:#ffffff;fill-opacity:1;fill-rule:nonzero;stroke:none"
       transform="matrix(0.35277776,0,0,-0.35277776,108.50816,149.27636)"
       clip-path="url(#clipPath953)" />
    <path
       id="path954"
       d="m 0,0 c -0.8,0 -1.452,-0.652 -1.452,-1.452 0,-0.8 0.652,-1.452 1.452,-1.452 0.8,0 1.452,0.652 1.452,1.452 C 1.452,-0.652 0.8,0 0,0 m 0,-4.617 c -1.745,0 -3.165,1.42 -3.165,3.165 0,1.745 1.42,3.165 3.165,3.165 1.745,0 3.165,-1.42 3.165,-3.165 0,-1.745 -1.42,-3.165 -3.165,-3.165"
       style="fill:#022533;fill-opacity:1;fill-rule:nonzero;stroke:none"
       transform="matrix(0.35277776,0,0,-0.35277776,109.32244,148.76409)"
       clip-path="url(#clipPath955)" />
    <path
       id="path956"
       d="m 0,0 c 0,-1.275 1.033,-2.308 2.308,-2.308 1.275,0 2.308,1.033 2.308,2.308 0,1.275 -1.033,2.308 -2.308,2.308 C 1.033,2.308 0,1.275 0,0"
       style="fill:#ffffff;fill-opacity:1;fill-rule:nonzero;stroke:none"
       transform="matrix(0.35277776,0,0,-0.35277776,108.50816,120.6094)"
       clip-path="url(#clipPath957)" />
    <path
       id="path958"
       d="m 0,0 c -0.8,0 -1.452,-0.651 -1.452,-1.452 0,-0.8 0.652,-1.452 1.452,-1.452 0.8,0 1.452,0.652 1.452,1.452 C 1.452,-0.651 0.8,0 0,0 m 0,-4.617 c -1.745,0 -3.165,1.42 -3.165,3.165 0,1.745 1.42,3.165 3.165,3.165 1.745,0 3.165,-1.42 3.165,-3.165 0,-1.745 -1.42,-3.165 -3.165,-3.165"
       style="fill:#022533;fill-opacity:1;fill-rule:nonzero;stroke:none"
       transform="matrix(0.35277776,0,0,-0.35277776,109.32244,120.0972)"
       clip-path="url(#clipPath959)" />
    <path
       id="path960"
       d="M 0,0 V 0.138 C 0,0.213 -0.008,0.286 -0.022,0.357 H 2.396 C 2.382,0.286 2.374,0.213 2.374,0.138 V 0 Z M 4.049,1.22 H 3.996 V 2.2 c 0,0.651 -0.327,1.224 -0.824,1.57 L 4.001,4.113 C 3.625,4.113 3.267,4.036 2.939,3.902 2.681,4.032 2.393,4.113 2.083,4.113 H 0.291 c -0.31,0 -0.598,-0.081 -0.856,-0.211 -0.328,0.134 -0.686,0.211 -1.062,0.211 L -0.798,3.77 C -1.295,3.424 -1.622,2.851 -1.622,2.2 V 1.22 h -0.053 c -0.742,0 -1.344,-0.602 -1.344,-1.344 v -2.962 h 0.205 c 0.496,0 0.955,0.139 1.359,0.364 0.295,-0.657 0.952,-1.116 1.718,-1.116 h 1.848 c 0.766,0 1.423,0.459 1.718,1.116 0.404,-0.225 0.863,-0.364 1.359,-0.364 h 0.205 v 2.962 c 0,0.742 -0.602,1.344 -1.344,1.344"
       style="fill:#022533;fill-opacity:1;fill-rule:nonzero;stroke:none"
       transform="matrix(0.35277776,0,0,-0.35277776,113.00163,124.29871)"
       clip-path="url(#clipPath961)" />
    <path
       id="path962"
       d="M 0,0 V 0.138 C 0,0.213 -0.008,0.286 -0.022,0.357 H 2.396 C 2.382,0.286 2.374,0.213 2.374,0.138 V 0 Z M 4.049,1.22 H 3.996 V 2.2 c 0,0.651 -0.327,1.224 -0.824,1.57 L 4.001,4.113 C 3.625,4.113 3.267,4.036 2.939,3.902 2.681,4.032 2.393,4.113 2.083,4.113 H 0.291 c -0.31,0 -0.598,-0.081 -0.856,-0.211 -0.328,0.134 -0.686,0.211 -1.062,0.211 L -0.798,3.77 C -1.295,3.424 -1.622,2.851 -1.622,2.2 V 1.22 h -0.053 c -0.742,0 -1.344,-0.602 -1.344,-1.344 v -2.962 h 0.205 c 0.496,0 0.955,0.139 1.359,0.364 0.295,-0.657 0.952,-1.116 1.718,-1.116 h 1.848 c 0.766,0 1.423,0.459 1.718,1.116 0.404,-0.225 0.863,-0.364 1.359,-0.364 h 0.205 v 2.962 c 0,0.742 -0.602,1.344 -1.344,1.344 z"
       style="fill:none;stroke:#022533;stroke-width:0.448;stroke-linecap:round;stroke-linejoin:round;stroke-miterlimit:10;stroke-dasharray:none;stroke-opacity:1"
       transform="matrix(0.35277776,0,0,-0.35277776,113.00163,124.29871)"
       clip-path="url(#clipPath963)" />
    <path
       id="path964"
       d="m 0,0 v -1.038 c 0,-0.286 0.119,-0.563 0.339,-0.787 l 1.11,-1.133 1.147,1.127 c 0.232,0.228 0.358,0.513 0.358,0.807 V 0 Z"
       style="fill:#022533;fill-opacity:1;fill-rule:nonzero;stroke:#022533;stroke-width:0.448;stroke-linecap:round;stroke-linejoin:round;stroke-miterlimit:10;stroke-dasharray:none;stroke-opacity:1"
       transform="matrix(0.35277776,0,0,-0.35277776,112.89937,125.67486)"
       clip-path="url(#clipPath965)" />
  </g>
</svg>
